<svg width="1728" height="1117" viewBox="0 0 1728 1117" fill="none" xmlns="http://www.w3.org/2000/svg">
<rect width="1728" height="1117" fill="white"/>
<path d="M104.116 207H102.856L97.744 196.704H83.416L78.412 207H77.152L90.616 179.352L104.116 207ZM97.312 195.66L90.544 181.944L83.92 195.66H97.312ZM115.463 190.8H116.615V194.76C117.263 193.464 118.271 192.42 119.639 191.628C121.007 190.812 122.447 190.404 123.959 190.404C125.519 190.404 126.947 190.788 128.243 191.556C129.563 192.324 130.607 193.356 131.375 194.652C132.143 195.948 132.527 197.364 132.527 198.9C132.527 200.436 132.143 201.852 131.375 203.148C130.607 204.444 129.563 205.476 128.243 206.244C126.947 207.012 125.519 207.396 123.959 207.396C122.495 207.396 121.079 207 119.711 206.208C118.367 205.416 117.335 204.372 116.615 203.076V214.2H115.463V190.8ZM124.031 206.388C125.351 206.388 126.575 206.052 127.703 205.38C128.831 204.684 129.719 203.772 130.367 202.644C131.039 201.492 131.375 200.244 131.375 198.9C131.375 197.58 131.039 196.344 130.367 195.192C129.695 194.04 128.795 193.128 127.667 192.456C126.539 191.76 125.315 191.412 123.995 191.412C122.675 191.412 121.439 191.76 120.287 192.456C119.159 193.152 118.247 194.076 117.551 195.228C116.879 196.38 116.543 197.616 116.543 198.936C116.543 200.256 116.879 201.492 117.551 202.644C118.247 203.772 119.171 204.684 120.323 205.38C121.475 206.052 122.711 206.388 124.031 206.388ZM143.767 207.396C142.231 207.396 140.803 207.012 139.483 206.244C138.163 205.476 137.119 204.444 136.351 203.148C135.583 201.828 135.199 200.412 135.199 198.9C135.199 197.388 135.583 195.984 136.351 194.688C137.119 193.368 138.163 192.324 139.483 191.556C140.803 190.788 142.231 190.404 143.767 190.404C145.327 190.404 146.803 190.824 148.195 191.664C149.587 192.48 150.559 193.548 151.111 194.868V190.8H152.263V207H151.111V202.968C150.463 204.312 149.455 205.392 148.087 206.208C146.743 207 145.303 207.396 143.767 207.396ZM143.839 206.388C145.159 206.388 146.383 206.052 147.511 205.38C148.639 204.684 149.527 203.772 150.175 202.644C150.847 201.492 151.183 200.244 151.183 198.9C151.183 197.58 150.847 196.344 150.175 195.192C149.503 194.04 148.603 193.128 147.475 192.456C146.347 191.76 145.123 191.412 143.803 191.412C142.483 191.412 141.247 191.76 140.095 192.456C138.967 193.152 138.055 194.076 137.359 195.228C136.687 196.38 136.351 197.616 136.351 198.936C136.351 200.256 136.687 201.492 137.359 202.644C138.055 203.772 138.979 204.684 140.131 205.38C141.283 206.052 142.519 206.388 143.839 206.388ZM160.731 207.396C159.579 207.396 158.559 207.204 157.671 206.82C156.783 206.412 156.147 205.896 155.763 205.272V203.364C156.219 204.396 156.843 205.164 157.635 205.668C158.427 206.148 159.435 206.388 160.659 206.388C161.835 206.388 162.783 206.028 163.503 205.308C164.223 204.564 164.583 203.616 164.583 202.464C164.583 201.48 164.379 200.724 163.971 200.196C163.563 199.644 162.903 199.092 161.991 198.54L160.623 197.748C159.639 197.148 158.895 196.68 158.391 196.344C157.911 195.984 157.527 195.588 157.239 195.156C156.951 194.7 156.807 194.172 156.807 193.572C156.807 192.612 157.143 191.844 157.815 191.268C158.487 190.692 159.363 190.404 160.443 190.404C161.763 190.404 162.867 190.704 163.755 191.304V192.888C163.011 191.904 161.943 191.412 160.551 191.412C159.783 191.412 159.159 191.604 158.679 191.988C158.199 192.372 157.959 192.864 157.959 193.464C157.959 193.992 158.103 194.46 158.391 194.868C158.679 195.252 159.075 195.612 159.579 195.948C160.107 196.284 160.971 196.788 162.171 197.46C163.395 198.156 164.295 198.876 164.871 199.62C165.447 200.34 165.735 201.288 165.735 202.464C165.735 203.952 165.243 205.152 164.259 206.064C163.299 206.952 162.123 207.396 160.731 207.396ZM173.247 207.396C172.095 207.396 171.075 207.204 170.187 206.82C169.299 206.412 168.663 205.896 168.279 205.272V203.364C168.735 204.396 169.359 205.164 170.151 205.668C170.943 206.148 171.951 206.388 173.175 206.388C174.351 206.388 175.299 206.028 176.019 205.308C176.739 204.564 177.099 203.616 177.099 202.464C177.099 201.48 176.895 200.724 176.487 200.196C176.079 199.644 175.419 199.092 174.507 198.54L173.139 197.748C172.155 197.148 171.411 196.68 170.907 196.344C170.427 195.984 170.043 195.588 169.755 195.156C169.467 194.7 169.323 194.172 169.323 193.572C169.323 192.612 169.659 191.844 170.331 191.268C171.003 190.692 171.879 190.404 172.959 190.404C174.279 190.404 175.383 190.704 176.271 191.304V192.888C175.527 191.904 174.459 191.412 173.067 191.412C172.299 191.412 171.675 191.604 171.195 191.988C170.715 192.372 170.475 192.864 170.475 193.464C170.475 193.992 170.619 194.46 170.907 194.868C171.195 195.252 171.591 195.612 172.095 195.948C172.623 196.284 173.487 196.788 174.687 197.46C175.911 198.156 176.811 198.876 177.387 199.62C177.963 200.34 178.251 201.288 178.251 202.464C178.251 203.952 177.759 205.152 176.775 206.064C175.815 206.952 174.639 207.396 173.247 207.396ZM183.242 187.092C182.906 187.092 182.606 186.972 182.342 186.732C182.102 186.492 181.982 186.192 181.982 185.832C181.982 185.496 182.102 185.208 182.342 184.968C182.606 184.728 182.906 184.608 183.242 184.608C183.578 184.608 183.866 184.728 184.106 184.968C184.37 185.208 184.502 185.496 184.502 185.832C184.502 186.192 184.37 186.492 184.106 186.732C183.866 186.972 183.578 187.092 183.242 187.092ZM182.666 190.8H183.818V207H182.666V190.8ZM196.89 207.576C195.258 207.576 193.782 207.18 192.462 206.388C191.142 205.572 190.11 204.504 189.366 203.184C188.622 201.84 188.25 200.388 188.25 198.828C188.25 197.292 188.622 195.864 189.366 194.544C190.134 193.224 191.166 192.18 192.462 191.412C193.782 190.62 195.246 190.224 196.854 190.224C198.438 190.224 199.878 190.62 201.174 191.412C202.494 192.18 203.526 193.224 204.27 194.544C205.014 195.864 205.386 197.292 205.386 198.828C205.386 200.436 205.026 201.912 204.306 203.256C203.586 204.576 202.578 205.632 201.282 206.424C200.01 207.192 198.546 207.576 196.89 207.576ZM196.89 206.568C198.258 206.568 199.506 206.22 200.634 205.524C201.762 204.828 202.638 203.904 203.262 202.752C203.91 201.576 204.234 200.292 204.234 198.9C204.234 197.532 203.91 196.26 203.262 195.084C202.614 193.908 201.726 192.972 200.598 192.276C199.47 191.58 198.222 191.232 196.854 191.232C195.486 191.232 194.226 191.592 193.074 192.312C191.946 193.008 191.046 193.944 190.374 195.12C189.726 196.296 189.402 197.568 189.402 198.936C189.402 200.304 189.726 201.576 190.374 202.752C191.046 203.904 191.946 204.828 193.074 205.524C194.226 206.22 195.498 206.568 196.89 206.568ZM208.627 190.8H209.779V194.4C210.307 193.2 211.207 192.24 212.479 191.52C213.751 190.776 215.155 190.404 216.691 190.404C218.683 190.404 220.255 191.04 221.407 192.312C222.583 193.56 223.171 195.312 223.171 197.568V207H222.019V197.568C222.019 195.624 221.539 194.112 220.579 193.032C219.643 191.952 218.323 191.412 216.619 191.412C215.371 191.412 214.219 191.7 213.163 192.276C212.131 192.828 211.303 193.596 210.679 194.58C210.079 195.564 209.779 196.68 209.779 197.928V207H208.627V190.8ZM235.349 207.396C233.813 207.396 232.385 207.012 231.065 206.244C229.745 205.476 228.701 204.444 227.933 203.148C227.165 201.828 226.781 200.412 226.781 198.9C226.781 197.388 227.165 195.984 227.933 194.688C228.701 193.368 229.745 192.324 231.065 191.556C232.385 190.788 233.813 190.404 235.349 190.404C236.909 190.404 238.385 190.824 239.777 191.664C241.169 192.48 242.141 193.548 242.693 194.868V190.8H243.845V207H242.693V202.968C242.045 204.312 241.037 205.392 239.669 206.208C238.325 207 236.885 207.396 235.349 207.396ZM235.421 206.388C236.741 206.388 237.965 206.052 239.093 205.38C240.221 204.684 241.109 203.772 241.757 202.644C242.429 201.492 242.765 200.244 242.765 198.9C242.765 197.58 242.429 196.344 241.757 195.192C241.085 194.04 240.185 193.128 239.057 192.456C237.929 191.76 236.705 191.412 235.385 191.412C234.065 191.412 232.829 191.76 231.677 192.456C230.549 193.152 229.637 194.076 228.941 195.228C228.269 196.38 227.933 197.616 227.933 198.936C227.933 200.256 228.269 201.492 228.941 202.644C229.637 203.772 230.561 204.684 231.713 205.38C232.865 206.052 234.101 206.388 235.421 206.388ZM254.185 207.216C252.409 207.216 250.933 206.676 249.757 205.596C248.605 204.516 248.029 203.028 248.029 201.132V184.284H249.181V190.8H254.149V191.808H249.181V201.132C249.181 202.716 249.649 203.964 250.585 204.876C251.545 205.764 252.745 206.208 254.185 206.208V207.216ZM265.097 206.424C266.345 206.424 267.533 206.1 268.661 205.452C269.789 204.804 270.725 203.916 271.469 202.788V204.624C270.581 205.608 269.609 206.328 268.553 206.784C267.497 207.216 266.297 207.432 264.953 207.432C263.465 207.432 262.061 207.036 260.741 206.244C259.445 205.452 258.401 204.396 257.609 203.076C256.841 201.756 256.457 200.352 256.457 198.864C256.457 197.256 256.841 195.816 257.609 194.544C258.377 193.248 259.421 192.24 260.741 191.52C262.085 190.8 263.573 190.44 265.205 190.44C267.701 190.44 269.825 191.424 271.577 193.392L260.273 204.552C261.065 205.2 261.833 205.68 262.577 205.992C263.321 206.28 264.161 206.424 265.097 206.424ZM257.609 198.756C257.609 200.748 258.269 202.452 259.589 203.868L270.137 193.392C269.345 192.696 268.577 192.204 267.833 191.916C267.089 191.604 266.201 191.448 265.169 191.448C263.705 191.448 262.397 191.772 261.245 192.42C260.117 193.044 259.229 193.908 258.581 195.012C257.933 196.116 257.609 197.364 257.609 198.756ZM287.012 207.396C285.86 207.396 284.84 207.204 283.952 206.82C283.064 206.412 282.428 205.896 282.044 205.272V203.364C282.5 204.396 283.124 205.164 283.916 205.668C284.708 206.148 285.716 206.388 286.94 206.388C288.116 206.388 289.064 206.028 289.784 205.308C290.504 204.564 290.864 203.616 290.864 202.464C290.864 201.48 290.66 200.724 290.252 200.196C289.844 199.644 289.184 199.092 288.272 198.54L286.904 197.748C285.92 197.148 285.176 196.68 284.672 196.344C284.192 195.984 283.808 195.588 283.52 195.156C283.232 194.7 283.088 194.172 283.088 193.572C283.088 192.612 283.424 191.844 284.096 191.268C284.768 190.692 285.644 190.404 286.724 190.404C288.044 190.404 289.148 190.704 290.036 191.304V192.888C289.292 191.904 288.224 191.412 286.832 191.412C286.064 191.412 285.44 191.604 284.96 191.988C284.48 192.372 284.24 192.864 284.24 193.464C284.24 193.992 284.384 194.46 284.672 194.868C284.96 195.252 285.356 195.612 285.86 195.948C286.388 196.284 287.252 196.788 288.452 197.46C289.676 198.156 290.576 198.876 291.152 199.62C291.728 200.34 292.016 201.288 292.016 202.464C292.016 203.952 291.524 205.152 290.54 206.064C289.58 206.952 288.404 207.396 287.012 207.396ZM303.488 206.424C304.736 206.424 305.924 206.1 307.052 205.452C308.18 204.804 309.116 203.916 309.86 202.788V204.624C308.972 205.608 308 206.328 306.944 206.784C305.888 207.216 304.688 207.432 303.344 207.432C301.856 207.432 300.452 207.036 299.132 206.244C297.836 205.452 296.792 204.396 296 203.076C295.232 201.756 294.848 200.352 294.848 198.864C294.848 197.256 295.232 195.816 296 194.544C296.768 193.248 297.812 192.24 299.132 191.52C300.476 190.8 301.964 190.44 303.596 190.44C306.092 190.44 308.216 191.424 309.968 193.392L298.664 204.552C299.456 205.2 300.224 205.68 300.968 205.992C301.712 206.28 302.552 206.424 303.488 206.424ZM296 198.756C296 200.748 296.66 202.452 297.98 203.868L308.528 193.392C307.736 192.696 306.968 192.204 306.224 191.916C305.48 191.604 304.592 191.448 303.56 191.448C302.096 191.448 300.788 191.772 299.636 192.42C298.508 193.044 297.62 193.908 296.972 195.012C296.324 196.116 296 197.364 296 198.756ZM319.725 207.324C318.597 207.324 317.565 207.072 316.629 206.568C315.693 206.04 314.949 205.308 314.397 204.372C313.845 203.436 313.569 202.392 313.569 201.24V180H314.721V201.24C314.721 202.2 314.937 203.064 315.369 203.832C315.825 204.6 316.437 205.212 317.205 205.668C317.973 206.1 318.813 206.316 319.725 206.316V207.324ZM329.604 185.04C328.692 185.04 327.852 185.268 327.084 185.724C326.316 186.156 325.704 186.768 325.248 187.56C324.816 188.328 324.6 189.18 324.6 190.116V190.8H329.604V191.808H324.6V207H323.448V190.116C323.448 188.988 323.712 187.968 324.24 187.056C324.792 186.12 325.536 185.388 326.472 184.86C327.432 184.308 328.476 184.032 329.604 184.032V185.04ZM331.831 195.768H343.027V196.884H331.831V195.768ZM352.517 207.216C350.741 207.216 349.265 206.676 348.089 205.596C346.937 204.516 346.361 203.028 346.361 201.132V184.284H347.513V190.8H352.481V191.808H347.513V201.132C347.513 202.716 347.981 203.964 348.917 204.876C349.877 205.764 351.077 206.208 352.517 206.208V207.216ZM363.177 207.396C361.641 207.396 360.213 207.012 358.893 206.244C357.573 205.476 356.529 204.444 355.761 203.148C354.993 201.828 354.609 200.412 354.609 198.9C354.609 197.388 354.993 195.984 355.761 194.688C356.529 193.368 357.573 192.324 358.893 191.556C360.213 190.788 361.641 190.404 363.177 190.404C364.737 190.404 366.213 190.824 367.605 191.664C368.997 192.48 369.969 193.548 370.521 194.868V190.8H371.673V207H370.521V202.968C369.873 204.312 368.865 205.392 367.497 206.208C366.153 207 364.713 207.396 363.177 207.396ZM363.249 206.388C364.569 206.388 365.793 206.052 366.921 205.38C368.049 204.684 368.937 203.772 369.585 202.644C370.257 201.492 370.593 200.244 370.593 198.9C370.593 197.58 370.257 196.344 369.585 195.192C368.913 194.04 368.013 193.128 366.885 192.456C365.757 191.76 364.533 191.412 363.213 191.412C361.893 191.412 360.657 191.76 359.505 192.456C358.377 193.152 357.465 194.076 356.769 195.228C356.097 196.38 355.761 197.616 355.761 198.936C355.761 200.256 356.097 201.492 356.769 202.644C357.465 203.772 358.389 204.684 359.541 205.38C360.693 206.052 361.929 206.388 363.249 206.388ZM383.345 207.396C381.065 207.396 379.301 206.772 378.053 205.524C376.829 204.276 376.217 202.512 376.217 200.232V190.8H377.369V200.232C377.369 202.2 377.885 203.724 378.917 204.804C379.973 205.86 381.449 206.388 383.345 206.388C384.497 206.388 385.553 206.136 386.513 205.632C387.473 205.104 388.229 204.372 388.781 203.436C389.333 202.5 389.609 201.432 389.609 200.232V190.8H390.761V207H389.609V203.976C389.057 204.984 388.229 205.812 387.125 206.46C386.021 207.084 384.761 207.396 383.345 207.396ZM403.119 214.488C401.751 214.488 400.419 214.176 399.123 213.552C397.827 212.928 396.819 212.112 396.099 211.104V209.448C396.723 210.6 397.695 211.56 399.015 212.328C400.359 213.096 401.727 213.48 403.119 213.48C405.423 213.48 407.199 212.796 408.447 211.428C409.695 210.084 410.319 208.104 410.319 205.488V203.076C409.671 204.372 408.651 205.428 407.259 206.244C405.891 207.036 404.451 207.432 402.939 207.432C401.403 207.432 399.975 207.048 398.655 206.28C397.335 205.512 396.291 204.48 395.523 203.184C394.755 201.864 394.371 200.448 394.371 198.936C394.371 197.424 394.755 196.02 395.523 194.724C396.291 193.404 397.335 192.36 398.655 191.592C399.975 190.824 401.403 190.44 402.939 190.44C404.523 190.44 405.987 190.836 407.331 191.628C408.675 192.42 409.671 193.488 410.319 194.832V190.8H411.471V205.488C411.471 208.44 410.751 210.672 409.311 212.184C407.895 213.72 405.831 214.488 403.119 214.488ZM403.011 206.424C404.331 206.424 405.555 206.088 406.683 205.416C407.811 204.72 408.699 203.808 409.347 202.68C410.019 201.528 410.355 200.28 410.355 198.936C410.355 197.592 410.019 196.356 409.347 195.228C408.699 194.076 407.811 193.164 406.683 192.492C405.555 191.796 404.331 191.448 403.011 191.448C401.667 191.448 400.419 191.796 399.267 192.492C398.139 193.164 397.227 194.076 396.531 195.228C395.859 196.356 395.523 197.592 395.523 198.936C395.523 200.28 395.859 201.528 396.531 202.68C397.227 203.808 398.139 204.72 399.267 205.416C400.419 206.088 401.667 206.424 403.011 206.424ZM416.014 180H417.166V194.148C417.67 193.068 418.522 192.18 419.722 191.484C420.946 190.764 422.182 190.404 423.43 190.404C425.71 190.404 427.462 191.028 428.686 192.276C429.934 193.524 430.558 195.288 430.558 197.568V207H429.406V197.568C429.406 195.6 428.878 194.088 427.822 193.032C426.79 191.952 425.326 191.412 423.43 191.412C422.278 191.412 421.222 191.688 420.262 192.24C419.302 192.768 418.546 193.512 417.994 194.472C417.442 195.408 417.166 196.44 417.166 197.568V207H416.014V180ZM440.9 207.216C439.124 207.216 437.648 206.676 436.472 205.596C435.32 204.516 434.744 203.028 434.744 201.132V184.284H435.896V190.8H440.864V191.808H435.896V201.132C435.896 202.716 436.364 203.964 437.3 204.876C438.26 205.764 439.46 206.208 440.9 206.208V207.216ZM464.906 207.396L461.234 199.548L457.526 207.396L449.75 190.8H450.938L457.562 204.876L460.694 198.288L457.238 190.872H458.39L461.27 197.136L464.222 190.8H465.374L461.846 198.324L464.906 204.912L471.422 190.836H472.574L464.906 207.396ZM482.187 206.424C483.435 206.424 484.623 206.1 485.751 205.452C486.879 204.804 487.815 203.916 488.559 202.788V204.624C487.671 205.608 486.699 206.328 485.643 206.784C484.587 207.216 483.387 207.432 482.043 207.432C480.555 207.432 479.151 207.036 477.831 206.244C476.535 205.452 475.491 204.396 474.699 203.076C473.931 201.756 473.547 200.352 473.547 198.864C473.547 197.256 473.931 195.816 474.699 194.544C475.467 193.248 476.511 192.24 477.831 191.52C479.175 190.8 480.663 190.44 482.295 190.44C484.791 190.44 486.915 191.424 488.667 193.392L477.363 204.552C478.155 205.2 478.923 205.68 479.667 205.992C480.411 206.28 481.251 206.424 482.187 206.424ZM474.699 198.756C474.699 200.748 475.359 202.452 476.679 203.868L487.227 193.392C486.435 192.696 485.667 192.204 484.923 191.916C484.179 191.604 483.291 191.448 482.259 191.448C480.795 191.448 479.487 191.772 478.335 192.42C477.207 193.044 476.319 193.908 475.671 195.012C475.023 196.116 474.699 197.364 474.699 198.756ZM500.764 207.396C499.3 207.396 497.884 207 496.516 206.208C495.172 205.416 494.14 204.372 493.42 203.076V207H492.268V180H493.42V194.904C494.068 193.536 495.076 192.444 496.444 191.628C497.812 190.812 499.252 190.404 500.764 190.404C502.324 190.404 503.752 190.788 505.048 191.556C506.368 192.324 507.412 193.356 508.18 194.652C508.948 195.948 509.332 197.364 509.332 198.9C509.332 200.436 508.948 201.852 508.18 203.148C507.412 204.444 506.368 205.476 505.048 206.244C503.752 207.012 502.324 207.396 500.764 207.396ZM500.836 206.388C502.156 206.388 503.38 206.052 504.508 205.38C505.636 204.684 506.524 203.772 507.172 202.644C507.844 201.492 508.18 200.244 508.18 198.9C508.18 197.58 507.844 196.344 507.172 195.192C506.5 194.04 505.6 193.128 504.472 192.456C503.344 191.76 502.12 191.412 500.8 191.412C499.48 191.412 498.244 191.76 497.092 192.456C495.964 193.152 495.052 194.076 494.356 195.228C493.684 196.38 493.348 197.616 493.348 198.936C493.348 200.256 493.684 201.492 494.356 202.644C495.052 203.772 495.976 204.684 497.128 205.38C498.28 206.052 499.516 206.388 500.836 206.388ZM528.482 207.396C526.922 207.396 525.482 207.012 524.162 206.244C522.866 205.476 521.834 204.444 521.066 203.148C520.298 201.852 519.914 200.436 519.914 198.9C519.914 197.364 520.298 195.948 521.066 194.652C521.834 193.356 522.866 192.324 524.162 191.556C525.482 190.788 526.922 190.404 528.482 190.404C529.994 190.404 531.434 190.812 532.802 191.628C534.17 192.42 535.178 193.464 535.826 194.76V180H536.978V207H535.826V203.076C535.106 204.372 534.062 205.416 532.694 206.208C531.35 207 529.946 207.396 528.482 207.396ZM528.446 206.388C529.766 206.388 530.99 206.052 532.118 205.38C533.27 204.684 534.182 203.772 534.854 202.644C535.55 201.492 535.898 200.256 535.898 198.936C535.898 197.616 535.55 196.38 534.854 195.228C534.182 194.076 533.27 193.152 532.118 192.456C530.99 191.76 529.766 191.412 528.446 191.412C527.126 191.412 525.902 191.76 524.774 192.456C523.646 193.128 522.746 194.04 522.074 195.192C521.402 196.344 521.066 197.58 521.066 198.9C521.066 200.244 521.39 201.492 522.038 202.644C522.71 203.772 523.61 204.684 524.738 205.38C525.89 206.052 527.126 206.388 528.446 206.388ZM549.406 206.424C550.654 206.424 551.842 206.1 552.97 205.452C554.098 204.804 555.034 203.916 555.778 202.788V204.624C554.89 205.608 553.918 206.328 552.862 206.784C551.806 207.216 550.606 207.432 549.262 207.432C547.774 207.432 546.37 207.036 545.05 206.244C543.754 205.452 542.71 204.396 541.918 203.076C541.15 201.756 540.766 200.352 540.766 198.864C540.766 197.256 541.15 195.816 541.918 194.544C542.686 193.248 543.73 192.24 545.05 191.52C546.394 190.8 547.882 190.44 549.514 190.44C552.01 190.44 554.134 191.424 555.886 193.392L544.582 204.552C545.374 205.2 546.142 205.68 546.886 205.992C547.63 206.28 548.47 206.424 549.406 206.424ZM541.918 198.756C541.918 200.748 542.578 202.452 543.898 203.868L554.446 193.392C553.654 192.696 552.886 192.204 552.142 191.916C551.398 191.604 550.51 191.448 549.478 191.448C548.014 191.448 546.706 191.772 545.554 192.42C544.426 193.044 543.538 193.908 542.89 195.012C542.242 196.116 541.918 197.364 541.918 198.756ZM572.995 190.8L565.039 207.468L557.047 190.8H558.307L565.039 204.84L571.735 190.8H572.995ZM582.629 206.424C583.877 206.424 585.065 206.1 586.193 205.452C587.321 204.804 588.257 203.916 589.001 202.788V204.624C588.113 205.608 587.141 206.328 586.085 206.784C585.029 207.216 583.829 207.432 582.485 207.432C580.997 207.432 579.593 207.036 578.273 206.244C576.977 205.452 575.933 204.396 575.141 203.076C574.373 201.756 573.989 200.352 573.989 198.864C573.989 197.256 574.373 195.816 575.141 194.544C575.909 193.248 576.953 192.24 578.273 191.52C579.617 190.8 581.105 190.44 582.737 190.44C585.233 190.44 587.357 191.424 589.109 193.392L577.805 204.552C578.597 205.2 579.365 205.68 580.109 205.992C580.853 206.28 581.693 206.424 582.629 206.424ZM575.141 198.756C575.141 200.748 575.801 202.452 577.121 203.868L587.669 193.392C586.877 192.696 586.109 192.204 585.365 191.916C584.621 191.604 583.733 191.448 582.701 191.448C581.237 191.448 579.929 191.772 578.777 192.42C577.649 193.044 576.761 193.908 576.113 195.012C575.465 196.116 575.141 197.364 575.141 198.756ZM598.865 207.324C597.737 207.324 596.705 207.072 595.769 206.568C594.833 206.04 594.089 205.308 593.537 204.372C592.985 203.436 592.709 202.392 592.709 201.24V180H593.861V201.24C593.861 202.2 594.077 203.064 594.509 203.832C594.965 204.6 595.577 205.212 596.345 205.668C597.113 206.1 597.953 206.316 598.865 206.316V207.324ZM609.202 207.576C607.57 207.576 606.094 207.18 604.774 206.388C603.454 205.572 602.422 204.504 601.678 203.184C600.934 201.84 600.562 200.388 600.562 198.828C600.562 197.292 600.934 195.864 601.678 194.544C602.446 193.224 603.478 192.18 604.774 191.412C606.094 190.62 607.558 190.224 609.166 190.224C610.75 190.224 612.19 190.62 613.486 191.412C614.806 192.18 615.838 193.224 616.582 194.544C617.326 195.864 617.698 197.292 617.698 198.828C617.698 200.436 617.338 201.912 616.618 203.256C615.898 204.576 614.89 205.632 613.594 206.424C612.322 207.192 610.858 207.576 609.202 207.576ZM609.202 206.568C610.57 206.568 611.818 206.22 612.946 205.524C614.074 204.828 614.95 203.904 615.574 202.752C616.222 201.576 616.546 200.292 616.546 198.9C616.546 197.532 616.222 196.26 615.574 195.084C614.926 193.908 614.038 192.972 612.91 192.276C611.782 191.58 610.534 191.232 609.166 191.232C607.798 191.232 606.538 191.592 605.386 192.312C604.258 193.008 603.358 193.944 602.686 195.12C602.038 196.296 601.714 197.568 601.714 198.936C601.714 200.304 602.038 201.576 602.686 202.752C603.358 203.904 604.258 204.828 605.386 205.524C606.538 206.22 607.81 206.568 609.202 206.568ZM621.291 190.8H622.443V194.76C623.091 193.464 624.099 192.42 625.467 191.628C626.835 190.812 628.275 190.404 629.787 190.404C631.347 190.404 632.775 190.788 634.071 191.556C635.391 192.324 636.435 193.356 637.203 194.652C637.971 195.948 638.355 197.364 638.355 198.9C638.355 200.436 637.971 201.852 637.203 203.148C636.435 204.444 635.391 205.476 634.071 206.244C632.775 207.012 631.347 207.396 629.787 207.396C628.323 207.396 626.907 207 625.539 206.208C624.195 205.416 623.163 204.372 622.443 203.076V214.2H621.291V190.8ZM629.859 206.388C631.179 206.388 632.403 206.052 633.531 205.38C634.659 204.684 635.547 203.772 636.195 202.644C636.867 201.492 637.203 200.244 637.203 198.9C637.203 197.58 636.867 196.344 636.195 195.192C635.523 194.04 634.623 193.128 633.495 192.456C632.367 191.76 631.143 191.412 629.823 191.412C628.503 191.412 627.267 191.76 626.115 192.456C624.987 193.152 624.075 194.076 623.379 195.228C622.707 196.38 622.371 197.616 622.371 198.936C622.371 200.256 622.707 201.492 623.379 202.644C624.075 203.772 624.999 204.684 626.151 205.38C627.303 206.052 628.539 206.388 629.859 206.388ZM649.847 206.424C651.095 206.424 652.283 206.1 653.411 205.452C654.539 204.804 655.475 203.916 656.219 202.788V204.624C655.331 205.608 654.359 206.328 653.303 206.784C652.247 207.216 651.047 207.432 649.703 207.432C648.215 207.432 646.811 207.036 645.491 206.244C644.195 205.452 643.151 204.396 642.359 203.076C641.591 201.756 641.207 200.352 641.207 198.864C641.207 197.256 641.591 195.816 642.359 194.544C643.127 193.248 644.171 192.24 645.491 191.52C646.835 190.8 648.323 190.44 649.955 190.44C652.451 190.44 654.575 191.424 656.327 193.392L645.023 204.552C645.815 205.2 646.583 205.68 647.327 205.992C648.071 206.28 648.911 206.424 649.847 206.424ZM642.359 198.756C642.359 200.748 643.019 202.452 644.339 203.868L654.887 193.392C654.095 192.696 653.327 192.204 652.583 191.916C651.839 191.604 650.951 191.448 649.919 191.448C648.455 191.448 647.147 191.772 645.995 192.42C644.867 193.044 643.979 193.908 643.331 195.012C642.683 196.116 642.359 197.364 642.359 198.756ZM659.928 190.8H661.08V194.544C661.56 193.368 662.256 192.444 663.168 191.772C664.104 191.1 665.16 190.764 666.336 190.764C667.08 190.764 667.836 190.92 668.604 191.232V192.564C667.908 192.036 667.128 191.772 666.264 191.772C665.4 191.772 664.56 192.036 663.744 192.564C662.952 193.092 662.304 193.8 661.8 194.688C661.32 195.576 661.08 196.524 661.08 197.532V207H659.928V190.8Z" fill="black"/>
<path d="M81.056 75H83.168V102.84H116.064V75H118.176V123H116.064V104.696H83.168V123H81.056V75ZM129.778 87.608C129.181 87.608 128.647 87.3947 128.178 86.968C127.751 86.5413 127.538 86.008 127.538 85.368C127.538 84.7707 127.751 84.2587 128.178 83.832C128.647 83.4053 129.181 83.192 129.778 83.192C130.375 83.192 130.887 83.4053 131.314 83.832C131.783 84.2587 132.018 84.7707 132.018 85.368C132.018 86.008 131.783 86.5413 131.314 86.968C130.887 87.3947 130.375 87.608 129.778 87.608ZM128.754 94.2H130.802V123H128.754V94.2ZM142.969 121.464C142.969 121.763 142.905 122.104 142.777 122.488L140.793 127.032H140.345V123.512C139.833 123.427 139.385 123.192 139.001 122.808C138.659 122.381 138.489 121.891 138.489 121.336C138.489 120.739 138.702 120.227 139.129 119.8C139.598 119.373 140.131 119.16 140.729 119.16C141.326 119.16 141.838 119.373 142.265 119.8C142.734 120.227 142.969 120.739 142.969 121.336V121.464ZM164.626 75H166.738V123H164.626V75ZM203.788 123.704C201.057 123.704 198.518 123.021 196.172 121.656C193.825 120.291 191.969 118.456 190.604 116.152C189.238 113.805 188.556 111.288 188.556 108.6C188.556 105.912 189.238 103.416 190.604 101.112C191.969 98.7653 193.825 96.9093 196.172 95.544C198.518 94.1787 201.057 93.496 203.788 93.496C206.561 93.496 209.185 94.2427 211.66 95.736C214.134 97.1867 215.862 99.0853 216.844 101.432V94.2H218.892V123H216.844V115.832C215.692 118.221 213.9 120.141 211.468 121.592C209.078 123 206.518 123.704 203.788 123.704ZM203.916 121.912C206.262 121.912 208.438 121.315 210.444 120.12C212.449 118.883 214.028 117.261 215.18 115.256C216.374 113.208 216.972 110.989 216.972 108.6C216.972 106.253 216.374 104.056 215.18 102.008C213.985 99.96 212.385 98.3387 210.38 97.144C208.374 95.9067 206.198 95.288 203.852 95.288C201.505 95.288 199.308 95.9067 197.26 97.144C195.254 98.3813 193.633 100.024 192.396 102.072C191.201 104.12 190.604 106.317 190.604 108.664C190.604 111.011 191.201 113.208 192.396 115.256C193.633 117.261 195.276 118.883 197.324 120.12C199.372 121.315 201.569 121.912 203.916 121.912ZM226.97 94.2H229.018V98.552C230.98 95.1813 234.138 93.496 238.49 93.496C240.58 93.496 242.394 94.0933 243.93 95.288C245.466 96.44 246.532 98.1893 247.13 100.536C247.684 98.4453 248.9 96.76 250.778 95.48C252.698 94.1573 254.852 93.496 257.242 93.496C260.356 93.496 262.767 94.4133 264.474 96.248C266.18 98.04 267.034 100.6 267.034 103.928V123H264.986V103.928C264.986 101.24 264.282 99.128 262.874 97.592C261.508 96.056 259.695 95.288 257.434 95.288C255.727 95.288 254.148 95.7147 252.698 96.568C251.247 97.3787 250.095 98.488 249.242 99.896C248.388 101.304 247.962 102.861 247.962 104.568V123H245.914V105.08C245.914 102.008 245.188 99.6187 243.738 97.912C242.287 96.1627 240.41 95.288 238.106 95.288C236.57 95.288 235.098 95.672 233.69 96.44C232.324 97.208 231.194 98.2533 230.298 99.576C229.444 100.856 229.018 102.264 229.018 103.8V123H226.97V94.2ZM329.029 75L307.077 124.088L285.125 75H287.429L307.269 119.224L326.853 75H329.029ZM334.278 87.608C333.681 87.608 333.147 87.3947 332.678 86.968C332.251 86.5413 332.038 86.008 332.038 85.368C332.038 84.7707 332.251 84.2587 332.678 83.832C333.147 83.4053 333.681 83.192 334.278 83.192C334.875 83.192 335.387 83.4053 335.814 83.832C336.283 84.2587 336.518 84.7707 336.518 85.368C336.518 86.008 336.283 86.5413 335.814 86.968C335.387 87.3947 334.875 87.608 334.278 87.608ZM333.254 94.2H335.302V123H333.254V94.2ZM344.441 87.608C343.843 87.608 343.31 87.3947 342.841 86.968C342.414 86.5413 342.201 86.008 342.201 85.368C342.201 84.7707 342.414 84.2587 342.841 83.832C343.31 83.4053 343.843 83.192 344.441 83.192C345.038 83.192 345.55 83.4053 345.977 83.832C346.446 84.2587 346.681 84.7707 346.681 85.368C346.681 86.008 346.446 86.5413 345.977 86.968C345.55 87.3947 345.038 87.608 344.441 87.608ZM334.264 133.88C336.825 133.88 338.979 133.005 340.729 131.256C342.478 129.549 343.353 127.416 343.353 124.856V94.2H345.401V124.856C345.401 126.904 344.91 128.76 343.929 130.424C342.947 132.088 341.603 133.368 339.897 134.264C338.19 135.203 336.312 135.672 334.264 135.672V133.88ZM368.663 123.704C365.932 123.704 363.393 123.021 361.047 121.656C358.7 120.291 356.844 118.456 355.479 116.152C354.113 113.805 353.431 111.288 353.431 108.6C353.431 105.912 354.113 103.416 355.479 101.112C356.844 98.7653 358.7 96.9093 361.047 95.544C363.393 94.1787 365.932 93.496 368.663 93.496C371.436 93.496 374.06 94.2427 376.535 95.736C379.009 97.1867 380.737 99.0853 381.719 101.432V94.2H383.767V123H381.719V115.832C380.567 118.221 378.775 120.141 376.343 121.592C373.953 123 371.393 123.704 368.663 123.704ZM368.791 121.912C371.137 121.912 373.313 121.315 375.319 120.12C377.324 118.883 378.903 117.261 380.055 115.256C381.249 113.208 381.847 110.989 381.847 108.6C381.847 106.253 381.249 104.056 380.055 102.008C378.86 99.96 377.26 98.3387 375.255 97.144C373.249 95.9067 371.073 95.288 368.727 95.288C366.38 95.288 364.183 95.9067 362.135 97.144C360.129 98.3813 358.508 100.024 357.271 102.072C356.076 104.12 355.479 106.317 355.479 108.664C355.479 111.011 356.076 113.208 357.271 115.256C358.508 117.261 360.151 118.883 362.199 120.12C364.247 121.315 366.444 121.912 368.791 121.912ZM403.749 135.736C398.97 135.736 395.194 134.029 392.421 130.616V127.352C393.829 129.571 395.429 131.213 397.22 132.28C399.013 133.389 401.103 133.944 403.493 133.944C405.925 133.944 407.994 133.432 409.701 132.408C411.45 131.384 412.773 129.976 413.669 128.184C414.565 126.435 415.013 124.472 415.013 122.296V117.432C413.989 119.437 412.431 120.995 410.341 122.104C408.293 123.171 406.053 123.704 403.621 123.704C401.189 123.704 399.034 123.171 397.157 122.104C395.279 121.037 393.807 119.544 392.741 117.624C391.717 115.704 391.205 113.485 391.205 110.968V94.2H393.253V110.968C393.253 113.272 393.722 115.256 394.661 116.92C395.642 118.541 396.922 119.779 398.501 120.632C400.079 121.485 401.807 121.912 403.685 121.912C405.733 121.912 407.631 121.421 409.381 120.44C411.13 119.416 412.495 118.072 413.477 116.408C414.501 114.701 415.013 112.888 415.013 110.968V94.2H417.061V122.104C417.061 124.664 416.527 126.968 415.461 129.016C414.437 131.107 412.922 132.749 410.917 133.944C408.911 135.139 406.522 135.736 403.749 135.736Z" fill="black"/>
</svg>
