<svg width="595" height="842" viewBox="0 0 595 842" fill="none" xmlns="http://www.w3.org/2000/svg">
<rect width="595" height="842" fill="white"/>
<path d="M35.496 101H34.936L32.664 96.424H26.296L24.072 101H23.512L29.496 88.712L35.496 101ZM32.472 95.96L29.464 89.864L26.52 95.96H32.472ZM40.5393 93.8H41.0513V95.56C41.3393 94.984 41.7873 94.52 42.3953 94.168C43.0033 93.8053 43.6433 93.624 44.3153 93.624C45.0086 93.624 45.6433 93.7947 46.2193 94.136C46.8059 94.4773 47.2699 94.936 47.6112 95.512C47.9526 96.088 48.1233 96.7173 48.1233 97.4C48.1233 98.0827 47.9526 98.712 47.6112 99.288C47.2699 99.864 46.8059 100.323 46.2193 100.664C45.6433 101.005 45.0086 101.176 44.3153 101.176C43.6646 101.176 43.0353 101 42.4273 100.648C41.8299 100.296 41.3713 99.832 41.0513 99.256V104.2H40.5393V93.8ZM44.3473 100.728C44.9339 100.728 45.4779 100.579 45.9793 100.28C46.4806 99.9707 46.8753 99.5653 47.1633 99.064C47.4619 98.552 47.6112 97.9973 47.6112 97.4C47.6112 96.8133 47.4619 96.264 47.1633 95.752C46.8646 95.24 46.4646 94.8347 45.9633 94.536C45.4619 94.2267 44.9179 94.072 44.3313 94.072C43.7446 94.072 43.1953 94.2267 42.6833 94.536C42.1819 94.8453 41.7766 95.256 41.4673 95.768C41.1686 96.28 41.0193 96.8293 41.0193 97.416C41.0193 98.0027 41.1686 98.552 41.4673 99.064C41.7766 99.5653 42.1873 99.9707 42.6993 100.28C43.2113 100.579 43.7606 100.728 44.3473 100.728ZM53.1188 101.176C52.4361 101.176 51.8014 101.005 51.2148 100.664C50.6281 100.323 50.1641 99.864 49.8228 99.288C49.4814 98.7013 49.3108 98.072 49.3108 97.4C49.3108 96.728 49.4814 96.104 49.8228 95.528C50.1641 94.9413 50.6281 94.4773 51.2148 94.136C51.8014 93.7947 52.4361 93.624 53.1188 93.624C53.8121 93.624 54.4681 93.8107 55.0868 94.184C55.7054 94.5467 56.1374 95.0213 56.3828 95.608V93.8H56.8948V101H56.3828V99.208C56.0948 99.8053 55.6468 100.285 55.0388 100.648C54.4414 101 53.8014 101.176 53.1188 101.176ZM53.1508 100.728C53.7374 100.728 54.2814 100.579 54.7828 100.28C55.2841 99.9707 55.6788 99.5653 55.9668 99.064C56.2654 98.552 56.4148 97.9973 56.4148 97.4C56.4148 96.8133 56.2654 96.264 55.9668 95.752C55.6681 95.24 55.2681 94.8347 54.7668 94.536C54.2654 94.2267 53.7214 94.072 53.1348 94.072C52.5481 94.072 51.9988 94.2267 51.4868 94.536C50.9854 94.8453 50.5801 95.256 50.2708 95.768C49.9721 96.28 49.8228 96.8293 49.8228 97.416C49.8228 98.0027 49.9721 98.552 50.2708 99.064C50.5801 99.5653 50.9908 99.9707 51.5028 100.28C52.0148 100.579 52.5641 100.728 53.1508 100.728ZM60.6583 101.176C60.1463 101.176 59.6929 101.091 59.2983 100.92C58.9036 100.739 58.6209 100.509 58.4503 100.232V99.384C58.6529 99.8427 58.9303 100.184 59.2823 100.408C59.6343 100.621 60.0823 100.728 60.6263 100.728C61.1489 100.728 61.5703 100.568 61.8903 100.248C62.2103 99.9173 62.3703 99.496 62.3703 98.984C62.3703 98.5467 62.2796 98.2107 62.0983 97.976C61.9169 97.7307 61.6236 97.4853 61.2183 97.24L60.6103 96.888C60.1729 96.6213 59.8423 96.4133 59.6183 96.264C59.4049 96.104 59.2343 95.928 59.1063 95.736C58.9783 95.5333 58.9143 95.2987 58.9143 95.032C58.9143 94.6053 59.0636 94.264 59.3623 94.008C59.6609 93.752 60.0503 93.624 60.5303 93.624C61.1169 93.624 61.6076 93.7573 62.0023 94.024V94.728C61.6716 94.2907 61.1969 94.072 60.5783 94.072C60.2369 94.072 59.9596 94.1573 59.7463 94.328C59.5329 94.4987 59.4263 94.7173 59.4263 94.984C59.4263 95.2187 59.4903 95.4267 59.6183 95.608C59.7463 95.7787 59.9223 95.9387 60.1463 96.088C60.3809 96.2373 60.7649 96.4613 61.2983 96.76C61.8423 97.0693 62.2423 97.3893 62.4983 97.72C62.7543 98.04 62.8823 98.4613 62.8823 98.984C62.8823 99.6453 62.6636 100.179 62.2263 100.584C61.7996 100.979 61.2769 101.176 60.6583 101.176ZM66.2208 101.176C65.7088 101.176 65.2554 101.091 64.8608 100.92C64.4661 100.739 64.1834 100.509 64.0128 100.232V99.384C64.2154 99.8427 64.4928 100.184 64.8448 100.408C65.1968 100.621 65.6448 100.728 66.1888 100.728C66.7114 100.728 67.1328 100.568 67.4528 100.248C67.7728 99.9173 67.9328 99.496 67.9328 98.984C67.9328 98.5467 67.8421 98.2107 67.6608 97.976C67.4794 97.7307 67.1861 97.4853 66.7808 97.24L66.1728 96.888C65.7354 96.6213 65.4048 96.4133 65.1808 96.264C64.9674 96.104 64.7968 95.928 64.6688 95.736C64.5408 95.5333 64.4768 95.2987 64.4768 95.032C64.4768 94.6053 64.6261 94.264 64.9248 94.008C65.2234 93.752 65.6128 93.624 66.0928 93.624C66.6794 93.624 67.1701 93.7573 67.5648 94.024V94.728C67.2341 94.2907 66.7594 94.072 66.1408 94.072C65.7994 94.072 65.5221 94.1573 65.3088 94.328C65.0954 94.4987 64.9888 94.7173 64.9888 94.984C64.9888 95.2187 65.0528 95.4267 65.1808 95.608C65.3088 95.7787 65.4848 95.9387 65.7088 96.088C65.9434 96.2373 66.3274 96.4613 66.8608 96.76C67.4048 97.0693 67.8048 97.3893 68.0608 97.72C68.3168 98.04 68.4448 98.4613 68.4448 98.984C68.4448 99.6453 68.2261 100.179 67.7888 100.584C67.3621 100.979 66.8394 101.176 66.2208 101.176ZM70.6633 92.152C70.5139 92.152 70.3806 92.0987 70.2633 91.992C70.1566 91.8853 70.1033 91.752 70.1033 91.592C70.1033 91.4427 70.1566 91.3147 70.2633 91.208C70.3806 91.1013 70.5139 91.048 70.6633 91.048C70.8126 91.048 70.9406 91.1013 71.0473 91.208C71.1646 91.3147 71.2233 91.4427 71.2233 91.592C71.2233 91.752 71.1646 91.8853 71.0473 91.992C70.9406 92.0987 70.8126 92.152 70.6633 92.152ZM70.4073 93.8H70.9193V101H70.4073V93.8ZM76.7289 101.256C76.0035 101.256 75.3475 101.08 74.7609 100.728C74.1742 100.365 73.7155 99.8907 73.3849 99.304C73.0542 98.7067 72.8889 98.0613 72.8889 97.368C72.8889 96.6853 73.0542 96.0507 73.3849 95.464C73.7262 94.8773 74.1849 94.4133 74.7609 94.072C75.3475 93.72 75.9982 93.544 76.7129 93.544C77.4169 93.544 78.0569 93.72 78.6329 94.072C79.2195 94.4133 79.6782 94.8773 80.0089 95.464C80.3395 96.0507 80.5049 96.6853 80.5049 97.368C80.5049 98.0827 80.3449 98.7387 80.0249 99.336C79.7049 99.9227 79.2569 100.392 78.6809 100.744C78.1155 101.085 77.4649 101.256 76.7289 101.256ZM76.7289 100.808C77.3369 100.808 77.8915 100.653 78.3929 100.344C78.8942 100.035 79.2835 99.624 79.5609 99.112C79.8489 98.5893 79.9929 98.0187 79.9929 97.4C79.9929 96.792 79.8489 96.2267 79.5609 95.704C79.2729 95.1813 78.8782 94.7653 78.3769 94.456C77.8755 94.1467 77.3209 93.992 76.7129 93.992C76.1049 93.992 75.5449 94.152 75.0329 94.472C74.5315 94.7813 74.1315 95.1973 73.8329 95.72C73.5449 96.2427 73.4009 96.808 73.4009 97.416C73.4009 98.024 73.5449 98.5893 73.8329 99.112C74.1315 99.624 74.5315 100.035 75.0329 100.344C75.5449 100.653 76.1102 100.808 76.7289 100.808ZM81.9455 93.8H82.4575V95.4C82.6922 94.8667 83.0922 94.44 83.6575 94.12C84.2228 93.7893 84.8468 93.624 85.5295 93.624C86.4148 93.624 87.1135 93.9067 87.6255 94.472C88.1482 95.0267 88.4095 95.8053 88.4095 96.808V101H87.8975V96.808C87.8975 95.944 87.6842 95.272 87.2575 94.792C86.8415 94.312 86.2548 94.072 85.4975 94.072C84.9428 94.072 84.4308 94.2 83.9615 94.456C83.5028 94.7013 83.1348 95.0427 82.8575 95.48C82.5908 95.9173 82.4575 96.4133 82.4575 96.968V101H81.9455V93.8ZM93.8219 101.176C93.1392 101.176 92.5045 101.005 91.9179 100.664C91.3312 100.323 90.8672 99.864 90.5259 99.288C90.1845 98.7013 90.0139 98.072 90.0139 97.4C90.0139 96.728 90.1845 96.104 90.5259 95.528C90.8672 94.9413 91.3312 94.4773 91.9179 94.136C92.5045 93.7947 93.1392 93.624 93.8219 93.624C94.5152 93.624 95.1712 93.8107 95.7899 94.184C96.4085 94.5467 96.8405 95.0213 97.0859 95.608V93.8H97.5979V101H97.0859V99.208C96.7979 99.8053 96.3499 100.285 95.7419 100.648C95.1445 101 94.5045 101.176 93.8219 101.176ZM93.8539 100.728C94.4405 100.728 94.9845 100.579 95.4859 100.28C95.9872 99.9707 96.3819 99.5653 96.6699 99.064C96.9685 98.552 97.1179 97.9973 97.1179 97.4C97.1179 96.8133 96.9685 96.264 96.6699 95.752C96.3712 95.24 95.9712 94.8347 95.4699 94.536C94.9685 94.2267 94.4245 94.072 93.8379 94.072C93.2512 94.072 92.7019 94.2267 92.1899 94.536C91.6885 94.8453 91.2832 95.256 90.9739 95.768C90.6752 96.28 90.5259 96.8293 90.5259 97.416C90.5259 98.0027 90.6752 98.552 90.9739 99.064C91.2832 99.5653 91.6939 99.9707 92.2059 100.28C92.7179 100.579 93.2672 100.728 93.8539 100.728ZM102.193 101.096C101.404 101.096 100.748 100.856 100.225 100.376C99.7134 99.896 99.4574 99.2347 99.4574 98.392V90.904H99.9694V93.8H102.177V94.248H99.9694V98.392C99.9694 99.096 100.177 99.6507 100.593 100.056C101.02 100.451 101.553 100.648 102.193 100.648V101.096ZM107.043 100.744C107.598 100.744 108.126 100.6 108.627 100.312C109.129 100.024 109.545 99.6293 109.875 99.128V99.944C109.481 100.381 109.049 100.701 108.579 100.904C108.11 101.096 107.577 101.192 106.979 101.192C106.318 101.192 105.694 101.016 105.107 100.664C104.531 100.312 104.067 99.8427 103.715 99.256C103.374 98.6693 103.203 98.0453 103.203 97.384C103.203 96.6693 103.374 96.0293 103.715 95.464C104.057 94.888 104.521 94.44 105.107 94.12C105.705 93.8 106.366 93.64 107.091 93.64C108.201 93.64 109.145 94.0773 109.923 94.952L104.899 99.912C105.251 100.2 105.593 100.413 105.923 100.552C106.254 100.68 106.627 100.744 107.043 100.744ZM103.715 97.336C103.715 98.2213 104.009 98.9787 104.595 99.608L109.283 94.952C108.931 94.6427 108.59 94.424 108.259 94.296C107.929 94.1573 107.534 94.088 107.075 94.088C106.425 94.088 105.843 94.232 105.331 94.52C104.83 94.7973 104.435 95.1813 104.147 95.672C103.859 96.1627 103.715 96.7173 103.715 97.336ZM116.783 101.176C116.271 101.176 115.818 101.091 115.423 100.92C115.029 100.739 114.746 100.509 114.575 100.232V99.384C114.778 99.8427 115.055 100.184 115.407 100.408C115.759 100.621 116.207 100.728 116.751 100.728C117.274 100.728 117.695 100.568 118.015 100.248C118.335 99.9173 118.495 99.496 118.495 98.984C118.495 98.5467 118.405 98.2107 118.223 97.976C118.042 97.7307 117.749 97.4853 117.343 97.24L116.735 96.888C116.298 96.6213 115.967 96.4133 115.743 96.264C115.53 96.104 115.359 95.928 115.231 95.736C115.103 95.5333 115.039 95.2987 115.039 95.032C115.039 94.6053 115.189 94.264 115.487 94.008C115.786 93.752 116.175 93.624 116.655 93.624C117.242 93.624 117.733 93.7573 118.127 94.024V94.728C117.797 94.2907 117.322 94.072 116.703 94.072C116.362 94.072 116.085 94.1573 115.871 94.328C115.658 94.4987 115.551 94.7173 115.551 94.984C115.551 95.2187 115.615 95.4267 115.743 95.608C115.871 95.7787 116.047 95.9387 116.271 96.088C116.506 96.2373 116.89 96.4613 117.423 96.76C117.967 97.0693 118.367 97.3893 118.623 97.72C118.879 98.04 119.007 98.4613 119.007 98.984C119.007 99.6453 118.789 100.179 118.351 100.584C117.925 100.979 117.402 101.176 116.783 101.176ZM124.106 100.744C124.66 100.744 125.188 100.6 125.69 100.312C126.191 100.024 126.607 99.6293 126.938 99.128V99.944C126.543 100.381 126.111 100.701 125.642 100.904C125.172 101.096 124.639 101.192 124.042 101.192C123.38 101.192 122.756 101.016 122.17 100.664C121.594 100.312 121.13 99.8427 120.778 99.256C120.436 98.6693 120.266 98.0453 120.266 97.384C120.266 96.6693 120.436 96.0293 120.778 95.464C121.119 94.888 121.583 94.44 122.17 94.12C122.767 93.8 123.428 93.64 124.154 93.64C125.263 93.64 126.207 94.0773 126.986 94.952L121.962 99.912C122.314 100.2 122.655 100.413 122.986 100.552C123.316 100.68 123.69 100.744 124.106 100.744ZM120.778 97.336C120.778 98.2213 121.071 98.9787 121.658 99.608L126.346 94.952C125.994 94.6427 125.652 94.424 125.322 94.296C124.991 94.1573 124.596 94.088 124.138 94.088C123.487 94.088 122.906 94.232 122.394 94.52C121.892 94.7973 121.498 95.1813 121.21 95.672C120.922 96.1627 120.778 96.7173 120.778 97.336ZM131.322 101.144C130.821 101.144 130.362 101.032 129.946 100.808C129.53 100.573 129.199 100.248 128.954 99.832C128.709 99.416 128.586 98.952 128.586 98.44V89H129.098V98.44C129.098 98.8667 129.194 99.2507 129.386 99.592C129.589 99.9333 129.861 100.205 130.202 100.408C130.543 100.6 130.917 100.696 131.322 100.696V101.144ZM135.713 91.24C135.307 91.24 134.934 91.3413 134.593 91.544C134.251 91.736 133.979 92.008 133.777 92.36C133.585 92.7013 133.489 93.08 133.489 93.496V93.8H135.713V94.248H133.489V101H132.977V93.496C132.977 92.9947 133.094 92.5413 133.329 92.136C133.574 91.72 133.905 91.3947 134.321 91.16C134.747 90.9147 135.211 90.792 135.713 90.792V91.24ZM136.703 96.008H141.679V96.504H136.703V96.008ZM145.897 101.096C145.107 101.096 144.451 100.856 143.929 100.376C143.417 99.896 143.161 99.2347 143.161 98.392V90.904H143.673V93.8H145.881V94.248H143.673V98.392C143.673 99.096 143.881 99.6507 144.297 100.056C144.723 100.451 145.257 100.648 145.897 100.648V101.096ZM150.634 101.176C149.952 101.176 149.317 101.005 148.73 100.664C148.144 100.323 147.68 99.864 147.338 99.288C146.997 98.7013 146.826 98.072 146.826 97.4C146.826 96.728 146.997 96.104 147.338 95.528C147.68 94.9413 148.144 94.4773 148.73 94.136C149.317 93.7947 149.952 93.624 150.634 93.624C151.328 93.624 151.984 93.8107 152.602 94.184C153.221 94.5467 153.653 95.0213 153.898 95.608V93.8H154.41V101H153.898V99.208C153.61 99.8053 153.162 100.285 152.554 100.648C151.957 101 151.317 101.176 150.634 101.176ZM150.666 100.728C151.253 100.728 151.797 100.579 152.298 100.28C152.8 99.9707 153.194 99.5653 153.482 99.064C153.781 98.552 153.93 97.9973 153.93 97.4C153.93 96.8133 153.781 96.264 153.482 95.752C153.184 95.24 152.784 94.8347 152.282 94.536C151.781 94.2267 151.237 94.072 150.65 94.072C150.064 94.072 149.514 94.2267 149.002 94.536C148.501 94.8453 148.096 95.256 147.786 95.768C147.488 96.28 147.338 96.8293 147.338 97.416C147.338 98.0027 147.488 98.552 147.786 99.064C148.096 99.5653 148.506 99.9707 149.018 100.28C149.53 100.579 150.08 100.728 150.666 100.728ZM159.598 101.176C158.585 101.176 157.801 100.899 157.246 100.344C156.702 99.7893 156.43 99.0053 156.43 97.992V93.8H156.942V97.992C156.942 98.8667 157.171 99.544 157.63 100.024C158.099 100.493 158.755 100.728 159.598 100.728C160.11 100.728 160.579 100.616 161.006 100.392C161.433 100.157 161.769 99.832 162.014 99.416C162.259 99 162.382 98.5253 162.382 97.992V93.8H162.894V101H162.382V99.656C162.137 100.104 161.769 100.472 161.278 100.76C160.787 101.037 160.227 101.176 159.598 101.176ZM168.386 104.328C167.778 104.328 167.186 104.189 166.61 103.912C166.034 103.635 165.586 103.272 165.266 102.824V102.088C165.544 102.6 165.976 103.027 166.562 103.368C167.16 103.709 167.768 103.88 168.386 103.88C169.41 103.88 170.2 103.576 170.754 102.968C171.309 102.371 171.586 101.491 171.586 100.328V99.256C171.298 99.832 170.845 100.301 170.226 100.664C169.618 101.016 168.978 101.192 168.306 101.192C167.624 101.192 166.989 101.021 166.402 100.68C165.816 100.339 165.352 99.88 165.01 99.304C164.669 98.7173 164.498 98.088 164.498 97.416C164.498 96.744 164.669 96.12 165.01 95.544C165.352 94.9573 165.816 94.4933 166.402 94.152C166.989 93.8107 167.624 93.64 168.306 93.64C169.01 93.64 169.661 93.816 170.258 94.168C170.856 94.52 171.298 94.9947 171.586 95.592V93.8H172.098V100.328C172.098 101.64 171.778 102.632 171.138 103.304C170.509 103.987 169.592 104.328 168.386 104.328ZM168.338 100.744C168.925 100.744 169.469 100.595 169.97 100.296C170.472 99.9867 170.866 99.5813 171.154 99.08C171.453 98.568 171.602 98.0133 171.602 97.416C171.602 96.8187 171.453 96.2693 171.154 95.768C170.866 95.256 170.472 94.8507 169.97 94.552C169.469 94.2427 168.925 94.088 168.338 94.088C167.741 94.088 167.186 94.2427 166.674 94.552C166.173 94.8507 165.768 95.256 165.458 95.768C165.16 96.2693 165.01 96.8187 165.01 97.416C165.01 98.0133 165.16 98.568 165.458 99.08C165.768 99.5813 166.173 99.9867 166.674 100.296C167.186 100.595 167.741 100.744 168.338 100.744ZM174.117 89H174.629V95.288C174.853 94.808 175.232 94.4133 175.765 94.104C176.309 93.784 176.859 93.624 177.413 93.624C178.427 93.624 179.205 93.9013 179.749 94.456C180.304 95.0107 180.581 95.7947 180.581 96.808V101H180.069V96.808C180.069 95.9333 179.835 95.2613 179.365 94.792C178.907 94.312 178.256 94.072 177.413 94.072C176.901 94.072 176.432 94.1947 176.005 94.44C175.579 94.6747 175.243 95.0053 174.997 95.432C174.752 95.848 174.629 96.3067 174.629 96.808V101H174.117V89ZM185.178 101.096C184.388 101.096 183.732 100.856 183.21 100.376C182.698 99.896 182.442 99.2347 182.442 98.392V90.904H182.954V93.8H185.162V94.248H182.954V98.392C182.954 99.096 183.162 99.6507 183.578 100.056C184.004 100.451 184.538 100.648 185.178 100.648V101.096ZM195.847 101.176L194.215 97.688L192.567 101.176L189.111 93.8H189.639L192.583 100.056L193.975 97.128L192.439 93.832H192.951L194.231 96.616L195.543 93.8H196.055L194.487 97.144L195.847 100.072L198.743 93.816H199.255L195.847 101.176ZM203.528 100.744C204.082 100.744 204.61 100.6 205.112 100.312C205.613 100.024 206.029 99.6293 206.36 99.128V99.944C205.965 100.381 205.533 100.701 205.064 100.904C204.594 101.096 204.061 101.192 203.464 101.192C202.802 101.192 202.178 101.016 201.592 100.664C201.016 100.312 200.552 99.8427 200.2 99.256C199.858 98.6693 199.688 98.0453 199.688 97.384C199.688 96.6693 199.858 96.0293 200.2 95.464C200.541 94.888 201.005 94.44 201.592 94.12C202.189 93.8 202.85 93.64 203.576 93.64C204.685 93.64 205.629 94.0773 206.408 94.952L201.384 99.912C201.736 100.2 202.077 100.413 202.408 100.552C202.738 100.68 203.112 100.744 203.528 100.744ZM200.2 97.336C200.2 98.2213 200.493 98.9787 201.08 99.608L205.768 94.952C205.416 94.6427 205.074 94.424 204.744 94.296C204.413 94.1573 204.018 94.088 203.56 94.088C202.909 94.088 202.328 94.232 201.816 94.52C201.314 94.7973 200.92 95.1813 200.632 95.672C200.344 96.1627 200.2 96.7173 200.2 97.336ZM211.784 101.176C211.133 101.176 210.504 101 209.896 100.648C209.299 100.296 208.84 99.832 208.52 99.256V101H208.008V89H208.52V95.624C208.808 95.016 209.256 94.5307 209.864 94.168C210.472 93.8053 211.112 93.624 211.784 93.624C212.477 93.624 213.112 93.7947 213.688 94.136C214.275 94.4773 214.739 94.936 215.08 95.512C215.421 96.088 215.592 96.7173 215.592 97.4C215.592 98.0827 215.421 98.712 215.08 99.288C214.739 99.864 214.275 100.323 213.688 100.664C213.112 101.005 212.477 101.176 211.784 101.176ZM211.816 100.728C212.403 100.728 212.947 100.579 213.448 100.28C213.949 99.9707 214.344 99.5653 214.632 99.064C214.931 98.552 215.08 97.9973 215.08 97.4C215.08 96.8133 214.931 96.264 214.632 95.752C214.333 95.24 213.933 94.8347 213.432 94.536C212.931 94.2267 212.387 94.072 211.8 94.072C211.213 94.072 210.664 94.2267 210.152 94.536C209.651 94.8453 209.245 95.256 208.936 95.768C208.637 96.28 208.488 96.8293 208.488 97.416C208.488 98.0027 208.637 98.552 208.936 99.064C209.245 99.5653 209.656 99.9707 210.168 100.28C210.68 100.579 211.229 100.728 211.816 100.728ZM224.103 101.176C223.41 101.176 222.77 101.005 222.183 100.664C221.607 100.323 221.148 99.864 220.807 99.288C220.466 98.712 220.295 98.0827 220.295 97.4C220.295 96.7173 220.466 96.088 220.807 95.512C221.148 94.936 221.607 94.4773 222.183 94.136C222.77 93.7947 223.41 93.624 224.103 93.624C224.775 93.624 225.415 93.8053 226.023 94.168C226.631 94.52 227.079 94.984 227.367 95.56V89H227.879V101H227.367V99.256C227.047 99.832 226.583 100.296 225.975 100.648C225.378 101 224.754 101.176 224.103 101.176ZM224.087 100.728C224.674 100.728 225.218 100.579 225.719 100.28C226.231 99.9707 226.636 99.5653 226.935 99.064C227.244 98.552 227.399 98.0027 227.399 97.416C227.399 96.8293 227.244 96.28 226.935 95.768C226.636 95.256 226.231 94.8453 225.719 94.536C225.218 94.2267 224.674 94.072 224.087 94.072C223.5 94.072 222.956 94.2267 222.455 94.536C221.954 94.8347 221.554 95.24 221.255 95.752C220.956 96.264 220.807 96.8133 220.807 97.4C220.807 97.9973 220.951 98.552 221.239 99.064C221.538 99.5653 221.938 99.9707 222.439 100.28C222.951 100.579 223.5 100.728 224.087 100.728ZM233.403 100.744C233.957 100.744 234.485 100.6 234.987 100.312C235.488 100.024 235.904 99.6293 236.235 99.128V99.944C235.84 100.381 235.408 100.701 234.939 100.904C234.469 101.096 233.936 101.192 233.339 101.192C232.677 101.192 232.053 101.016 231.467 100.664C230.891 100.312 230.427 99.8427 230.075 99.256C229.733 98.6693 229.563 98.0453 229.563 97.384C229.563 96.6693 229.733 96.0293 230.075 95.464C230.416 94.888 230.88 94.44 231.467 94.12C232.064 93.8 232.725 93.64 233.451 93.64C234.56 93.64 235.504 94.0773 236.283 94.952L231.259 99.912C231.611 100.2 231.952 100.413 232.283 100.552C232.613 100.68 232.987 100.744 233.403 100.744ZM230.075 97.336C230.075 98.2213 230.368 98.9787 230.955 99.608L235.643 94.952C235.291 94.6427 234.949 94.424 234.619 94.296C234.288 94.1573 233.893 94.088 233.435 94.088C232.784 94.088 232.203 94.232 231.691 94.52C231.189 94.7973 230.795 95.1813 230.507 95.672C230.219 96.1627 230.075 96.7173 230.075 97.336ZM243.887 93.8L240.351 101.208L236.799 93.8H237.359L240.351 100.04L243.327 93.8H243.887ZM248.168 100.744C248.723 100.744 249.251 100.6 249.752 100.312C250.254 100.024 250.67 99.6293 251 99.128V99.944C250.606 100.381 250.174 100.701 249.704 100.904C249.235 101.096 248.702 101.192 248.104 101.192C247.443 101.192 246.819 101.016 246.232 100.664C245.656 100.312 245.192 99.8427 244.84 99.256C244.499 98.6693 244.328 98.0453 244.328 97.384C244.328 96.6693 244.499 96.0293 244.84 95.464C245.182 94.888 245.646 94.44 246.232 94.12C246.83 93.8 247.491 93.64 248.216 93.64C249.326 93.64 250.27 94.0773 251.048 94.952L246.024 99.912C246.376 100.2 246.718 100.413 247.048 100.552C247.379 100.68 247.752 100.744 248.168 100.744ZM244.84 97.336C244.84 98.2213 245.134 98.9787 245.72 99.608L250.408 94.952C250.056 94.6427 249.715 94.424 249.384 94.296C249.054 94.1573 248.659 94.088 248.2 94.088C247.55 94.088 246.968 94.232 246.456 94.52C245.955 94.7973 245.56 95.1813 245.272 95.672C244.984 96.1627 244.84 96.7173 244.84 97.336ZM255.385 101.144C254.883 101.144 254.425 101.032 254.009 100.808C253.593 100.573 253.262 100.248 253.017 99.832C252.771 99.416 252.649 98.952 252.649 98.44V89H253.161V98.44C253.161 98.8667 253.257 99.2507 253.449 99.592C253.651 99.9333 253.923 100.205 254.265 100.408C254.606 100.6 254.979 100.696 255.385 100.696V101.144ZM259.979 101.256C259.254 101.256 258.598 101.08 258.011 100.728C257.424 100.365 256.966 99.8907 256.635 99.304C256.304 98.7067 256.139 98.0613 256.139 97.368C256.139 96.6853 256.304 96.0507 256.635 95.464C256.976 94.8773 257.435 94.4133 258.011 94.072C258.598 93.72 259.248 93.544 259.963 93.544C260.667 93.544 261.307 93.72 261.883 94.072C262.47 94.4133 262.928 94.8773 263.259 95.464C263.59 96.0507 263.755 96.6853 263.755 97.368C263.755 98.0827 263.595 98.7387 263.275 99.336C262.955 99.9227 262.507 100.392 261.931 100.744C261.366 101.085 260.715 101.256 259.979 101.256ZM259.979 100.808C260.587 100.808 261.142 100.653 261.643 100.344C262.144 100.035 262.534 99.624 262.811 99.112C263.099 98.5893 263.243 98.0187 263.243 97.4C263.243 96.792 263.099 96.2267 262.811 95.704C262.523 95.1813 262.128 94.7653 261.627 94.456C261.126 94.1467 260.571 93.992 259.963 93.992C259.355 93.992 258.795 94.152 258.283 94.472C257.782 94.7813 257.382 95.1973 257.083 95.72C256.795 96.2427 256.651 96.808 256.651 97.416C256.651 98.024 256.795 98.5893 257.083 99.112C257.382 99.624 257.782 100.035 258.283 100.344C258.795 100.653 259.36 100.808 259.979 100.808ZM265.352 93.8H265.864V95.56C266.152 94.984 266.6 94.52 267.208 94.168C267.816 93.8053 268.456 93.624 269.128 93.624C269.821 93.624 270.456 93.7947 271.032 94.136C271.618 94.4773 272.082 94.936 272.424 95.512C272.765 96.088 272.936 96.7173 272.936 97.4C272.936 98.0827 272.765 98.712 272.424 99.288C272.082 99.864 271.618 100.323 271.032 100.664C270.456 101.005 269.821 101.176 269.128 101.176C268.477 101.176 267.848 101 267.24 100.648C266.642 100.296 266.184 99.832 265.864 99.256V104.2H265.352V93.8ZM269.16 100.728C269.746 100.728 270.29 100.579 270.792 100.28C271.293 99.9707 271.688 99.5653 271.976 99.064C272.274 98.552 272.424 97.9973 272.424 97.4C272.424 96.8133 272.274 96.264 271.976 95.752C271.677 95.24 271.277 94.8347 270.776 94.536C270.274 94.2267 269.73 94.072 269.144 94.072C268.557 94.072 268.008 94.2267 267.496 94.536C266.994 94.8453 266.589 95.256 266.28 95.768C265.981 96.28 265.832 96.8293 265.832 97.416C265.832 98.0027 265.981 98.552 266.28 99.064C266.589 99.5653 267 99.9707 267.512 100.28C268.024 100.579 268.573 100.728 269.16 100.728ZM278.043 100.744C278.598 100.744 279.126 100.6 279.627 100.312C280.129 100.024 280.545 99.6293 280.875 99.128V99.944C280.481 100.381 280.049 100.701 279.579 100.904C279.11 101.096 278.577 101.192 277.979 101.192C277.318 101.192 276.694 101.016 276.107 100.664C275.531 100.312 275.067 99.8427 274.715 99.256C274.374 98.6693 274.203 98.0453 274.203 97.384C274.203 96.6693 274.374 96.0293 274.715 95.464C275.057 94.888 275.521 94.44 276.107 94.12C276.705 93.8 277.366 93.64 278.091 93.64C279.201 93.64 280.145 94.0773 280.923 94.952L275.899 99.912C276.251 100.2 276.593 100.413 276.923 100.552C277.254 100.68 277.627 100.744 278.043 100.744ZM274.715 97.336C274.715 98.2213 275.009 98.9787 275.595 99.608L280.283 94.952C279.931 94.6427 279.59 94.424 279.259 94.296C278.929 94.1573 278.534 94.088 278.075 94.088C277.425 94.088 276.843 94.232 276.331 94.52C275.83 94.7973 275.435 95.1813 275.147 95.672C274.859 96.1627 274.715 96.7173 274.715 97.336ZM282.524 93.8H283.036V95.464C283.249 94.9413 283.558 94.5307 283.964 94.232C284.38 93.9333 284.849 93.784 285.372 93.784C285.702 93.784 286.038 93.8533 286.38 93.992V94.584C286.07 94.3493 285.724 94.232 285.34 94.232C284.956 94.232 284.582 94.3493 284.22 94.584C283.868 94.8187 283.58 95.1333 283.356 95.528C283.142 95.9227 283.036 96.344 283.036 96.792V101H282.524V93.8Z" fill="black"/>
<path d="M26.16 33H27.48V50.4H48.04V33H49.36V63H48.04V51.56H27.48V63H26.16V33ZM56.6113 40.88C56.2379 40.88 55.9046 40.7467 55.6113 40.48C55.3446 40.2133 55.2113 39.88 55.2113 39.48C55.2113 39.1067 55.3446 38.7867 55.6113 38.52C55.9046 38.2533 56.2379 38.12 56.6113 38.12C56.9846 38.12 57.3046 38.2533 57.5713 38.52C57.8646 38.7867 58.0113 39.1067 58.0113 39.48C58.0113 39.88 57.8646 40.2133 57.5713 40.48C57.3046 40.7467 56.9846 40.88 56.6113 40.88ZM55.9713 45H57.2513V63H55.9713V45ZM64.8553 62.04C64.8553 62.2267 64.8153 62.44 64.7353 62.68L63.4953 65.52H63.2153V63.32C62.8953 63.2667 62.6153 63.12 62.3753 62.88C62.162 62.6133 62.0553 62.3067 62.0553 61.96C62.0553 61.5867 62.1886 61.2667 62.4553 61C62.7486 60.7333 63.082 60.6 63.4553 60.6C63.8286 60.6 64.1486 60.7333 64.4153 61C64.7086 61.2667 64.8553 61.5867 64.8553 61.96V62.04ZM78.3913 33H79.7113V63H78.3913V33ZM102.867 63.44C101.161 63.44 99.5739 63.0133 98.1072 62.16C96.6405 61.3067 95.4805 60.16 94.6272 58.72C93.7739 57.2533 93.3472 55.68 93.3472 54C93.3472 52.32 93.7739 50.76 94.6272 49.32C95.4805 47.8533 96.6405 46.6933 98.1072 45.84C99.5739 44.9867 101.161 44.56 102.867 44.56C104.601 44.56 106.241 45.0267 107.787 45.96C109.334 46.8667 110.414 48.0533 111.027 49.52V45H112.307V63H111.027V58.52C110.307 60.0133 109.187 61.2133 107.667 62.12C106.174 63 104.574 63.44 102.867 63.44ZM102.947 62.32C104.414 62.32 105.774 61.9467 107.027 61.2C108.281 60.4267 109.267 59.4133 109.987 58.16C110.734 56.88 111.107 55.4933 111.107 54C111.107 52.5333 110.734 51.16 109.987 49.88C109.241 48.6 108.241 47.5867 106.987 46.84C105.734 46.0667 104.374 45.68 102.907 45.68C101.441 45.68 100.067 46.0667 98.7872 46.84C97.5339 47.6133 96.5205 48.64 95.7472 49.92C95.0005 51.2 94.6272 52.5733 94.6272 54.04C94.6272 55.5067 95.0005 56.88 95.7472 58.16C96.5205 59.4133 97.5472 60.4267 98.8272 61.2C100.107 61.9467 101.481 62.32 102.947 62.32ZM117.356 45H118.636V47.72C119.863 45.6133 121.836 44.56 124.556 44.56C125.863 44.56 126.996 44.9333 127.956 45.68C128.916 46.4 129.583 47.4933 129.956 48.96C130.303 47.6533 131.063 46.6 132.236 45.8C133.436 44.9733 134.783 44.56 136.276 44.56C138.223 44.56 139.729 45.1333 140.796 46.28C141.863 47.4 142.396 49 142.396 51.08V63H141.116V51.08C141.116 49.4 140.676 48.08 139.796 47.12C138.943 46.16 137.809 45.68 136.396 45.68C135.329 45.68 134.343 45.9467 133.436 46.48C132.529 46.9867 131.809 47.68 131.276 48.56C130.743 49.44 130.476 50.4133 130.476 51.48V63H129.196V51.8C129.196 49.88 128.743 48.3867 127.836 47.32C126.929 46.2267 125.756 45.68 124.316 45.68C123.356 45.68 122.436 45.92 121.556 46.4C120.703 46.88 119.996 47.5333 119.436 48.36C118.903 49.16 118.636 50.04 118.636 51V63H117.356V45ZM181.143 33L167.423 63.68L153.703 33H155.143L167.543 60.64L179.783 33H181.143ZM184.424 40.88C184.05 40.88 183.717 40.7467 183.424 40.48C183.157 40.2133 183.024 39.88 183.024 39.48C183.024 39.1067 183.157 38.7867 183.424 38.52C183.717 38.2533 184.05 38.12 184.424 38.12C184.797 38.12 185.117 38.2533 185.384 38.52C185.677 38.7867 185.824 39.1067 185.824 39.48C185.824 39.88 185.677 40.2133 185.384 40.48C185.117 40.7467 184.797 40.88 184.424 40.88ZM183.784 45H185.064V63H183.784V45ZM190.775 40.88C190.402 40.88 190.069 40.7467 189.775 40.48C189.509 40.2133 189.375 39.88 189.375 39.48C189.375 39.1067 189.509 38.7867 189.775 38.52C190.069 38.2533 190.402 38.12 190.775 38.12C191.149 38.12 191.469 38.2533 191.735 38.52C192.029 38.7867 192.175 39.1067 192.175 39.48C192.175 39.88 192.029 40.2133 191.735 40.48C191.469 40.7467 191.149 40.88 190.775 40.88ZM184.415 69.8C186.015 69.8 187.362 69.2533 188.455 68.16C189.549 67.0933 190.095 65.76 190.095 64.16V45H191.375V64.16C191.375 65.44 191.069 66.6 190.455 67.64C189.842 68.68 189.002 69.48 187.935 70.04C186.869 70.6267 185.695 70.92 184.415 70.92V69.8ZM205.914 63.44C204.207 63.44 202.621 63.0133 201.154 62.16C199.687 61.3067 198.527 60.16 197.674 58.72C196.821 57.2533 196.394 55.68 196.394 54C196.394 52.32 196.821 50.76 197.674 49.32C198.527 47.8533 199.687 46.6933 201.154 45.84C202.621 44.9867 204.207 44.56 205.914 44.56C207.647 44.56 209.287 45.0267 210.834 45.96C212.381 46.8667 213.461 48.0533 214.074 49.52V45H215.354V63H214.074V58.52C213.354 60.0133 212.234 61.2133 210.714 62.12C209.221 63 207.621 63.44 205.914 63.44ZM205.994 62.32C207.461 62.32 208.821 61.9467 210.074 61.2C211.327 60.4267 212.314 59.4133 213.034 58.16C213.781 56.88 214.154 55.4933 214.154 54C214.154 52.5333 213.781 51.16 213.034 49.88C212.287 48.6 211.287 47.5867 210.034 46.84C208.781 46.0667 207.421 45.68 205.954 45.68C204.487 45.68 203.114 46.0667 201.834 46.84C200.581 47.6133 199.567 48.64 198.794 49.92C198.047 51.2 197.674 52.5733 197.674 54.04C197.674 55.5067 198.047 56.88 198.794 58.16C199.567 59.4133 200.594 60.4267 201.874 61.2C203.154 61.9467 204.527 62.32 205.994 62.32ZM227.843 70.96C224.856 70.96 222.496 69.8933 220.763 67.76V65.72C221.643 67.1067 222.643 68.1333 223.763 68.8C224.883 69.4933 226.189 69.84 227.683 69.84C229.203 69.84 230.496 69.52 231.563 68.88C232.656 68.24 233.483 67.36 234.043 66.24C234.603 65.1467 234.883 63.92 234.883 62.56V59.52C234.243 60.7733 233.269 61.7467 231.963 62.44C230.683 63.1067 229.283 63.44 227.763 63.44C226.243 63.44 224.896 63.1067 223.723 62.44C222.549 61.7733 221.629 60.84 220.963 59.64C220.323 58.44 220.003 57.0533 220.003 55.48V45H221.283V55.48C221.283 56.92 221.576 58.16 222.163 59.2C222.776 60.2133 223.576 60.9867 224.563 61.52C225.549 62.0533 226.629 62.32 227.803 62.32C229.083 62.32 230.269 62.0133 231.363 61.4C232.456 60.76 233.309 59.92 233.923 58.88C234.563 57.8133 234.883 56.68 234.883 55.48V45H236.163V62.44C236.163 64.04 235.829 65.48 235.163 66.76C234.523 68.0667 233.576 69.0933 232.323 69.84C231.069 70.5867 229.576 70.96 227.843 70.96Z" fill="black"/>
</svg>
