<svg width="496" height="130" viewBox="0 0 496 130" fill="none" xmlns="http://www.w3.org/2000/svg">
<path d="M491.734 93.8957L471.104 73.266C470.822 72.9828 470.487 72.7582 470.118 72.6048C469.748 72.4515 469.353 72.3726 468.953 72.3726C468.553 72.3726 468.157 72.4515 467.788 72.6048C467.419 72.7582 467.083 72.9828 466.801 73.266L462.517 77.5506L467.95 82.9843C468.591 82.7663 469.28 82.7326 469.939 82.8871C470.598 83.0417 471.201 83.3782 471.678 83.8584C472.155 84.3385 472.487 84.9431 472.637 85.603C472.787 86.263 472.749 86.9519 472.527 87.5912L477.758 92.8225C478.54 92.5538 479.39 92.5613 480.168 92.8435C480.945 93.1258 481.602 93.6658 482.029 94.3736C482.456 95.0814 482.628 95.9143 482.516 96.7335C482.404 97.5526 482.014 98.3086 481.412 98.8754C480.81 99.4422 480.032 99.7856 479.208 99.8484C478.383 99.9113 477.562 99.6897 476.882 99.2206C476.201 98.7516 475.701 98.0634 475.466 97.2707C475.231 96.478 475.275 95.6287 475.59 94.8643L470.704 89.979V102.833C471.444 103.199 472.037 103.809 472.382 104.559C472.727 105.309 472.806 106.155 472.603 106.955C472.401 107.756 471.93 108.463 471.27 108.959C470.609 109.455 469.799 109.71 468.973 109.681C468.148 109.652 467.358 109.341 466.734 108.8C466.11 108.259 465.69 107.52 465.544 106.707C465.398 105.894 465.536 105.056 465.933 104.332C466.33 103.608 466.964 103.042 467.728 102.728V89.7563C467.286 89.5749 466.884 89.3079 466.546 88.9707C466.207 88.6334 465.939 88.2325 465.756 87.7912C465.574 87.3498 465.48 86.8766 465.481 86.3989C465.482 85.9211 465.577 85.4483 465.762 85.0076L460.412 79.6549L446.266 93.8063C445.983 94.0885 445.758 94.4239 445.604 94.7933C445.451 95.1627 445.372 95.5587 445.372 95.9587C445.372 96.3587 445.451 96.7547 445.604 97.1241C445.758 97.4934 445.983 97.8289 446.266 98.1111L466.896 118.734C467.178 119.017 467.513 119.242 467.882 119.395C468.252 119.548 468.647 119.627 469.047 119.627C469.447 119.627 469.843 119.548 470.212 119.395C470.581 119.242 470.917 119.017 471.199 118.734L491.734 98.1938C492.017 97.9115 492.242 97.5761 492.396 97.2067C492.549 96.8374 492.628 96.4413 492.628 96.0414C492.628 95.6414 492.549 95.2453 492.396 94.876C492.242 94.5066 492.017 94.1712 491.734 93.889" fill="#DD4C35"/>
<path d="M462.517 77.5506L467.95 82.9843C468.591 82.7663 469.28 82.7326 469.939 82.8871C470.598 83.0416 471.2 83.3782 471.678 83.8584C472.155 84.3385 472.487 84.9431 472.637 85.603C472.787 86.263 472.749 86.9519 472.527 87.5912L477.758 92.8224C478.54 92.5538 479.39 92.5612 480.168 92.8435C480.945 93.1257 481.602 93.6658 482.029 94.3736C482.456 95.0814 482.628 95.9143 482.516 96.7334C482.404 97.5526 482.014 98.3086 481.412 98.8754C480.81 99.4422 480.032 99.7856 479.208 99.8484C478.383 99.9112 477.562 99.6897 476.882 99.2206C476.201 98.7516 475.701 98.0634 475.466 97.2707C475.231 96.478 475.275 95.6287 475.59 94.8643L470.704 89.979V102.833C471.444 103.199 472.036 103.808 472.382 104.559C472.727 105.309 472.806 106.155 472.603 106.955C472.401 107.756 471.93 108.463 471.27 108.959C470.609 109.455 469.799 109.71 468.973 109.681C468.148 109.652 467.358 109.341 466.734 108.8C466.11 108.259 465.69 107.52 465.544 106.707C465.398 105.894 465.536 105.056 465.933 104.332C466.33 103.608 466.964 103.042 467.728 102.728V89.7563C467.286 89.5749 466.884 89.3079 466.546 88.9707C466.207 88.6334 465.939 88.2325 465.756 87.7911C465.574 87.3497 465.48 86.8766 465.481 86.3988C465.482 85.9211 465.577 85.4483 465.762 85.0076L460.412 79.6549" fill="white"/>
<path d="M327.046 122.625L325.779 122.205C325.779 122.205 325.948 115.792 323.627 115.342C322.109 113.573 323.852 39.8413 329.404 115.09C328.35 115.625 327.544 116.546 327.154 117.66C326.945 119.307 326.909 120.971 327.046 122.625Z" fill="url(#paint0_linear_0_1)"/>
<path d="M327.731 116.43C331.106 113.89 333.69 110.445 335.183 106.494C336.677 102.543 337.019 98.2501 336.169 94.113C333.688 83.1696 327.814 79.5718 327.181 78.1982C326.635 77.3429 326.169 76.439 325.789 75.4982L326.257 105.99C326.257 105.99 325.288 115.308 327.731 116.43Z" fill="url(#paint1_linear_0_1)"/>
<path d="M325.134 116.835C325.134 116.835 314.805 109.8 315.402 97.3547C315.458 93.6028 316.318 89.9065 317.925 86.5156C319.532 83.1246 321.848 80.118 324.716 77.6987C325.051 77.4139 325.317 77.0569 325.495 76.6544C325.672 76.252 325.756 75.8145 325.74 75.375C326.383 76.7588 326.278 96.0351 326.346 98.2896C326.607 107.06 325.858 115.18 325.134 116.835Z" fill="url(#paint2_linear_0_1)"/>
<g clip-path="url(#clip0_0_1)">
<path d="M248.92 125.9C248.177 125.9 247.484 125.702 246.84 125.355L240.254 121.443C239.264 120.899 239.759 120.701 240.056 120.601C241.393 120.156 241.641 120.057 243.027 119.264C243.176 119.165 243.374 119.215 243.522 119.314L248.573 122.335C248.771 122.434 249.019 122.434 249.168 122.335L268.925 110.896C269.123 110.797 269.222 110.599 269.222 110.351V87.5236C269.222 87.276 269.123 87.078 268.925 86.9789L249.168 75.5898C248.97 75.4908 248.722 75.4908 248.573 75.5898L228.816 86.9791C228.618 87.0781 228.519 87.3257 228.519 87.5238V110.351C228.519 110.549 228.618 110.797 228.816 110.896L234.213 114.016C237.135 115.501 238.967 113.768 238.967 112.035V89.5042C238.967 89.2071 239.215 88.91 239.561 88.91H242.087C242.384 88.91 242.681 89.1576 242.681 89.5042V112.035C242.681 115.947 240.551 118.224 236.838 118.224C235.699 118.224 234.808 118.224 232.282 116.986L227.083 114.016C225.795 113.273 225.003 111.886 225.003 110.401V87.5733C225.003 86.0878 225.795 84.7014 227.083 83.9585L246.84 72.52C248.078 71.8268 249.762 71.8268 251 72.52L270.757 83.9585C272.045 84.7012 272.837 86.0876 272.837 87.5733V110.401C272.837 111.886 272.045 113.273 270.757 114.016L251 125.454C250.356 125.751 249.613 125.9 248.92 125.9V125.9ZM255.011 110.203C246.345 110.203 244.562 106.241 244.562 102.874C244.562 102.577 244.81 102.28 245.157 102.28H247.731C248.029 102.28 248.276 102.478 248.276 102.775C248.672 105.399 249.811 106.687 255.06 106.687C259.22 106.687 261.002 105.746 261.002 103.518C261.002 102.23 260.507 101.29 254.02 100.646C248.623 100.101 245.256 98.9127 245.256 94.6049C245.256 90.5937 248.623 88.217 254.268 88.217C260.606 88.217 263.726 90.3957 264.122 95.1494C264.122 95.2979 264.072 95.4465 263.973 95.595C263.874 95.694 263.726 95.7931 263.577 95.7931H261.002C260.755 95.7931 260.507 95.595 260.458 95.3474C259.863 92.6241 258.328 91.7328 254.268 91.7328C249.712 91.7328 249.168 93.3173 249.168 94.5057C249.168 95.9418 249.811 96.3873 255.951 97.1795C262.042 97.9718 264.914 99.1108 264.914 103.369C264.865 107.727 261.299 110.203 255.011 110.203Z" fill="#539E43"/>
</g>
<path d="M26.8059 79.5437C14.8247 79.5437 15.5824 84.7244 15.5824 84.7244V90.1075H26.9764V91.795H11.0447C11.0447 91.795 3.375 90.85 3.375 103.008C3.375 115.167 10.1469 114.672 10.1469 114.672H14.0569V109.001C14.0569 109.001 13.8375 102.229 20.6381 102.229H32.049C32.049 102.229 38.4142 102.33 38.4142 96.0661V85.7875C38.4142 85.7875 39.3795 79.5235 26.8684 79.5235L26.8059 79.5437ZM20.5082 83.1499C20.9133 83.1397 21.3123 83.2498 21.6547 83.4664C21.9972 83.683 22.2678 83.9962 22.4322 84.3665C22.5966 84.7369 22.6476 85.1476 22.5785 85.5469C22.5095 85.9462 22.3236 86.316 22.0444 86.6097C21.7652 86.9033 21.4051 87.1075 21.0098 87.1965C20.6145 87.2855 20.2017 87.2553 19.8236 87.1097C19.4455 86.964 19.119 86.7095 18.8855 86.3784C18.6521 86.0472 18.522 85.6543 18.5119 85.2492V85.2154C18.5119 84.6721 18.7277 84.151 19.1119 83.7668C19.4961 83.3826 20.0172 83.1668 20.5605 83.1668L20.5082 83.1499Z" fill="url(#paint3_linear_0_1)"/>
<path d="M27.1434 126.473C39.1247 126.473 38.367 121.276 38.367 121.276V115.909H26.9747V114.222H42.9553C42.9553 114.222 50.625 115.079 50.625 102.992C50.625 90.904 43.8531 91.3276 43.8531 91.3276H39.8925V96.925C39.8925 96.925 40.1119 103.697 33.3113 103.697H21.8953C21.8953 103.697 15.525 103.601 15.525 109.865V120.212C15.525 120.212 14.5597 126.476 27.0709 126.476H27.1384L27.1434 126.473ZM33.4412 122.85C33.0361 122.86 32.6371 122.75 32.2946 122.534C31.9522 122.317 31.6816 122.004 31.5172 121.633C31.3527 121.263 31.3018 120.852 31.3708 120.453C31.4399 120.054 31.6258 119.684 31.905 119.39C32.1842 119.097 32.5442 118.892 32.9395 118.803C33.3348 118.714 33.7477 118.745 34.1258 118.89C34.5039 119.036 34.8304 119.29 35.0638 119.622C35.2973 119.953 35.4274 120.346 35.4375 120.751V120.801C35.4375 121.345 35.2217 121.866 34.8375 122.25C34.4533 122.634 33.9322 122.85 33.3889 122.85H33.4412Z" fill="url(#paint4_linear_0_1)"/>
<g clip-path="url(#clip1_0_1)">
<path d="M148 0H202V54H148V0Z" fill="#F7DF1E"/>
<path d="M162.199 45.1263L166.331 42.6254C167.128 44.0389 167.853 45.2349 169.593 45.2349C171.26 45.2349 172.312 44.5827 172.312 42.0456V24.7913H177.387V42.1173C177.387 47.3732 174.306 49.7657 169.811 49.7657C165.751 49.7657 163.395 47.6632 162.198 45.1259M180.143 44.5825L184.275 42.1903C185.363 43.9666 186.776 45.2714 189.277 45.2714C191.38 45.2714 192.721 44.2201 192.721 42.7701C192.721 41.0303 191.343 40.414 189.023 39.3993L187.755 38.8551C184.094 37.2969 181.665 35.3394 181.665 31.2072C181.665 27.401 184.565 24.501 189.096 24.501C192.322 24.501 194.642 25.6249 196.309 28.561L192.358 31.0985C191.488 29.5399 190.546 28.9238 189.096 28.9238C187.61 28.9238 186.667 29.8662 186.667 31.0985C186.667 32.6209 187.61 33.2374 189.784 34.1799L191.053 34.7235C195.367 36.5724 197.795 38.4571 197.795 42.6978C197.795 47.2654 194.207 49.7663 189.386 49.7663C184.674 49.7663 181.629 47.519 180.143 44.5827" fill="black"/>
</g>
<path d="M270.411 3.375H227.589C226.366 3.375 225.375 4.36624 225.375 5.589V48.411C225.375 49.6338 226.366 50.625 227.589 50.625H270.411C271.634 50.625 272.625 49.6338 272.625 48.411V5.589C272.625 4.36624 271.634 3.375 270.411 3.375Z" fill="#3178C6"/>
<path fill-rule="evenodd" clip-rule="evenodd" d="M252.788 40.0933V45.2705C253.729 45.7348 254.732 46.0616 255.765 46.2409C256.96 46.4614 258.172 46.5698 259.387 46.5649C260.57 46.5705 261.751 46.4511 262.91 46.2088C263.95 45.9986 264.943 45.5981 265.838 45.0275C266.669 44.4912 267.353 43.7572 267.831 42.8912C268.686 41.0979 268.799 39.0397 268.145 37.1638C267.869 36.4623 267.458 35.8218 266.935 35.2789C266.373 34.7015 265.736 34.2036 265.04 33.7989C264.238 33.3295 263.405 32.9157 262.547 32.5603C261.872 32.2802 261.265 32.0079 260.725 31.7435C260.245 31.5139 259.786 31.2435 259.353 30.9352C259.013 30.6973 258.719 30.4014 258.482 30.0611C258.278 29.7521 258.171 29.3887 258.177 29.0182C258.172 28.6773 258.267 28.3424 258.45 28.0547C258.649 27.7535 258.914 27.5018 259.225 27.3189C259.605 27.0951 260.018 26.9339 260.45 26.8414C260.979 26.7237 261.521 26.6671 262.063 26.6726C262.519 26.6742 262.975 26.7069 263.426 26.7705C263.914 26.8364 264.397 26.9362 264.871 27.0692C265.353 27.2028 265.825 27.372 266.282 27.5754C266.725 27.7731 267.149 28.0115 267.549 28.2875V23.4562C266.717 23.1416 265.855 22.9153 264.976 22.7812C263.914 22.6268 262.842 22.554 261.769 22.5635C260.597 22.5572 259.427 22.6904 258.286 22.9601C257.255 23.1958 256.274 23.6148 255.391 24.197C254.57 24.7437 253.892 25.4792 253.414 26.3419C252.908 27.2998 252.658 28.3722 252.687 29.4553C252.65 30.8876 253.122 32.2868 254.019 33.404C255.119 34.6428 256.507 35.5925 258.06 36.1699C258.769 36.4624 259.43 36.7487 260.043 37.0288C260.596 37.2749 261.128 37.5668 261.633 37.9012C262.04 38.1661 262.397 38.5002 262.689 38.8884C262.946 39.2406 263.082 39.6661 263.077 40.1017C263.079 40.4282 262.996 40.7495 262.834 41.0332C262.655 41.3381 262.402 41.5938 262.1 41.7774C261.722 42.0081 261.308 42.1746 260.875 42.2702C260.311 42.3962 259.735 42.4557 259.157 42.4474C258.024 42.4453 256.899 42.2454 255.834 41.8567C254.722 41.4553 253.69 40.8581 252.788 40.0933ZM244.091 27.2042H250.841V22.9399H232.02V27.2042H238.74V46.1953H244.091V27.2042Z" fill="white"/>
<path d="M9.95963 45.9017L6.16782 3.375H47.8322L44.0353 45.8949L26.9747 50.625L9.95963 45.9017Z" fill="#E44F26"/>
<path d="M27 47.0104L40.7869 43.1882L44.0302 6.85294H27V47.0104Z" fill="#F1662A"/>
<path d="M27 22.6243H20.0981L19.6223 17.2834H27V12.0673H13.9219L14.0468 13.4679L15.3276 27.8404H27V22.6243ZM27 36.1699L26.9764 36.1766L21.168 34.6089L20.7968 30.4493H15.5604L16.2911 38.637L26.9764 41.6036L27 41.5969V36.1699Z" fill="#EBEBEB"/>
<path d="M26.9814 22.6243V27.8404H33.4041L32.7999 34.6056L26.9814 36.1749V41.6019L37.6751 38.637L37.7528 37.7561L38.9779 24.0249L39.1061 22.6243H26.9814ZM26.9814 12.0673V17.2834H39.5803L39.6849 16.1123L39.9229 13.4679L40.0478 12.0673H26.9814Z" fill="white"/>
<path d="M98.2945 82.75H105.109V113.41C102.2 113.996 99.2395 114.299 96.2698 114.313C87.9477 114.305 83.6164 110.654 83.6164 103.645C83.6164 96.8946 88.2106 92.5071 95.3314 92.5071C96.3301 92.488 97.3268 92.6015 98.2945 92.8446V82.75ZM98.2945 98.1771C97.5537 97.9372 96.7765 97.823 95.9966 97.8396C92.5591 97.8396 90.5602 99.9034 90.5602 103.52C90.5602 107.042 92.4628 108.986 95.9536 108.986C96.7371 108.985 97.5195 108.929 98.2945 108.817V98.1856V98.1771Z" fill="#44B78B"/>
<path d="M115.938 92.9746V108.331C115.938 113.618 115.534 116.159 114.351 118.351C113.144 120.58 111.171 122.316 108.782 123.25L102.461 120.326C104.757 119.553 106.681 117.973 107.859 115.889C108.832 113.997 109.14 111.805 109.14 106.039V92.9746H115.938ZM109.133 82.7838H115.946V89.581H109.133V82.7838Z" fill="#44B78B"/>
<path d="M323 31.1749C325.33 31.1749 327.219 29.2861 327.219 26.9561C327.219 24.6262 325.33 22.7374 323 22.7374C320.67 22.7374 318.781 24.6262 318.781 26.9561C318.781 29.2861 320.67 31.1749 323 31.1749Z" fill="#007ACC"/>
<path d="M323 36.6289C317.929 36.7515 312.871 36.068 308.015 34.6039C305.772 33.8927 303.679 32.7725 301.844 31.2997C301.143 30.7966 300.56 30.1479 300.134 29.3982C299.708 28.6484 299.449 27.8153 299.375 26.9561C299.375 24.1667 302.439 21.4329 307.573 19.6442C312.559 18.0592 317.769 17.291 323 17.3694C328.162 17.2973 333.301 18.0516 338.225 19.6037C340.385 20.2924 342.406 21.3585 344.195 22.7526C344.883 23.2322 345.458 23.8574 345.878 24.5838C346.298 25.3103 346.553 26.1201 346.625 26.9561C346.625 29.8552 343.199 32.7932 337.681 34.6191C332.919 36.0355 327.968 36.7133 323 36.6289ZM323 19.3877C317.995 19.3208 313.011 20.051 308.236 21.5511C303.511 23.1997 301.393 25.4542 301.393 26.9511C301.393 28.5171 303.67 30.9791 308.668 32.6886C313.314 34.0822 318.151 34.7309 323 34.6106C327.753 34.6956 332.49 34.0525 337.048 32.7037C342.238 30.9842 344.6 28.5187 344.6 26.9561C344.515 26.4199 344.319 25.9071 344.026 25.4502C343.733 24.9933 343.348 24.6023 342.896 24.3017C341.295 23.065 339.49 22.1201 337.561 21.5106C332.852 20.0319 327.936 19.3152 323 19.3877Z" fill="#007ACC"/>
<path d="M313.415 47.9975C312.628 48.0156 311.85 47.8246 311.161 47.444C308.744 46.0502 307.907 42.0305 308.921 36.6896C310.039 31.5783 311.977 26.6815 314.659 22.1889C317.174 17.6818 320.395 13.6062 324.198 10.1165C325.874 8.58886 327.807 7.37021 329.909 6.51711C330.669 6.16094 331.498 5.97632 332.337 5.97632C333.176 5.97632 334.005 6.16094 334.765 6.51711C337.278 7.96499 338.11 12.3997 336.937 18.0917C335.784 22.9256 333.897 27.5542 331.341 31.8161C328.914 36.27 325.795 40.3102 322.101 43.7855C320.364 45.3731 318.348 46.6255 316.156 47.4795C315.278 47.8053 314.351 47.9804 313.415 47.9975ZM316.407 23.1913C313.849 27.4933 311.992 32.1751 310.906 37.0609C309.973 41.9799 310.869 44.9381 312.171 45.6907C313.521 46.472 316.798 45.7312 320.778 42.255C324.304 38.9255 327.282 35.0581 329.598 30.7969C332.047 26.7224 333.857 22.2972 334.966 17.6749C336.07 12.317 335.116 9.03655 333.763 8.25692C333.256 8.06257 332.714 7.97557 332.171 8.00142C331.628 8.02727 331.097 8.16541 330.611 8.40711C328.74 9.17888 327.021 10.2745 325.531 11.6437C321.898 14.9863 318.821 18.8881 316.419 23.2014L316.407 23.1913Z" fill="#007ACC"/>
<path d="M332.58 48.0195C330.293 48.0195 327.389 46.6357 324.365 44.0353C320.495 40.514 317.22 36.3899 314.667 31.8229C312.019 27.3921 310.097 22.5662 308.973 17.5281C308.486 15.3115 308.396 13.0261 308.707 10.7781C308.779 9.94411 309.033 9.13607 309.451 8.41094C309.869 7.6858 310.441 7.06122 311.127 6.58124C313.636 5.12831 317.894 6.62174 322.239 10.4794C325.851 13.8918 328.919 17.8381 331.335 22.1805C333.981 26.5078 335.923 31.2281 337.089 36.1648C337.597 38.4627 337.675 40.8348 337.32 43.1612C337.236 44.0191 336.967 44.8486 336.531 45.5928C336.096 46.337 335.505 46.9783 334.799 47.4727C334.121 47.8486 333.355 48.0373 332.58 48.0195ZM316.414 30.807C318.863 35.1716 321.991 39.1185 325.681 42.4997C329.477 45.765 332.487 46.467 333.781 45.7059C335.131 44.9212 336.127 41.7184 335.101 36.5361C333.977 31.8228 332.114 27.3171 329.581 23.1862C327.276 19.0301 324.348 15.2514 320.899 11.9812C316.809 8.34974 313.491 7.53806 312.139 8.32106C311.718 8.66342 311.372 9.08942 311.124 9.57215C310.876 10.0549 310.73 10.5839 310.696 11.1257C310.428 13.1306 310.516 15.1671 310.955 17.1416C312.035 21.9597 313.879 26.5741 316.415 30.8104L316.414 30.807Z" fill="#007ACC"/>
<path d="M370.599 4.846e-05C370.508 0.00148177 370.418 0.023329 370.336 0.0639654C370.254 0.104602 370.183 0.162982 370.127 0.234763C370.071 0.306545 370.032 0.389881 370.013 0.478574C369.994 0.567267 369.996 0.659035 370.018 0.747053L376.593 27.1082C376.598 27.1388 376.606 27.1688 376.616 27.1982L383.182 53.5414C383.207 53.6444 383.26 53.739 383.334 53.8154C383.409 53.8918 383.502 53.9475 383.605 53.9767C383.708 54.0059 383.817 54.0077 383.921 53.9818C384.025 53.956 384.12 53.9034 384.197 53.8294L423.815 16.0877C423.891 16.0141 423.947 15.922 423.976 15.8204C424.006 15.7188 424.008 15.6113 423.982 15.5088C423.956 15.4063 423.904 15.3122 423.83 15.2361C423.756 15.16 423.663 15.1045 423.56 15.0751L410.419 11.3244C410.333 11.2762 410.238 11.2492 410.139 11.2456L384.231 3.85882C384.133 3.79871 384.02 3.76749 383.904 3.76882L370.772 0.0225486C370.716 0.00689338 370.658 -0.000684156 370.599 4.846e-05ZM371.449 1.47156L382.709 4.68008L374.257 12.7441L371.449 1.47156ZM384.754 5.26508L395.805 8.4151L387.512 16.3239L384.754 5.26508ZM383.568 5.53508L386.333 16.6187L375.252 13.4686L383.568 5.53508ZM397.836 8.99561L408.919 12.1546L400.599 20.0972L397.836 8.99561ZM396.655 9.28811L399.399 20.3132L388.373 17.1812L396.655 9.28811ZM410.969 12.7396L422.208 15.9436L413.768 23.9852L410.969 12.7396ZM409.778 13.0096L412.539 24.0932L401.46 20.9477L409.778 13.0096ZM374.716 14.5756L385.995 17.7797L377.529 25.8482L374.716 14.5756ZM388.019 18.3377L399.1 21.4877L390.784 29.4235L388.019 18.3377ZM386.842 18.6459L389.65 29.9342L378.374 26.7122L386.842 18.6459ZM401.097 22.0997L412.377 25.306L403.903 33.3745L401.097 22.0997ZM399.915 22.3854L402.721 33.6625L391.456 30.445L399.915 22.3854ZM378.036 27.871L389.107 31.0345L380.801 38.9613L378.036 27.871ZM391.336 31.6668L402.385 34.8235L394.097 42.7211L391.336 31.6668ZM390.109 31.7568L392.867 42.8426L381.791 39.6926L390.109 31.7568ZM381.257 40.8018L392.702 44.0463L384.109 52.2319L381.257 40.8018Z" fill="#555555"/>
<path d="M83.9596 45.9017L80.1695 3.375H121.83L118.035 45.8949L100.975 50.625L83.9596 45.9017Z" fill="#1572B6"/>
<path d="M101 47.0104L114.787 43.1882L118.03 6.85294H101V47.0104Z" fill="#33A9DC"/>
<path d="M101 22.2598H107.902L108.378 16.9189H101V11.7028H114.078L113.953 13.1018L112.672 27.4759H101V22.2598Z" fill="white"/>
<path d="M101.032 35.8054L101.008 35.8121L95.2001 34.2428L94.8288 30.0831H89.5925L90.3232 38.2725L101.007 41.2391L101.032 41.2324V35.8054Z" fill="#EBEBEB"/>
<path d="M107.458 27.2548L106.83 34.2394L101.014 35.8088V41.2358L111.706 38.2725L111.785 37.3916L112.691 27.2548H107.458Z" fill="white"/>
<path d="M101.019 11.7028V16.9189H88.4197L88.3151 15.7461L88.0771 13.1018L87.9523 11.7028H101.019ZM101 22.2598V27.4759H95.2642L95.1596 26.3031L94.9233 23.6588L94.7984 22.2598H101Z" fill="#EBEBEB"/>
<g clip-path="url(#clip2_0_1)">
<path d="M478.645 36.3901C480.49 36.1977 481.889 34.5956 481.826 32.6729C481.762 30.7503 480.172 29.2121 478.263 29.2121H478.136C476.163 29.2763 474.636 30.9425 474.7 32.9292C474.764 33.8906 475.145 34.7237 475.718 35.3005C473.555 39.5945 470.246 42.7348 465.283 45.3624C461.911 47.1569 458.412 47.7978 454.913 47.3492C452.05 46.9647 449.823 45.683 448.423 43.5679C446.387 40.4276 446.196 37.0308 447.914 33.6342C449.123 31.1988 451.032 29.4043 452.24 28.5071C451.986 27.674 451.604 26.2641 451.413 25.2388C442.188 31.968 443.142 41.0685 445.942 45.3624C448.041 48.567 452.304 50.5536 457.012 50.5536C458.285 50.5536 459.557 50.4254 460.83 50.1051C468.974 48.5028 475.145 43.632 478.645 36.3901ZM489.843 28.4431C485.007 22.7392 477.881 19.599 469.737 19.599H468.719C468.147 18.4454 466.938 17.6762 465.602 17.6762H465.474C463.502 17.7403 461.975 19.4066 462.039 21.3934C462.102 23.316 463.693 24.8542 465.602 24.8542H465.729C467.129 24.79 468.337 23.8928 468.846 22.6751H469.992C474.827 22.6751 479.408 24.085 483.544 26.8409C486.725 28.9558 489.016 31.7117 490.288 35.0441C491.37 37.7359 491.306 40.3635 490.161 42.6067C488.379 46.0033 485.389 47.8619 481.444 47.8619C478.899 47.8619 476.481 47.0927 475.209 46.5159C474.509 47.1569 473.236 48.1822 472.346 48.8233C475.082 50.1049 477.881 50.81 480.553 50.81C486.661 50.81 491.179 47.4132 492.897 44.0166C494.742 40.2993 494.614 33.8906 489.843 28.4431ZM457.521 37.4793C457.585 39.4021 459.176 40.9401 461.084 40.9401H461.212C463.184 40.8761 464.711 39.2097 464.647 37.223C464.584 35.3003 462.993 33.7623 461.084 33.7623H460.957C460.83 33.7623 460.639 33.7623 460.512 33.8262C457.903 29.4683 456.822 24.7259 457.203 19.5988C457.458 15.7534 458.73 12.4208 460.957 9.66492C462.802 7.29364 466.365 6.14007 468.783 6.07613C475.527 5.94787 478.39 14.4075 478.581 17.8043C479.408 17.9965 480.808 18.4452 481.762 18.7656C480.999 8.38347 474.636 3 468.528 3C462.802 3 457.521 7.16577 455.422 13.3182C452.495 21.5215 454.404 29.4043 457.967 35.6209C457.649 36.0694 457.458 36.7743 457.521 37.4793Z" fill="#764ABC"/>
</g>
<g clip-path="url(#clip3_0_1)">
<path d="M198.627 117.617C195.637 117.543 193.32 117.841 191.376 118.661C190.815 118.884 189.918 118.885 189.843 119.593C190.142 119.891 190.18 120.376 190.441 120.786C190.89 121.531 191.675 122.538 192.385 123.06C193.17 123.657 193.955 124.253 194.777 124.775C196.235 125.67 197.88 126.192 199.3 127.087C200.123 127.608 200.944 128.28 201.767 128.839C202.178 129.137 202.439 129.622 202.963 129.808V129.696C202.701 129.361 202.626 128.876 202.365 128.503C201.992 128.13 201.617 127.795 201.243 127.422C200.16 125.968 198.814 124.701 197.356 123.657C196.16 122.836 193.544 121.718 193.058 120.339C193.058 120.339 193.02 120.301 192.983 120.264C193.805 120.19 194.777 119.891 195.562 119.668C196.833 119.332 197.992 119.407 199.3 119.071C199.898 118.922 200.496 118.735 201.094 118.549V118.214C200.421 117.543 199.936 116.648 199.225 116.014C197.319 114.373 195.226 112.77 193.058 111.428C191.899 110.683 190.404 110.198 189.17 109.564C188.722 109.34 187.974 109.229 187.713 108.856C187.04 108.036 186.666 106.955 186.18 105.985C185.096 103.935 184.05 101.661 183.115 99.4984C182.443 98.0442 182.031 96.5901 181.209 95.2482C177.359 88.9103 173.173 85.0703 166.744 81.3047C165.361 80.5219 163.716 80.1863 161.959 79.7764C161.025 79.7389 160.09 79.6645 159.156 79.627C158.558 79.366 157.96 78.6578 157.436 78.3222C155.306 76.9799 149.811 74.0723 148.241 77.9123C147.232 80.3354 149.737 82.7213 150.596 83.9519C151.232 84.8093 152.054 85.7785 152.503 86.7479C152.764 87.3814 152.839 88.0529 153.101 88.7239C153.699 90.3638 154.259 92.191 155.044 93.7197C155.456 94.5025 155.904 95.3226 156.427 96.031C156.726 96.4409 157.25 96.6276 157.362 97.2985C156.839 98.0442 156.801 99.1628 156.502 100.095C155.156 104.308 155.68 109.527 157.586 112.621C158.184 113.553 159.604 115.604 161.511 114.821C163.193 114.15 162.819 112.025 163.305 110.161C163.417 109.713 163.342 109.415 163.566 109.117V109.192C164.09 110.235 164.613 111.242 165.099 112.286C166.258 114.112 168.276 116.014 169.958 117.282C170.855 117.952 171.565 119.108 172.687 119.518V119.406H172.612C172.388 119.071 172.051 118.922 171.752 118.661C171.08 117.99 170.332 117.17 169.809 116.424C168.239 114.336 166.856 112.025 165.622 109.639C165.024 108.483 164.501 107.215 164.015 106.06C163.791 105.612 163.791 104.941 163.417 104.718C162.856 105.538 162.034 106.246 161.623 107.253C160.913 108.856 160.838 110.832 160.576 112.882C160.427 112.92 160.501 112.882 160.427 112.957C159.231 112.658 158.82 111.428 158.371 110.384C157.249 107.737 157.062 103.487 158.035 100.43C158.296 99.6473 159.418 97.1869 158.969 96.4412C158.745 95.7327 157.997 95.3226 157.586 94.7635C157.1 94.0551 156.577 93.1607 156.24 92.3774C155.343 90.2897 154.895 87.9782 153.923 85.8904C153.474 84.9209 152.69 83.9147 152.054 83.0198C151.344 82.0133 150.559 81.3047 149.998 80.1117C149.812 79.7018 149.55 79.0307 149.849 78.5832C149.923 78.2849 150.073 78.1733 150.372 78.0987C150.858 77.6884 152.241 78.2104 152.727 78.4341C154.11 78.9929 155.268 79.5154 156.427 80.2982C156.95 80.671 157.511 81.3794 158.184 81.5659H158.969C160.165 81.8267 161.51 81.6404 162.632 81.9758C164.613 82.6094 166.407 83.5416 168.015 84.5483C172.911 87.6426 176.948 92.0419 179.676 97.2985C180.125 98.1557 180.312 98.9391 180.723 99.8335C181.508 101.661 182.48 103.525 183.265 105.314C184.05 107.066 184.797 108.856 185.918 110.31C186.479 111.093 188.722 111.503 189.731 111.913C190.479 112.248 191.638 112.547 192.31 112.957C193.581 113.739 194.852 114.635 196.048 115.492C196.646 115.939 198.515 116.871 198.627 117.617Z" fill="#00546B"/>
<path d="M160.501 85.219C159.866 85.219 159.417 85.294 158.969 85.4056V85.4802H159.044C159.343 86.0768 159.866 86.4869 160.239 87.0087C160.539 87.6051 160.8 88.2019 161.099 88.7984C161.137 88.7609 161.174 88.7239 161.174 88.7239C161.698 88.3508 161.959 87.7544 161.959 86.8596C161.735 86.5988 161.697 86.3378 161.51 86.0768C161.286 85.7037 160.8 85.5175 160.501 85.219Z" fill="#00546B"/>
</g>
<path d="M415.417 95.2875V97.8862H412.815V100.49H415.417V103.094H418.021V100.49H420.625V97.8862H418.021V95.2875H415.417ZM409.511 95.2875H406.906V97.8862H404.302V100.49H406.906V103.094H409.509V100.49H412.113V97.8862H409.509L409.511 95.2875ZM403.345 104.106C402.22 106.106 400.465 107.679 398.353 108.578C396.242 109.477 393.892 109.653 391.671 109.079C389.449 108.505 387.479 107.212 386.068 105.402C384.657 103.592 383.884 101.366 383.869 99.0714C383.854 96.7765 384.598 94.541 385.985 92.7128C387.372 90.8845 389.325 89.5661 391.539 88.9627C393.753 88.3593 396.105 88.5048 398.228 89.3764C400.351 90.248 402.126 91.797 403.277 93.7822L412.373 88.551C410.069 84.565 406.513 81.4516 402.258 79.6942C398.002 77.9368 393.285 77.6339 388.84 78.8324C384.395 80.031 380.47 82.664 377.675 86.3225C374.88 89.9809 373.371 94.46 373.383 99.064C373.395 103.668 374.927 108.139 377.741 111.783C380.555 115.427 384.493 118.04 388.945 119.215C393.396 120.391 398.111 120.063 402.358 118.284C406.604 116.504 410.144 113.373 412.427 109.375L403.345 104.106Z" fill="#005F91"/>
<defs>
<linearGradient id="paint0_linear_0_1" x1="318.527" y1="99.4258" x2="333.093" y2="104.369" gradientUnits="userSpaceOnUse">
<stop offset="0.231" stop-color="#999875"/>
<stop offset="0.563" stop-color="#9B9977"/>
<stop offset="0.683" stop-color="#A09F7E"/>
<stop offset="0.768" stop-color="#A9A889"/>
<stop offset="0.837" stop-color="#B7B69A"/>
<stop offset="0.896" stop-color="#C9C7B0"/>
<stop offset="0.948" stop-color="#DEDDCB"/>
<stop offset="0.994" stop-color="#F8F6EB"/>
<stop offset="1" stop-color="#FBF9EF"/>
</linearGradient>
<linearGradient id="paint1_linear_0_1" x1="323.869" y1="75.2803" x2="330.308" y2="115.492" gradientUnits="userSpaceOnUse">
<stop stop-color="#48A547"/>
<stop offset="1" stop-color="#3F9143"/>
</linearGradient>
<linearGradient id="paint2_linear_0_1" x1="314.514" y1="98.5866" x2="331.795" y2="92.7992" gradientUnits="userSpaceOnUse">
<stop stop-color="#41A247"/>
<stop offset="0.352" stop-color="#4BA74B"/>
<stop offset="0.956" stop-color="#67B554"/>
<stop offset="1" stop-color="#69B655"/>
</linearGradient>
<linearGradient id="paint3_linear_0_1" x1="8.04458" y1="84.1386" x2="30.4658" y2="106.509" gradientUnits="userSpaceOnUse">
<stop stop-color="#387EB8"/>
<stop offset="1" stop-color="#366994"/>
</linearGradient>
<linearGradient id="paint4_linear_0_1" x1="21.3089" y1="98.7113" x2="46.9255" y2="121.075" gradientUnits="userSpaceOnUse">
<stop stop-color="#FFE052"/>
<stop offset="1" stop-color="#FFC331"/>
</linearGradient>
<clipPath id="clip0_0_1">
<rect width="47.84" height="54" fill="white" transform="translate(225 72)"/>
</clipPath>
<clipPath id="clip1_0_1">
<rect width="54" height="54" fill="white" transform="translate(148)"/>
</clipPath>
<clipPath id="clip2_0_1">
<rect width="50" height="48" fill="white" transform="translate(444 3)"/>
</clipPath>
<clipPath id="clip3_0_1">
<rect width="55" height="54" fill="white" transform="translate(148 76)"/>
</clipPath>
</defs>
</svg>
