<svg width="582" height="351" viewBox="0 0 582 351" fill="none" xmlns="http://www.w3.org/2000/svg">
<path d="M212.886 14.25C212.674 12.2652 211.78 10.7197 210.205 9.61364C208.644 8.50757 206.614 7.95454 204.114 7.95454C202.356 7.95454 200.848 8.2197 199.591 8.75C198.333 9.2803 197.371 10 196.705 10.9091C196.038 11.8182 195.697 12.8561 195.682 14.0227C195.682 14.9924 195.902 15.8333 196.341 16.5455C196.795 17.2576 197.409 17.8636 198.182 18.3636C198.955 18.8485 199.811 19.2576 200.75 19.5909C201.689 19.9242 202.636 20.2045 203.591 20.4318L207.955 21.5227C209.712 21.9318 211.402 22.4848 213.023 23.1818C214.659 23.8788 216.121 24.7576 217.409 25.8182C218.712 26.8788 219.742 28.1591 220.5 29.6591C221.258 31.1591 221.636 32.9167 221.636 34.9318C221.636 37.6591 220.939 40.0606 219.545 42.1364C218.152 44.197 216.136 45.8106 213.5 46.9773C210.879 48.1288 207.705 48.7045 203.977 48.7045C200.356 48.7045 197.212 48.1439 194.545 47.0227C191.894 45.9015 189.818 44.2652 188.318 42.1136C186.833 39.9621 186.03 37.3409 185.909 34.25H194.205C194.326 35.8712 194.826 37.2197 195.705 38.2955C196.583 39.3712 197.727 40.1742 199.136 40.7045C200.561 41.2348 202.152 41.5 203.909 41.5C205.742 41.5 207.348 41.2273 208.727 40.6818C210.121 40.1212 211.212 39.3485 212 38.3636C212.788 37.3636 213.189 36.197 213.205 34.8636C213.189 33.6515 212.833 32.6515 212.136 31.8636C211.439 31.0606 210.462 30.3939 209.205 29.8636C207.962 29.3182 206.508 28.8333 204.841 28.4091L199.545 27.0455C195.712 26.0606 192.682 24.5682 190.455 22.5682C188.242 20.553 187.136 17.8788 187.136 14.5455C187.136 11.803 187.879 9.40151 189.364 7.34091C190.864 5.2803 192.902 3.68182 195.477 2.54545C198.053 1.39394 200.97 0.81818 204.227 0.81818C207.53 0.81818 210.424 1.39394 212.909 2.54545C215.409 3.68182 217.371 5.26515 218.795 7.29545C220.22 9.3106 220.955 11.6288 221 14.25H212.886ZM229.153 48V1.45454H237.585V22.8409H238.153L256.312 1.45454H266.608L248.608 22.3409L266.767 48H256.631L242.744 28.0455L237.585 34.1364V48H229.153ZM280.898 1.45454V48H272.466V1.45454H280.898ZM290.028 48V1.45454H298.46V40.9318H318.96V48H290.028ZM326.278 48V1.45454H334.71V40.9318H355.21V48H326.278ZM387.824 14.25C387.612 12.2652 386.718 10.7197 385.142 9.61364C383.581 8.50757 381.551 7.95454 379.051 7.95454C377.294 7.95454 375.786 8.2197 374.528 8.75C373.271 9.2803 372.309 10 371.642 10.9091C370.975 11.8182 370.634 12.8561 370.619 14.0227C370.619 14.9924 370.839 15.8333 371.278 16.5455C371.733 17.2576 372.347 17.8636 373.119 18.3636C373.892 18.8485 374.748 19.2576 375.688 19.5909C376.627 19.9242 377.574 20.2045 378.528 20.4318L382.892 21.5227C384.65 21.9318 386.339 22.4848 387.96 23.1818C389.597 23.8788 391.059 24.7576 392.347 25.8182C393.65 26.8788 394.68 28.1591 395.438 29.6591C396.195 31.1591 396.574 32.9167 396.574 34.9318C396.574 37.6591 395.877 40.0606 394.483 42.1364C393.089 44.197 391.074 45.8106 388.438 46.9773C385.816 48.1288 382.642 48.7045 378.915 48.7045C375.294 48.7045 372.15 48.1439 369.483 47.0227C366.831 45.9015 364.756 44.2652 363.256 42.1136C361.771 39.9621 360.968 37.3409 360.847 34.25H369.142C369.263 35.8712 369.763 37.2197 370.642 38.2955C371.521 39.3712 372.665 40.1742 374.074 40.7045C375.498 41.2348 377.089 41.5 378.847 41.5C380.68 41.5 382.286 41.2273 383.665 40.6818C385.059 40.1212 386.15 39.3485 386.938 38.3636C387.725 37.3636 388.127 36.197 388.142 34.8636C388.127 33.6515 387.771 32.6515 387.074 31.8636C386.377 31.0606 385.4 30.3939 384.142 29.8636C382.9 29.3182 381.445 28.8333 379.778 28.4091L374.483 27.0455C370.65 26.0606 367.619 24.5682 365.392 22.5682C363.18 20.553 362.074 17.8788 362.074 14.5455C362.074 11.803 362.816 9.40151 364.301 7.34091C365.801 5.2803 367.839 3.68182 370.415 2.54545C372.991 1.39394 375.907 0.81818 379.165 0.81818C382.468 0.81818 385.362 1.39394 387.847 2.54545C390.347 3.68182 392.309 5.26515 393.733 7.29545C395.157 9.3106 395.892 11.6288 395.938 14.25H387.824Z" fill="black"/>
<path d="M290.677 266.906C270.708 266.906 271.971 275.541 271.971 275.541V284.512H290.961V287.325H264.408C264.408 287.325 251.625 285.75 251.625 306.014C251.625 326.278 262.912 325.454 262.912 325.454H269.428V316.001C269.428 316.001 269.062 304.715 280.397 304.715H299.415C299.415 304.715 310.024 304.883 310.024 294.443V277.312C310.024 277.312 311.632 266.872 290.781 266.872L290.677 266.906ZM280.18 272.917C280.855 272.9 281.52 273.083 282.091 273.444C282.662 273.805 283.113 274.327 283.387 274.944C283.661 275.561 283.746 276.246 283.631 276.912C283.516 277.577 283.206 278.193 282.741 278.683C282.275 279.172 281.675 279.513 281.016 279.661C280.358 279.809 279.67 279.759 279.039 279.516C278.409 279.273 277.865 278.849 277.476 278.297C277.087 277.745 276.87 277.09 276.853 276.415V276.359C276.853 275.454 277.213 274.585 277.853 273.945C278.493 273.304 279.362 272.945 280.267 272.945L280.18 272.917Z" fill="url(#paint0_linear_0_1)"/>
<path d="M291.239 345.122C311.208 345.122 309.945 336.459 309.945 336.459V327.516H290.958V324.703H317.592C317.592 324.703 330.375 326.132 330.375 305.986C330.375 285.84 319.088 286.546 319.088 286.546H312.487V295.875C312.487 295.875 312.853 307.162 301.519 307.162H282.492C282.492 307.162 271.875 307.001 271.875 317.441V334.687C271.875 334.687 270.266 345.127 291.118 345.127H291.231L291.239 345.122ZM301.735 339.083C301.06 339.1 300.395 338.917 299.824 338.556C299.254 338.195 298.803 337.673 298.529 337.056C298.255 336.439 298.17 335.754 298.285 335.088C298.4 334.423 298.71 333.807 299.175 333.317C299.64 332.828 300.24 332.487 300.899 332.339C301.558 332.191 302.246 332.241 302.876 332.484C303.507 332.727 304.051 333.151 304.44 333.703C304.829 334.255 305.046 334.91 305.063 335.585V335.669C305.063 336.575 304.703 337.443 304.062 338.083C303.422 338.724 302.554 339.083 301.648 339.083H301.735Z" fill="url(#paint1_linear_0_1)"/>
<g clip-path="url(#clip0_0_1)">
<path d="M246 125H336V215H246V125Z" fill="#F7DF1E"/>
<path d="M269.664 200.21L276.551 196.042C277.88 198.398 279.089 200.392 281.988 200.392C284.768 200.392 286.52 199.305 286.52 195.076V166.319H294.978V195.195C294.978 203.955 289.843 207.943 282.351 207.943C275.585 207.943 271.658 204.439 269.664 200.21M299.571 199.304L306.458 195.317C308.271 198.278 310.627 200.452 314.795 200.452C318.3 200.452 320.534 198.7 320.534 196.284C320.534 193.384 318.239 192.357 314.372 190.666L312.258 189.759C306.156 187.162 302.109 183.899 302.109 177.012C302.109 170.668 306.942 165.835 314.494 165.835C319.87 165.835 323.737 167.708 326.516 172.602L319.93 176.831C318.48 174.233 316.91 173.206 314.493 173.206C312.016 173.206 310.445 174.777 310.445 176.831C310.445 179.368 312.016 180.396 315.641 181.966L317.755 182.872C324.944 185.954 328.992 189.095 328.992 196.163C328.992 203.776 323.011 207.944 314.976 207.944C307.123 207.944 302.048 204.198 299.571 199.305" fill="black"/>
</g>
<path d="M449.685 130.625H378.315C376.277 130.625 374.625 132.277 374.625 134.315V205.685C374.625 207.723 376.277 209.375 378.315 209.375H449.685C451.723 209.375 453.375 207.723 453.375 205.685V134.315C453.375 132.277 451.723 130.625 449.685 130.625Z" fill="#3178C6"/>
<path fill-rule="evenodd" clip-rule="evenodd" d="M420.314 191.822V200.451C421.882 201.225 423.553 201.769 425.275 202.068C427.266 202.436 429.287 202.616 431.311 202.608C433.284 202.618 435.252 202.419 437.183 202.015C438.917 201.664 440.572 200.997 442.063 200.046C443.448 199.152 444.589 197.929 445.385 196.485C446.81 193.497 446.998 190.066 445.908 186.94C445.448 185.77 444.763 184.703 443.891 183.798C442.956 182.836 441.893 182.006 440.733 181.332C439.397 180.549 438.009 179.859 436.579 179.267C435.454 178.8 434.441 178.347 433.541 177.906C432.742 177.523 431.977 177.072 431.255 176.559C430.689 176.162 430.198 175.669 429.803 175.102C429.463 174.587 429.285 173.981 429.294 173.364C429.287 172.796 429.445 172.237 429.75 171.758C430.081 171.256 430.523 170.836 431.041 170.532C431.675 170.159 432.364 169.89 433.083 169.736C433.965 169.54 434.868 169.445 435.772 169.454C436.532 169.457 437.291 169.511 438.044 169.618C438.857 169.727 439.662 169.894 440.452 170.115C441.255 170.338 442.041 170.62 442.803 170.959C443.542 171.289 444.249 171.686 444.915 172.146V164.094C443.529 163.569 442.091 163.192 440.626 162.969C438.857 162.711 437.07 162.59 435.282 162.606C433.328 162.595 431.379 162.817 429.477 163.267C427.758 163.66 426.123 164.358 424.651 165.328C423.283 166.24 422.154 167.465 421.357 168.903C420.514 170.5 420.096 172.287 420.145 174.092C420.083 176.479 420.869 178.811 422.364 180.673C424.199 182.738 426.512 184.321 429.1 185.283C430.282 185.771 431.383 186.248 432.405 186.715C433.327 187.125 434.213 187.611 435.054 188.169C435.733 188.61 436.329 189.167 436.815 189.814C437.243 190.401 437.469 191.11 437.462 191.836C437.466 192.38 437.326 192.916 437.057 193.389C436.758 193.897 436.337 194.323 435.833 194.629C435.203 195.014 434.513 195.291 433.792 195.45C432.852 195.66 431.891 195.759 430.928 195.746C429.039 195.742 427.165 195.409 425.391 194.761C423.537 194.092 421.817 193.097 420.314 191.822ZM405.818 170.34H417.068V163.233H385.701V170.34H396.9V201.992H405.818V170.34Z" fill="white"/>
<path d="M16.5994 201.503L10.2797 130.625H79.7203L73.3922 201.492L44.9578 209.375L16.5994 201.503Z" fill="#E44F26"/>
<path d="M45 203.351L67.9781 196.98L73.3837 136.422H45V203.351Z" fill="#F1662A"/>
<path d="M45 162.707H33.4969L32.7038 153.806H45V145.112H23.2031L23.4113 147.447L25.5459 171.401H45V162.707ZM45 185.283L44.9606 185.294L35.28 182.682L34.6613 175.749H25.9341L27.1519 189.395L44.9606 194.339L45 194.328V185.283Z" fill="#EBEBEB"/>
<path d="M44.9691 162.707V171.401H55.6734L54.6666 182.676L44.9691 185.292V194.337L62.7919 189.395L62.9212 187.927L64.9631 165.042L65.1769 162.707H44.9691ZM44.9691 145.112V153.806H65.9672L66.1416 151.854L66.5381 147.447L66.7462 145.112H44.9691Z" fill="white"/>
<path d="M402.755 272.25H413.906V323.35C409.146 324.327 404.301 324.831 399.442 324.855C385.823 324.841 378.736 318.757 378.736 307.074C378.736 295.824 386.254 288.512 397.906 288.512C399.54 288.48 401.171 288.669 402.755 289.074V272.25ZM402.755 297.962C401.542 297.562 400.271 297.372 398.994 297.399C393.369 297.399 390.098 300.839 390.098 306.866C390.098 312.736 393.212 315.976 398.924 315.976C400.206 315.976 401.486 315.882 402.755 315.695V297.976V297.962Z" fill="#44B78B"/>
<path d="M431.625 289.291V314.885C431.625 323.696 430.964 327.932 429.029 331.585C427.054 335.3 423.825 338.193 419.917 339.75L409.572 334.876C413.33 333.589 416.478 330.955 418.406 327.482C419.998 324.329 420.502 320.676 420.502 311.065V289.291H431.625ZM420.49 272.306H431.639V283.635H420.49V272.306Z" fill="#44B78B"/>
<path d="M537 176.958C540.883 176.958 544.031 173.81 544.031 169.927C544.031 166.044 540.883 162.896 537 162.896C533.117 162.896 529.969 166.044 529.969 169.927C529.969 173.81 533.117 176.958 537 176.958Z" fill="#007ACC"/>
<path d="M537 186.048C528.549 186.253 520.119 185.113 512.025 182.673C508.286 181.488 504.799 179.621 501.74 177.166C500.572 176.328 499.6 175.247 498.89 173.997C498.18 172.747 497.748 171.359 497.625 169.927C497.625 165.278 502.732 160.722 511.288 157.74C519.598 155.099 528.281 153.818 537 153.949C545.603 153.829 554.169 155.086 562.374 157.673C565.975 158.821 569.344 160.598 572.325 162.921C573.472 163.72 574.43 164.762 575.13 165.973C575.83 167.184 576.255 168.534 576.375 169.927C576.375 174.759 570.666 179.655 561.469 182.698C553.532 185.059 545.28 186.189 537 186.048ZM537 157.313C528.658 157.201 520.352 158.418 512.393 160.918C504.518 163.666 500.989 167.424 500.989 169.918C500.989 172.528 504.783 176.632 513.113 179.481C520.856 181.804 528.919 182.885 537 182.684C544.921 182.826 552.817 181.754 560.414 179.506C569.063 176.64 573 172.531 573 169.927C572.858 169.033 572.532 168.179 572.043 167.417C571.555 166.656 570.913 166.004 570.159 165.503C567.492 163.442 564.483 161.867 561.269 160.851C553.419 158.386 545.226 157.192 537 157.313Z" fill="#007ACC"/>
<path d="M521.025 204.996C519.713 205.026 518.416 204.708 517.268 204.073C513.24 201.75 511.845 195.051 513.535 186.149C515.399 177.631 518.628 169.469 523.098 161.982C527.29 154.47 532.658 147.677 538.997 141.861C541.79 139.315 545.012 137.284 548.514 135.862C549.781 135.268 551.163 134.961 552.562 134.961C553.96 134.961 555.342 135.268 556.609 135.862C560.797 138.275 562.183 145.666 560.228 155.153C558.307 163.209 555.162 170.924 550.902 178.027C546.857 185.45 541.659 192.184 535.501 197.976C532.606 200.622 529.247 202.709 525.593 204.133C524.129 204.676 522.585 204.967 521.025 204.996ZM526.012 163.652C521.748 170.822 518.653 178.625 516.843 186.768C515.288 194.967 516.781 199.897 518.952 201.151C521.202 202.453 526.664 201.219 533.296 195.425C539.174 189.876 544.136 183.43 547.997 176.328C552.078 169.537 555.095 162.162 556.943 154.458C558.783 145.528 557.194 140.061 554.938 138.762C554.093 138.438 553.189 138.293 552.285 138.336C551.381 138.379 550.495 138.609 549.684 139.012C546.567 140.298 543.701 142.124 541.219 144.406C535.163 149.977 530.035 156.48 526.031 163.669L526.012 163.652Z" fill="#007ACC"/>
<path d="M552.967 205.033C549.156 205.033 544.315 202.726 539.275 198.392C532.825 192.523 527.367 185.65 523.112 178.038C518.698 170.654 515.495 162.61 513.623 154.213C512.811 150.519 512.66 146.71 513.178 142.963C513.298 141.574 513.721 140.227 514.418 139.018C515.115 137.81 516.068 136.769 517.211 135.969C521.393 133.547 528.489 136.036 535.732 142.466C541.752 148.153 546.865 154.73 550.891 161.968C555.302 169.18 558.539 177.047 560.482 185.275C561.328 189.104 561.459 193.058 560.867 196.935C560.726 198.365 560.278 199.748 559.552 200.988C558.827 202.228 557.842 203.297 556.665 204.121C555.535 204.748 554.258 205.062 552.967 205.033ZM526.023 176.345C530.105 183.619 535.319 190.198 541.469 195.833C547.794 201.275 552.812 202.445 554.969 201.177C557.219 199.869 558.878 194.531 557.168 185.893C555.295 178.038 552.19 170.528 547.969 163.644C544.126 156.717 539.246 150.419 533.498 144.969C526.681 138.916 521.152 137.563 518.899 138.868C518.197 139.439 517.62 140.149 517.206 140.954C516.793 141.758 516.55 142.64 516.494 143.543C516.047 146.884 516.193 150.278 516.924 153.569C518.725 161.599 521.798 169.29 526.026 176.351L526.023 176.345Z" fill="#007ACC"/>
<path d="M6.99879 261C6.84626 261.002 6.69624 261.039 6.55987 261.107C6.42351 261.174 6.30433 261.272 6.21117 261.391C6.11802 261.511 6.0533 261.65 6.02183 261.798C5.99036 261.945 5.99294 262.098 6.02939 262.245L16.9881 306.18C16.9968 306.231 17.0095 306.281 17.026 306.33L27.9696 350.236C28.0124 350.407 28.1002 350.565 28.2241 350.692C28.3481 350.82 28.5038 350.912 28.6755 350.961C28.8473 351.01 29.0289 351.013 29.2022 350.97C29.3754 350.927 29.5341 350.839 29.6622 350.716L95.6911 287.813C95.8188 287.69 95.9119 287.537 95.9608 287.367C96.0098 287.198 96.0129 287.019 95.97 286.848C95.927 286.677 95.8394 286.52 95.7161 286.394C95.5927 286.267 95.4378 286.174 95.267 286.125L73.3646 279.874C73.2224 279.794 73.0626 279.749 72.8989 279.743L29.719 267.431C29.5553 267.331 29.3662 267.279 29.1738 267.281L7.28658 261.038C7.19296 261.011 7.09604 260.999 6.99879 261ZM8.41502 263.453L27.1819 268.8L13.0954 282.24L8.41502 263.453ZM30.59 269.775L49.0085 275.025L35.187 288.207L30.59 269.775ZM28.6133 270.225L33.2217 288.698L14.754 283.448L28.6133 270.225ZM52.3939 275.993L70.8654 281.258L56.9985 294.495L52.3939 275.993ZM50.4248 276.48L54.9991 294.855L36.6222 289.635L50.4248 276.48ZM74.281 282.233L93.0139 287.573L78.9462 300.975L74.281 282.233ZM72.2968 282.683L76.8976 301.155L58.4337 295.913L72.2968 282.683ZM13.8603 285.293L32.6575 290.633L18.5483 304.08L13.8603 285.293ZM36.0315 291.563L54.4993 296.813L40.6399 310.039L36.0315 291.563ZM34.07 292.077L38.7503 310.89L19.9569 305.52L34.07 292.077ZM57.8278 297.833L76.6288 303.177L62.5044 316.624L57.8278 297.833ZM55.8587 298.309L60.5353 317.104L41.7608 311.742L55.8587 298.309ZM19.3927 307.452L37.8453 312.724L24.0011 325.935L19.3927 307.452ZM41.5601 313.778L59.9748 319.039L46.1609 332.202L41.5601 313.778ZM39.5153 313.928L44.1123 332.404L25.6521 327.154L39.5153 313.928ZM24.7622 329.003L43.8359 334.411L29.5146 348.053L24.7622 329.003Z" fill="#555555"/>
<path d="M139.599 201.503L133.283 130.625H202.718L196.392 201.492L167.958 209.375L139.599 201.503Z" fill="#1572B6"/>
<path d="M168 203.351L190.978 196.98L196.384 136.422H168V203.351Z" fill="#33A9DC"/>
<path d="M168 162.1H179.503L180.296 153.198H168V144.505H189.797L189.589 146.836L187.454 170.793H168V162.1Z" fill="white"/>
<path d="M168.053 184.676L168.014 184.687L158.333 182.071L157.715 175.138H148.988L150.205 188.787L168.011 193.732L168.053 193.721V184.676Z" fill="#EBEBEB"/>
<path d="M178.763 170.425L177.717 182.066L168.022 184.681V193.726L185.842 188.787L185.975 187.319L187.485 170.425H178.763Z" fill="white"/>
<path d="M168.031 144.505V153.198H147.033L146.858 151.243L146.462 146.836L146.254 144.505H168.031ZM168 162.1V170.793H158.44L158.266 168.838L157.872 164.431L157.664 162.1H168Z" fill="#EBEBEB"/>
<g clip-path="url(#clip1_0_1)">
<path d="M553.203 316.65C556.302 316.33 558.654 313.659 558.547 310.455C558.44 307.25 555.768 304.687 552.561 304.687H552.348C549.034 304.794 546.469 307.571 546.575 310.882C546.682 312.484 547.324 313.873 548.286 314.834C544.651 321.991 539.093 327.225 530.756 331.604C525.091 334.595 519.212 335.663 513.333 334.915C508.523 334.274 504.782 332.138 502.43 328.613C499.01 323.379 498.689 317.718 501.575 312.057C503.606 307.998 506.813 305.007 508.844 303.512C508.416 302.123 507.775 299.773 507.454 298.065C491.955 309.28 493.559 324.448 498.262 331.604C501.789 336.945 508.951 340.256 516.86 340.256C518.998 340.256 521.136 340.042 523.274 339.509C536.956 336.838 547.324 328.72 553.203 316.65ZM572.015 303.405C563.892 293.899 551.92 288.665 538.238 288.665H536.528C535.566 286.742 533.535 285.46 531.29 285.46H531.076C527.763 285.567 525.198 288.344 525.305 291.656C525.412 294.86 528.084 297.424 531.29 297.424H531.504C533.856 297.317 535.887 295.821 536.742 293.792H538.666C546.789 293.792 554.485 296.142 561.433 300.735C566.778 304.26 570.626 308.853 572.763 314.407C574.58 318.893 574.474 323.272 572.549 327.011C569.557 332.672 564.533 335.77 557.906 335.77C553.63 335.77 549.569 334.488 547.431 333.527C546.255 334.595 544.117 336.304 542.62 337.372C547.217 339.508 551.92 340.683 556.409 340.683C566.671 340.683 574.26 335.022 577.146 329.361C580.246 323.166 580.032 312.484 572.015 303.405ZM517.715 318.466C517.822 321.67 520.495 324.233 523.701 324.233H523.915C527.229 324.127 529.794 321.35 529.687 318.038C529.58 314.834 526.908 312.27 523.701 312.27H523.488C523.274 312.27 522.953 312.27 522.739 312.377C518.357 305.114 516.54 297.21 517.181 288.665C517.608 282.256 519.746 276.701 523.488 272.108C526.587 268.156 532.573 266.233 536.635 266.127C547.965 265.913 552.775 280.012 553.096 285.674C554.485 285.994 556.837 286.742 558.44 287.276C557.157 269.972 546.469 261 536.207 261C526.587 261 517.715 267.943 514.188 278.197C509.271 291.869 512.478 305.007 518.464 315.368C517.929 316.116 517.608 317.29 517.715 318.466Z" fill="#764ABC"/>
</g>
<g clip-path="url(#clip2_0_1)">
<path d="M207.161 330.361C202.19 330.237 198.337 330.735 195.106 332.101C194.174 332.474 192.683 332.474 192.559 333.655C193.056 334.152 193.118 334.96 193.553 335.643C194.299 336.886 195.603 338.564 196.784 339.434C198.089 340.428 199.394 341.422 200.76 342.292C203.184 343.783 205.918 344.653 208.279 346.144C209.647 347.014 211.013 348.133 212.38 349.065C213.064 349.561 213.498 350.37 214.369 350.68V350.494C213.933 349.934 213.809 349.127 213.374 348.505C212.754 347.884 212.131 347.325 211.51 346.703C209.708 344.28 207.471 342.167 205.048 340.428C203.06 339.061 198.71 337.197 197.903 334.897C197.903 334.897 197.84 334.836 197.778 334.774C199.145 334.649 200.76 334.152 202.066 333.779C204.178 333.22 206.104 333.344 208.279 332.785C209.273 332.536 210.268 332.226 211.261 331.915V331.356C210.144 330.237 209.336 328.746 208.155 327.69C204.986 324.955 201.506 322.284 197.903 320.047C195.976 318.804 193.49 317.996 191.44 316.94C190.695 316.567 189.452 316.381 189.017 315.76C187.898 314.393 187.277 312.591 186.469 310.975C184.668 307.557 182.928 303.767 181.374 300.164C180.256 297.74 179.572 295.317 178.205 293.08C171.805 282.517 164.846 276.117 154.159 269.841C151.86 268.536 149.126 267.977 146.205 267.294C144.652 267.231 143.099 267.107 141.545 267.045C140.551 266.61 139.557 265.43 138.687 264.87C135.146 262.633 126.011 257.787 123.401 264.187C121.724 268.226 125.887 272.202 127.316 274.253C128.373 275.682 129.739 277.297 130.485 278.913C130.92 279.969 131.044 281.088 131.479 282.206C132.474 284.94 133.405 287.985 134.71 290.533C135.394 291.837 136.139 293.204 137.009 294.385C137.506 295.068 138.376 295.379 138.563 296.497C137.693 297.74 137.631 299.605 137.133 301.158C134.896 308.179 135.767 316.878 138.935 322.035C139.929 323.588 142.291 327.007 145.46 325.701C148.256 324.583 147.635 321.041 148.442 317.935C148.629 317.188 148.505 316.692 148.877 316.195V316.319C149.747 318.059 150.617 319.737 151.425 321.476C153.351 324.521 156.706 327.69 159.502 329.803C160.994 330.921 162.174 332.847 164.039 333.531V333.344H163.914C163.541 332.785 162.982 332.536 162.485 332.101C161.367 330.983 160.124 329.616 159.254 328.373C156.645 324.893 154.345 321.041 152.295 317.064C151.301 315.139 150.43 313.026 149.623 311.1C149.25 310.353 149.25 309.235 148.629 308.863C147.696 310.23 146.33 311.41 145.646 313.088C144.466 315.76 144.341 319.053 143.906 322.47C143.658 322.533 143.782 322.47 143.657 322.595C141.67 322.097 140.986 320.047 140.24 318.307C138.376 313.896 138.065 306.812 139.681 301.717C140.116 300.412 141.98 296.311 141.235 295.069C140.862 293.888 139.619 293.204 138.935 292.272C138.128 291.092 137.257 289.601 136.699 288.296C135.207 284.816 134.461 280.964 132.846 277.484C132.1 275.868 130.796 274.191 129.739 272.7C128.559 271.022 127.254 269.841 126.322 267.853C126.011 267.17 125.576 266.051 126.073 265.305C126.197 264.808 126.446 264.622 126.943 264.498C127.751 263.814 130.05 264.684 130.857 265.057C133.157 265.988 135.083 266.859 137.009 268.164C137.879 268.785 138.811 269.966 139.929 270.276H141.234C143.223 270.711 145.459 270.401 147.324 270.96C150.617 272.016 153.599 273.569 156.271 275.247C164.411 280.404 171.121 287.736 175.658 296.497C176.404 297.926 176.714 299.232 177.398 300.722C178.703 303.767 180.318 306.874 181.623 309.857C182.928 312.777 184.17 315.76 186.034 318.183C186.966 319.487 190.694 320.171 192.372 320.855C193.615 321.414 195.541 321.911 196.66 322.595C198.772 323.899 200.885 325.391 202.873 326.82C203.868 327.565 206.974 329.119 207.161 330.361Z" fill="#00546B"/>
<path d="M143.781 276.365C142.725 276.365 141.98 276.49 141.234 276.676V276.8H141.359C141.856 277.795 142.725 278.478 143.346 279.348C143.844 280.342 144.279 281.336 144.776 282.331C144.838 282.268 144.9 282.206 144.9 282.206C145.77 281.585 146.205 280.591 146.205 279.099C145.832 278.665 145.77 278.23 145.459 277.795C145.087 277.173 144.279 276.862 143.781 276.365Z" fill="#00546B"/>
</g>
<defs>
<linearGradient id="paint0_linear_0_1" x1="259.408" y1="274.564" x2="296.776" y2="311.848" gradientUnits="userSpaceOnUse">
<stop stop-color="#387EB8"/>
<stop offset="1" stop-color="#366994"/>
</linearGradient>
<linearGradient id="paint1_linear_0_1" x1="281.515" y1="298.852" x2="324.209" y2="336.125" gradientUnits="userSpaceOnUse">
<stop stop-color="#FFE052"/>
<stop offset="1" stop-color="#FFC331"/>
</linearGradient>
<clipPath id="clip0_0_1">
<rect width="90" height="90" fill="white" transform="translate(246 125)"/>
</clipPath>
<clipPath id="clip1_0_1">
<rect width="84" height="80" fill="white" transform="translate(495 261)"/>
</clipPath>
<clipPath id="clip2_0_1">
<rect width="91.43" height="90" fill="white" transform="translate(123 261)"/>
</clipPath>
</defs>
</svg>
