<svg width="582" height="327" viewBox="0 0 582 327" fill="none" xmlns="http://www.w3.org/2000/svg">
<path d="M241.679 8.90625C241.546 7.66572 240.988 6.69981 240.003 6.00852C239.027 5.31723 237.759 4.97159 236.196 4.97159C235.098 4.97159 234.155 5.13731 233.369 5.46875C232.583 5.80019 231.982 6.25 231.565 6.81818C231.149 7.38636 230.936 8.03504 230.926 8.7642C230.926 9.37027 231.063 9.89583 231.338 10.3409C231.622 10.786 232.006 11.1648 232.489 11.4773C232.972 11.7803 233.507 12.036 234.094 12.2443C234.681 12.4527 235.273 12.6278 235.869 12.7699L238.597 13.4517C239.695 13.7074 240.751 14.053 241.764 14.4886C242.787 14.9242 243.701 15.4735 244.506 16.1364C245.32 16.7992 245.964 17.5994 246.438 18.5369C246.911 19.4744 247.148 20.5729 247.148 21.8324C247.148 23.5369 246.712 25.0379 245.841 26.3352C244.97 27.6231 243.71 28.6316 242.062 29.3608C240.424 30.0805 238.44 30.4403 236.111 30.4403C233.848 30.4403 231.883 30.09 230.216 29.3892C228.559 28.6884 227.261 27.6657 226.324 26.321C225.396 24.9763 224.894 23.3381 224.818 21.4062H230.003C230.079 22.4195 230.391 23.2623 230.94 23.9347C231.49 24.607 232.205 25.1089 233.085 25.4403C233.975 25.7718 234.97 25.9375 236.068 25.9375C237.214 25.9375 238.218 25.767 239.08 25.4261C239.951 25.0758 240.633 24.5928 241.125 23.9773C241.617 23.3523 241.868 22.6231 241.878 21.7898C241.868 21.0322 241.646 20.4072 241.21 19.9148C240.775 19.4129 240.164 18.9962 239.378 18.6648C238.601 18.3239 237.692 18.0208 236.651 17.7557L233.341 16.9034C230.945 16.2879 229.051 15.3551 227.659 14.1051C226.277 12.8456 225.585 11.1742 225.585 9.09091C225.585 7.37689 226.049 5.87595 226.977 4.58807C227.915 3.30019 229.188 2.30114 230.798 1.59091C232.408 0.871211 234.231 0.511363 236.267 0.511363C238.331 0.511363 240.14 0.871211 241.693 1.59091C243.256 2.30114 244.482 3.29072 245.372 4.55966C246.262 5.81913 246.722 7.26799 246.75 8.90625H241.679ZM251.846 30V0.90909H257.116V14.2756H257.471L268.82 0.90909H275.255L264.005 13.9631L275.354 30H269.019L260.34 17.5284L257.116 21.3352V30H251.846ZM284.186 0.90909V30H278.916V0.90909H284.186ZM289.893 30V0.90909H295.163V25.5824H307.975V30H289.893ZM312.549 30V0.90909H317.819V25.5824H330.631V30H312.549ZM351.015 8.90625C350.882 7.66572 350.324 6.69981 349.339 6.00852C348.363 5.31723 347.094 4.97159 345.532 4.97159C344.433 4.97159 343.491 5.13731 342.705 5.46875C341.919 5.80019 341.318 6.25 340.901 6.81818C340.485 7.38636 340.272 8.03504 340.262 8.7642C340.262 9.37027 340.399 9.89583 340.674 10.3409C340.958 10.786 341.342 11.1648 341.825 11.4773C342.308 11.7803 342.843 12.036 343.43 12.2443C344.017 12.4527 344.609 12.6278 345.205 12.7699L347.933 13.4517C349.031 13.7074 350.087 14.053 351.1 14.4886C352.123 14.9242 353.037 15.4735 353.842 16.1364C354.656 16.7992 355.3 17.5994 355.773 18.5369C356.247 19.4744 356.484 20.5729 356.484 21.8324C356.484 23.5369 356.048 25.0379 355.177 26.3352C354.306 27.6231 353.046 28.6316 351.398 29.3608C349.76 30.0805 347.776 30.4403 345.447 30.4403C343.183 30.4403 341.219 30.09 339.552 29.3892C337.895 28.6884 336.597 27.6657 335.66 26.321C334.732 24.9763 334.23 23.3381 334.154 21.4062H339.339C339.415 22.4195 339.727 23.2623 340.276 23.9347C340.826 24.607 341.54 25.1089 342.421 25.4403C343.311 25.7718 344.306 25.9375 345.404 25.9375C346.55 25.9375 347.554 25.767 348.415 25.4261C349.287 25.0758 349.969 24.5928 350.461 23.9773C350.953 23.3523 351.204 22.6231 351.214 21.7898C351.204 21.0322 350.982 20.4072 350.546 19.9148C350.111 19.4129 349.5 18.9962 348.714 18.6648C347.937 18.3239 347.028 18.0208 345.987 17.7557L342.677 16.9034C340.281 16.2879 338.387 15.3551 336.995 14.1051C335.612 12.8456 334.921 11.1742 334.921 9.09091C334.921 7.37689 335.385 5.87595 336.313 4.58807C337.251 3.30019 338.524 2.30114 340.134 1.59091C341.744 0.871211 343.567 0.511363 345.603 0.511363C347.667 0.511363 349.476 0.871211 351.029 1.59091C352.592 2.30114 353.818 3.29072 354.708 4.55966C355.598 5.81913 356.058 7.26799 356.086 8.90625H351.015Z" fill="black"/>
<path d="M290.677 242.906C270.708 242.906 271.971 251.541 271.971 251.541V260.512H290.961V263.325H264.408C264.408 263.325 251.625 261.75 251.625 282.014C251.625 302.278 262.912 301.454 262.912 301.454H269.428V292.001C269.428 292.001 269.062 280.715 280.397 280.715H299.415C299.415 280.715 310.024 280.883 310.024 270.443V253.312C310.024 253.312 311.632 242.872 290.781 242.872L290.677 242.906ZM280.18 248.917C280.855 248.9 281.52 249.083 282.091 249.444C282.662 249.805 283.113 250.327 283.387 250.944C283.661 251.561 283.746 252.246 283.631 252.912C283.516 253.577 283.206 254.193 282.741 254.683C282.275 255.172 281.675 255.513 281.016 255.661C280.358 255.809 279.67 255.759 279.039 255.516C278.409 255.273 277.865 254.849 277.476 254.297C277.087 253.745 276.87 253.09 276.853 252.415V252.359C276.853 251.454 277.213 250.585 277.853 249.945C278.493 249.304 279.362 248.945 280.267 248.945L280.18 248.917Z" fill="url(#paint0_linear_0_1)"/>
<path d="M291.239 321.122C311.208 321.122 309.945 312.459 309.945 312.459V303.516H290.958V300.703H317.592C317.592 300.703 330.375 302.132 330.375 281.986C330.375 261.84 319.088 262.546 319.088 262.546H312.487V271.875C312.487 271.875 312.853 283.162 301.519 283.162H282.492C282.492 283.162 271.875 283.001 271.875 293.441V310.687C271.875 310.687 270.266 321.127 291.118 321.127H291.231L291.239 321.122ZM301.735 315.083C301.06 315.1 300.395 314.917 299.824 314.556C299.254 314.195 298.803 313.673 298.529 313.056C298.255 312.439 298.17 311.754 298.285 311.088C298.4 310.423 298.71 309.807 299.175 309.317C299.64 308.828 300.24 308.487 300.899 308.339C301.558 308.191 302.246 308.241 302.876 308.484C303.507 308.727 304.051 309.151 304.44 309.703C304.829 310.255 305.046 310.91 305.063 311.585V311.669C305.063 312.575 304.703 313.443 304.062 314.083C303.422 314.724 302.554 315.083 301.648 315.083H301.735Z" fill="url(#paint1_linear_0_1)"/>
<g clip-path="url(#clip0_0_1)">
<path d="M246 101H336V191H246V101Z" fill="#F7DF1E"/>
<path d="M269.664 176.21L276.551 172.042C277.88 174.398 279.089 176.392 281.988 176.392C284.768 176.392 286.52 175.305 286.52 171.076V142.319H294.978V171.195C294.978 179.955 289.843 183.943 282.351 183.943C275.585 183.943 271.658 180.439 269.664 176.21M299.571 175.304L306.458 171.317C308.271 174.278 310.627 176.452 314.795 176.452C318.3 176.452 320.534 174.7 320.534 172.284C320.534 169.384 318.239 168.357 314.372 166.666L312.258 165.759C306.156 163.162 302.109 159.899 302.109 153.012C302.109 146.668 306.942 141.835 314.494 141.835C319.87 141.835 323.737 143.708 326.516 148.602L319.93 152.831C318.48 150.233 316.91 149.206 314.493 149.206C312.016 149.206 310.445 150.777 310.445 152.831C310.445 155.368 312.016 156.396 315.641 157.966L317.755 158.872C324.944 161.954 328.992 165.095 328.992 172.163C328.992 179.776 323.011 183.944 314.976 183.944C307.123 183.944 302.048 180.198 299.571 175.305" fill="black"/>
</g>
<path d="M449.685 106.625H378.315C376.277 106.625 374.625 108.277 374.625 110.315V181.685C374.625 183.723 376.277 185.375 378.315 185.375H449.685C451.723 185.375 453.375 183.723 453.375 181.685V110.315C453.375 108.277 451.723 106.625 449.685 106.625Z" fill="#3178C6"/>
<path fill-rule="evenodd" clip-rule="evenodd" d="M420.314 167.822V176.451C421.882 177.225 423.553 177.769 425.275 178.068C427.266 178.436 429.287 178.616 431.311 178.608C433.284 178.618 435.252 178.419 437.183 178.015C438.917 177.664 440.572 176.997 442.063 176.046C443.448 175.152 444.589 173.929 445.385 172.485C446.81 169.497 446.998 166.066 445.908 162.94C445.448 161.77 444.763 160.703 443.891 159.798C442.956 158.836 441.893 158.006 440.733 157.332C439.397 156.549 438.009 155.859 436.579 155.267C435.454 154.8 434.441 154.347 433.541 153.906C432.742 153.523 431.977 153.072 431.255 152.559C430.689 152.162 430.198 151.669 429.803 151.102C429.463 150.587 429.285 149.981 429.294 149.364C429.287 148.796 429.445 148.237 429.75 147.758C430.081 147.256 430.523 146.836 431.041 146.532C431.675 146.159 432.364 145.89 433.083 145.736C433.965 145.54 434.868 145.445 435.772 145.454C436.532 145.457 437.291 145.511 438.044 145.618C438.857 145.727 439.662 145.894 440.452 146.115C441.255 146.338 442.041 146.62 442.803 146.959C443.542 147.289 444.249 147.686 444.915 148.146V140.094C443.529 139.569 442.091 139.192 440.626 138.969C438.857 138.711 437.07 138.59 435.282 138.606C433.328 138.595 431.379 138.817 429.477 139.267C427.758 139.66 426.123 140.358 424.651 141.328C423.283 142.24 422.154 143.465 421.357 144.903C420.514 146.5 420.096 148.287 420.145 150.092C420.083 152.479 420.869 154.811 422.364 156.673C424.199 158.738 426.512 160.321 429.1 161.283C430.282 161.771 431.383 162.248 432.405 162.715C433.327 163.125 434.213 163.611 435.054 164.169C435.733 164.61 436.329 165.167 436.815 165.814C437.243 166.401 437.469 167.11 437.462 167.836C437.466 168.38 437.326 168.916 437.057 169.389C436.758 169.897 436.337 170.323 435.833 170.629C435.203 171.014 434.513 171.291 433.792 171.45C432.852 171.66 431.891 171.759 430.928 171.746C429.039 171.742 427.165 171.409 425.391 170.761C423.537 170.092 421.817 169.097 420.314 167.822ZM405.818 146.34H417.068V139.233H385.701V146.34H396.9V177.992H405.818V146.34Z" fill="white"/>
<path d="M16.5994 177.503L10.2797 106.625H79.7203L73.3922 177.492L44.9578 185.375L16.5994 177.503Z" fill="#E44F26"/>
<path d="M45 179.351L67.9781 172.98L73.3837 112.422H45V179.351Z" fill="#F1662A"/>
<path d="M45 138.707H33.4969L32.7038 129.806H45V121.112H23.2031L23.4113 123.447L25.5459 147.401H45V138.707ZM45 161.283L44.9606 161.294L35.28 158.682L34.6613 151.749H25.9341L27.1519 165.395L44.9606 170.339L45 170.328V161.283Z" fill="#EBEBEB"/>
<path d="M44.9691 138.707V147.401H55.6734L54.6666 158.676L44.9691 161.292V170.337L62.7919 165.395L62.9212 163.927L64.9631 141.042L65.1769 138.707H44.9691ZM44.9691 121.112V129.806H65.9672L66.1416 127.854L66.5381 123.447L66.7462 121.112H44.9691Z" fill="white"/>
<path d="M402.755 248.25H413.906V299.35C409.146 300.327 404.301 300.831 399.442 300.855C385.823 300.841 378.736 294.757 378.736 283.074C378.736 271.824 386.254 264.512 397.906 264.512C399.54 264.48 401.171 264.669 402.755 265.074V248.25ZM402.755 273.962C401.542 273.562 400.271 273.372 398.994 273.399C393.369 273.399 390.098 276.839 390.098 282.866C390.098 288.736 393.212 291.976 398.924 291.976C400.206 291.976 401.486 291.882 402.755 291.695V273.976V273.962Z" fill="#44B78B"/>
<path d="M431.625 265.291V290.885C431.625 299.696 430.964 303.932 429.029 307.585C427.054 311.3 423.825 314.193 419.917 315.75L409.572 310.876C413.33 309.589 416.478 306.955 418.406 303.482C419.998 300.329 420.502 296.676 420.502 287.065V265.291H431.625ZM420.49 248.306H431.639V259.635H420.49V248.306Z" fill="#44B78B"/>
<path d="M537 152.958C540.883 152.958 544.031 149.81 544.031 145.927C544.031 142.044 540.883 138.896 537 138.896C533.117 138.896 529.969 142.044 529.969 145.927C529.969 149.81 533.117 152.958 537 152.958Z" fill="#007ACC"/>
<path d="M537 162.048C528.549 162.253 520.119 161.113 512.025 158.673C508.286 157.488 504.799 155.621 501.74 153.166C500.572 152.328 499.6 151.247 498.89 149.997C498.18 148.747 497.748 147.359 497.625 145.927C497.625 141.278 502.732 136.722 511.288 133.74C519.598 131.099 528.281 129.818 537 129.949C545.603 129.829 554.169 131.086 562.374 133.673C565.975 134.821 569.344 136.598 572.325 138.921C573.472 139.72 574.43 140.762 575.13 141.973C575.83 143.184 576.255 144.534 576.375 145.927C576.375 150.759 570.666 155.655 561.469 158.698C553.532 161.059 545.28 162.189 537 162.048ZM537 133.313C528.658 133.201 520.352 134.418 512.393 136.918C504.518 139.666 500.989 143.424 500.989 145.918C500.989 148.528 504.783 152.632 513.113 155.481C520.856 157.804 528.919 158.885 537 158.684C544.921 158.826 552.817 157.754 560.414 155.506C569.063 152.64 573 148.531 573 145.927C572.858 145.033 572.532 144.179 572.043 143.417C571.555 142.656 570.913 142.004 570.159 141.503C567.492 139.442 564.483 137.867 561.269 136.851C553.419 134.386 545.226 133.192 537 133.313Z" fill="#007ACC"/>
<path d="M521.025 180.996C519.713 181.026 518.416 180.708 517.268 180.073C513.24 177.75 511.845 171.051 513.535 162.149C515.399 153.631 518.628 145.469 523.098 137.982C527.29 130.47 532.658 123.677 538.997 117.861C541.79 115.315 545.012 113.284 548.514 111.862C549.781 111.268 551.163 110.961 552.562 110.961C553.96 110.961 555.342 111.268 556.609 111.862C560.797 114.275 562.183 121.666 560.228 131.153C558.307 139.209 555.162 146.924 550.902 154.027C546.857 161.45 541.659 168.184 535.501 173.976C532.606 176.622 529.247 178.709 525.593 180.133C524.129 180.676 522.585 180.967 521.025 180.996ZM526.012 139.652C521.748 146.822 518.653 154.625 516.843 162.768C515.288 170.967 516.781 175.897 518.952 177.151C521.202 178.453 526.664 177.219 533.296 171.425C539.174 165.876 544.136 159.43 547.997 152.328C552.078 145.537 555.095 138.162 556.943 130.458C558.783 121.528 557.194 116.061 554.938 114.762C554.093 114.438 553.189 114.293 552.285 114.336C551.381 114.379 550.495 114.609 549.684 115.012C546.567 116.298 543.701 118.124 541.219 120.406C535.163 125.977 530.035 132.48 526.031 139.669L526.012 139.652Z" fill="#007ACC"/>
<path d="M552.967 181.033C549.156 181.033 544.315 178.726 539.275 174.392C532.825 168.523 527.367 161.65 523.112 154.038C518.698 146.654 515.495 138.61 513.623 130.213C512.811 126.519 512.66 122.71 513.178 118.963C513.298 117.574 513.721 116.227 514.418 115.018C515.115 113.81 516.068 112.769 517.211 111.969C521.393 109.547 528.489 112.036 535.732 118.466C541.752 124.153 546.865 130.73 550.891 137.968C555.302 145.18 558.539 153.047 560.482 161.275C561.328 165.104 561.459 169.058 560.867 172.935C560.726 174.365 560.278 175.748 559.552 176.988C558.827 178.228 557.842 179.297 556.665 180.121C555.535 180.748 554.258 181.062 552.967 181.033ZM526.023 152.345C530.105 159.619 535.319 166.198 541.469 171.833C547.794 177.275 552.812 178.445 554.969 177.177C557.219 175.869 558.878 170.531 557.168 161.893C555.295 154.038 552.19 146.528 547.969 139.644C544.126 132.717 539.246 126.419 533.498 120.969C526.681 114.916 521.152 113.563 518.899 114.868C518.197 115.439 517.62 116.149 517.206 116.954C516.793 117.758 516.55 118.64 516.494 119.543C516.047 122.884 516.193 126.278 516.924 129.569C518.725 137.599 521.798 145.29 526.026 152.351L526.023 152.345Z" fill="#007ACC"/>
<path d="M6.99879 237C6.84626 237.002 6.69624 237.039 6.55987 237.107C6.42351 237.174 6.30433 237.272 6.21117 237.391C6.11802 237.511 6.0533 237.65 6.02183 237.798C5.99036 237.945 5.99294 238.098 6.02939 238.245L16.9881 282.18C16.9968 282.231 17.0095 282.281 17.026 282.33L27.9696 326.236C28.0124 326.407 28.1002 326.565 28.2241 326.692C28.3481 326.82 28.5038 326.912 28.6755 326.961C28.8473 327.01 29.0289 327.013 29.2022 326.97C29.3754 326.927 29.5341 326.839 29.6622 326.716L95.6911 263.813C95.8188 263.69 95.9119 263.537 95.9608 263.367C96.0098 263.198 96.0129 263.019 95.97 262.848C95.927 262.677 95.8394 262.52 95.7161 262.394C95.5927 262.267 95.4378 262.174 95.267 262.125L73.3646 255.874C73.2224 255.794 73.0626 255.749 72.8989 255.743L29.719 243.431C29.5553 243.331 29.3662 243.279 29.1738 243.281L7.28658 237.038C7.19296 237.011 7.09604 236.999 6.99879 237ZM8.41502 239.453L27.1819 244.8L13.0954 258.24L8.41502 239.453ZM30.59 245.775L49.0085 251.025L35.187 264.207L30.59 245.775ZM28.6133 246.225L33.2217 264.698L14.754 259.448L28.6133 246.225ZM52.3939 251.993L70.8654 257.258L56.9985 270.495L52.3939 251.993ZM50.4248 252.48L54.9991 270.855L36.6222 265.635L50.4248 252.48ZM74.281 258.233L93.0139 263.573L78.9462 276.975L74.281 258.233ZM72.2968 258.683L76.8976 277.155L58.4337 271.913L72.2968 258.683ZM13.8603 261.293L32.6575 266.633L18.5483 280.08L13.8603 261.293ZM36.0315 267.563L54.4993 272.813L40.6399 286.039L36.0315 267.563ZM34.07 268.077L38.7503 286.89L19.9569 281.52L34.07 268.077ZM57.8278 273.833L76.6288 279.177L62.5044 292.624L57.8278 273.833ZM55.8587 274.309L60.5353 293.104L41.7608 287.742L55.8587 274.309ZM19.3927 283.452L37.8453 288.724L24.0011 301.935L19.3927 283.452ZM41.5601 289.778L59.9748 295.039L46.1609 308.202L41.5601 289.778ZM39.5153 289.928L44.1123 308.404L25.6521 303.154L39.5153 289.928ZM24.7622 305.003L43.8359 310.411L29.5146 324.053L24.7622 305.003Z" fill="#555555"/>
<path d="M139.599 177.503L133.283 106.625H202.718L196.392 177.492L167.958 185.375L139.599 177.503Z" fill="#1572B6"/>
<path d="M168 179.351L190.978 172.98L196.384 112.422H168V179.351Z" fill="#33A9DC"/>
<path d="M168 138.1H179.503L180.296 129.198H168V120.505H189.797L189.589 122.836L187.454 146.793H168V138.1Z" fill="white"/>
<path d="M168.053 160.676L168.014 160.687L158.333 158.071L157.715 151.138H148.988L150.205 164.787L168.011 169.732L168.053 169.721V160.676Z" fill="#EBEBEB"/>
<path d="M178.763 146.425L177.717 158.066L168.022 160.681V169.726L185.842 164.787L185.975 163.319L187.485 146.425H178.763Z" fill="white"/>
<path d="M168.031 120.505V129.198H147.033L146.858 127.243L146.462 122.836L146.254 120.505H168.031ZM168 138.1V146.793H158.44L158.266 144.838L157.872 140.431L157.664 138.1H168Z" fill="#EBEBEB"/>
<g clip-path="url(#clip1_0_1)">
<path d="M553.203 292.65C556.302 292.33 558.654 289.659 558.547 286.455C558.44 283.25 555.768 280.687 552.561 280.687H552.348C549.034 280.794 546.469 283.571 546.575 286.882C546.682 288.484 547.324 289.873 548.286 290.834C544.651 297.991 539.093 303.225 530.756 307.604C525.091 310.595 519.212 311.663 513.333 310.915C508.523 310.274 504.782 308.138 502.43 304.613C499.01 299.379 498.689 293.718 501.575 288.057C503.606 283.998 506.813 281.007 508.844 279.512C508.416 278.123 507.775 275.773 507.454 274.065C491.955 285.28 493.559 300.448 498.262 307.604C501.789 312.945 508.951 316.256 516.86 316.256C518.998 316.256 521.136 316.042 523.274 315.509C536.956 312.838 547.324 304.72 553.203 292.65ZM572.015 279.405C563.892 269.899 551.92 264.665 538.238 264.665H536.528C535.566 262.742 533.535 261.46 531.29 261.46H531.076C527.763 261.567 525.198 264.344 525.305 267.656C525.412 270.86 528.084 273.424 531.29 273.424H531.504C533.856 273.317 535.887 271.821 536.742 269.792H538.666C546.789 269.792 554.485 272.142 561.433 276.735C566.778 280.26 570.626 284.853 572.763 290.407C574.58 294.893 574.474 299.272 572.549 303.011C569.557 308.672 564.533 311.77 557.906 311.77C553.63 311.77 549.569 310.488 547.431 309.527C546.255 310.595 544.117 312.304 542.62 313.372C547.217 315.508 551.92 316.683 556.409 316.683C566.671 316.683 574.26 311.022 577.146 305.361C580.246 299.166 580.032 288.484 572.015 279.405ZM517.715 294.466C517.822 297.67 520.495 300.233 523.701 300.233H523.915C527.229 300.127 529.794 297.35 529.687 294.038C529.58 290.834 526.908 288.27 523.701 288.27H523.488C523.274 288.27 522.953 288.27 522.739 288.377C518.357 281.114 516.54 273.21 517.181 264.665C517.608 258.256 519.746 252.701 523.488 248.108C526.587 244.156 532.573 242.233 536.635 242.127C547.965 241.913 552.775 256.012 553.096 261.674C554.485 261.994 556.837 262.742 558.44 263.276C557.157 245.972 546.469 237 536.207 237C526.587 237 517.715 243.943 514.188 254.197C509.271 267.869 512.478 281.007 518.464 291.368C517.929 292.116 517.608 293.29 517.715 294.466Z" fill="#764ABC"/>
</g>
<g clip-path="url(#clip2_0_1)">
<path d="M207.161 306.361C202.19 306.237 198.337 306.735 195.106 308.101C194.174 308.474 192.683 308.474 192.559 309.655C193.056 310.152 193.118 310.96 193.553 311.643C194.299 312.886 195.603 314.564 196.784 315.434C198.089 316.428 199.394 317.422 200.76 318.292C203.184 319.783 205.918 320.653 208.279 322.144C209.647 323.014 211.013 324.133 212.38 325.065C213.064 325.561 213.498 326.37 214.369 326.68V326.494C213.933 325.934 213.809 325.127 213.374 324.505C212.754 323.884 212.131 323.325 211.51 322.703C209.708 320.28 207.471 318.167 205.048 316.428C203.06 315.061 198.71 313.197 197.903 310.897C197.903 310.897 197.84 310.836 197.778 310.774C199.145 310.649 200.76 310.152 202.066 309.779C204.178 309.22 206.104 309.344 208.279 308.785C209.273 308.536 210.268 308.226 211.261 307.915V307.356C210.144 306.237 209.336 304.746 208.155 303.69C204.986 300.955 201.506 298.284 197.903 296.047C195.976 294.804 193.49 293.996 191.44 292.94C190.695 292.567 189.452 292.381 189.017 291.76C187.898 290.393 187.277 288.591 186.469 286.975C184.668 283.557 182.928 279.767 181.374 276.164C180.256 273.74 179.572 271.317 178.205 269.08C171.805 258.517 164.846 252.117 154.159 245.841C151.86 244.536 149.126 243.977 146.205 243.294C144.652 243.231 143.099 243.107 141.545 243.045C140.551 242.61 139.557 241.43 138.687 240.87C135.146 238.633 126.011 233.787 123.401 240.187C121.724 244.226 125.887 248.202 127.316 250.253C128.373 251.682 129.739 253.297 130.485 254.913C130.92 255.969 131.044 257.088 131.479 258.206C132.474 260.94 133.405 263.985 134.71 266.533C135.394 267.837 136.139 269.204 137.009 270.385C137.506 271.068 138.376 271.379 138.563 272.497C137.693 273.74 137.631 275.605 137.133 277.158C134.896 284.179 135.767 292.878 138.935 298.035C139.929 299.588 142.291 303.007 145.46 301.701C148.256 300.583 147.635 297.041 148.442 293.935C148.629 293.188 148.505 292.692 148.877 292.195V292.319C149.747 294.059 150.617 295.737 151.425 297.476C153.351 300.521 156.706 303.69 159.502 305.803C160.994 306.921 162.174 308.847 164.039 309.531V309.344H163.914C163.541 308.785 162.982 308.536 162.485 308.101C161.367 306.983 160.124 305.616 159.254 304.373C156.645 300.893 154.345 297.041 152.295 293.064C151.301 291.139 150.43 289.026 149.623 287.1C149.25 286.353 149.25 285.235 148.629 284.863C147.696 286.23 146.33 287.41 145.646 289.088C144.466 291.76 144.341 295.053 143.906 298.47C143.658 298.533 143.782 298.47 143.657 298.595C141.67 298.097 140.986 296.047 140.24 294.307C138.376 289.896 138.065 282.812 139.681 277.717C140.116 276.412 141.98 272.311 141.235 271.069C140.862 269.888 139.619 269.204 138.935 268.272C138.128 267.092 137.257 265.601 136.699 264.296C135.207 260.816 134.461 256.964 132.846 253.484C132.1 251.868 130.796 250.191 129.739 248.7C128.559 247.022 127.254 245.841 126.322 243.853C126.011 243.17 125.576 242.051 126.073 241.305C126.197 240.808 126.446 240.622 126.943 240.498C127.751 239.814 130.05 240.684 130.857 241.057C133.157 241.988 135.083 242.859 137.009 244.164C137.879 244.785 138.811 245.966 139.929 246.276H141.234C143.223 246.711 145.459 246.401 147.324 246.96C150.617 248.016 153.599 249.569 156.271 251.247C164.411 256.404 171.121 263.736 175.658 272.497C176.404 273.926 176.714 275.232 177.398 276.722C178.703 279.767 180.318 282.874 181.623 285.857C182.928 288.777 184.17 291.76 186.034 294.183C186.966 295.487 190.694 296.171 192.372 296.855C193.615 297.414 195.541 297.911 196.66 298.595C198.772 299.899 200.885 301.391 202.873 302.82C203.868 303.565 206.974 305.119 207.161 306.361Z" fill="#00546B"/>
<path d="M143.781 252.365C142.725 252.365 141.98 252.49 141.234 252.676V252.8H141.359C141.856 253.795 142.725 254.478 143.346 255.348C143.844 256.342 144.279 257.336 144.776 258.331C144.838 258.268 144.9 258.206 144.9 258.206C145.77 257.585 146.205 256.591 146.205 255.099C145.832 254.665 145.77 254.23 145.459 253.795C145.087 253.173 144.279 252.862 143.781 252.365Z" fill="#00546B"/>
</g>
<defs>
<linearGradient id="paint0_linear_0_1" x1="259.408" y1="250.564" x2="296.776" y2="287.848" gradientUnits="userSpaceOnUse">
<stop stop-color="#387EB8"/>
<stop offset="1" stop-color="#366994"/>
</linearGradient>
<linearGradient id="paint1_linear_0_1" x1="281.515" y1="274.852" x2="324.209" y2="312.125" gradientUnits="userSpaceOnUse">
<stop stop-color="#FFE052"/>
<stop offset="1" stop-color="#FFC331"/>
</linearGradient>
<clipPath id="clip0_0_1">
<rect width="90" height="90" fill="white" transform="translate(246 101)"/>
</clipPath>
<clipPath id="clip1_0_1">
<rect width="84" height="80" fill="white" transform="translate(495 237)"/>
</clipPath>
<clipPath id="clip2_0_1">
<rect width="91.43" height="90" fill="white" transform="translate(123 237)"/>
</clipPath>
</defs>
</svg>
