<svg width="582" height="311" viewBox="0 0 582 311" fill="none" xmlns="http://www.w3.org/2000/svg">
<path d="M24.679 8.90625C24.5464 7.66572 23.9877 6.69981 23.0028 6.00852C22.0275 5.31723 20.7585 4.97159 19.196 4.97159C18.0975 4.97159 17.1553 5.13731 16.3693 5.46875C15.5833 5.80019 14.982 6.25 14.5653 6.81818C14.1487 7.38636 13.9356 8.03504 13.9261 8.7642C13.9261 9.37027 14.0634 9.89583 14.3381 10.3409C14.6222 10.786 15.0057 11.1648 15.4886 11.4773C15.9716 11.7803 16.5066 12.036 17.0938 12.2443C17.6809 12.4527 18.2727 12.6278 18.8693 12.7699L21.5966 13.4517C22.6951 13.7074 23.7509 14.053 24.7642 14.4886C25.7869 14.9242 26.7008 15.4735 27.5057 16.1364C28.3201 16.7992 28.964 17.5994 29.4375 18.5369C29.911 19.4744 30.1477 20.5729 30.1477 21.8324C30.1477 23.5369 29.7121 25.0379 28.8409 26.3352C27.9697 27.6231 26.7102 28.6316 25.0625 29.3608C23.4242 30.0805 21.4403 30.4403 19.1108 30.4403C16.8475 30.4403 14.8826 30.09 13.2159 29.3892C11.5587 28.6884 10.2614 27.6657 9.32386 26.321C8.39583 24.9763 7.89394 23.3381 7.81818 21.4062H13.0028C13.0786 22.4195 13.3911 23.2623 13.9403 23.9347C14.4896 24.607 15.2045 25.1089 16.0852 25.4403C16.9754 25.7718 17.9697 25.9375 19.0682 25.9375C20.214 25.9375 21.2178 25.767 22.0795 25.4261C22.9508 25.0758 23.6326 24.5928 24.125 23.9773C24.6174 23.3523 24.8684 22.6231 24.8778 21.7898C24.8684 21.0322 24.6458 20.4072 24.2102 19.9148C23.7746 19.4129 23.1638 18.9962 22.3778 18.6648C21.6013 18.3239 20.6922 18.0208 19.6506 17.7557L16.3409 16.9034C13.9451 16.2879 12.0511 15.3551 10.6591 14.1051C9.27652 12.8456 8.58523 11.1742 8.58523 9.09091C8.58523 7.37689 9.04924 5.87595 9.97727 4.58807C10.9148 3.30019 12.1884 2.30114 13.7983 1.59091C15.4081 0.871211 17.2311 0.511363 19.267 0.511363C21.3314 0.511363 23.1402 0.871211 24.6932 1.59091C26.2557 2.30114 27.482 3.29072 28.3722 4.55966C29.2623 5.81913 29.7216 7.26799 29.75 8.90625H24.679ZM34.8459 30V0.90909H40.1158V14.2756H40.4709L51.8203 0.90909H58.255L47.005 13.9631L58.3544 30H52.0192L43.3402 17.5284L40.1158 21.3352V30H34.8459ZM67.1861 0.90909V30H61.9162V0.90909H67.1861ZM72.8928 30V0.90909H78.1626V25.5824H90.9751V30H72.8928ZM95.549 30V0.90909H100.819V25.5824H113.631V30H95.549ZM134.015 8.90625C133.882 7.66572 133.324 6.69981 132.339 6.00852C131.363 5.31723 130.094 4.97159 128.532 4.97159C127.433 4.97159 126.491 5.13731 125.705 5.46875C124.919 5.80019 124.318 6.25 123.901 6.81818C123.485 7.38636 123.272 8.03504 123.262 8.7642C123.262 9.37027 123.399 9.89583 123.674 10.3409C123.958 10.786 124.342 11.1648 124.825 11.4773C125.308 11.7803 125.843 12.036 126.43 12.2443C127.017 12.4527 127.609 12.6278 128.205 12.7699L130.933 13.4517C132.031 13.7074 133.087 14.053 134.1 14.4886C135.123 14.9242 136.037 15.4735 136.842 16.1364C137.656 16.7992 138.3 17.5994 138.773 18.5369C139.247 19.4744 139.484 20.5729 139.484 21.8324C139.484 23.5369 139.048 25.0379 138.177 26.3352C137.306 27.6231 136.046 28.6316 134.398 29.3608C132.76 30.0805 130.776 30.4403 128.447 30.4403C126.183 30.4403 124.219 30.09 122.552 29.3892C120.895 28.6884 119.597 27.6657 118.66 26.321C117.732 24.9763 117.23 23.3381 117.154 21.4062H122.339C122.415 22.4195 122.727 23.2623 123.276 23.9347C123.826 24.607 124.54 25.1089 125.421 25.4403C126.311 25.7718 127.306 25.9375 128.404 25.9375C129.55 25.9375 130.554 25.767 131.415 25.4261C132.287 25.0758 132.969 24.5928 133.461 23.9773C133.953 23.3523 134.204 22.6231 134.214 21.7898C134.204 21.0322 133.982 20.4072 133.546 19.9148C133.111 19.4129 132.5 18.9962 131.714 18.6648C130.937 18.3239 130.028 18.0208 128.987 17.7557L125.677 16.9034C123.281 16.2879 121.387 15.3551 119.995 14.1051C118.612 12.8456 117.921 11.1742 117.921 9.09091C117.921 7.37689 118.385 5.87595 119.313 4.58807C120.251 3.30019 121.524 2.30114 123.134 1.59091C124.744 0.871211 126.567 0.511363 128.603 0.511363C130.667 0.511363 132.476 0.871211 134.029 1.59091C135.592 2.30114 136.818 3.29072 137.708 4.55966C138.598 5.81913 139.058 7.26799 139.086 8.90625H134.015Z" fill="black"/>
<path d="M290.677 226.906C270.708 226.906 271.971 235.541 271.971 235.541V244.512H290.961V247.325H264.408C264.408 247.325 251.625 245.75 251.625 266.014C251.625 286.278 262.912 285.454 262.912 285.454H269.428V276.001C269.428 276.001 269.062 264.715 280.397 264.715H299.415C299.415 264.715 310.024 264.883 310.024 254.443V237.312C310.024 237.312 311.632 226.872 290.781 226.872L290.677 226.906ZM280.18 232.917C280.855 232.9 281.52 233.083 282.091 233.444C282.662 233.805 283.113 234.327 283.387 234.944C283.661 235.561 283.746 236.246 283.631 236.912C283.516 237.577 283.206 238.193 282.741 238.683C282.275 239.172 281.675 239.513 281.016 239.661C280.358 239.809 279.67 239.759 279.039 239.516C278.409 239.273 277.865 238.849 277.476 238.297C277.087 237.745 276.87 237.09 276.853 236.415V236.359C276.853 235.454 277.213 234.585 277.853 233.945C278.493 233.304 279.362 232.945 280.267 232.945L280.18 232.917Z" fill="url(#paint0_linear_0_1)"/>
<path d="M291.239 305.122C311.208 305.122 309.945 296.459 309.945 296.459V287.516H290.958V284.703H317.592C317.592 284.703 330.375 286.132 330.375 265.986C330.375 245.84 319.088 246.546 319.088 246.546H312.487V255.875C312.487 255.875 312.853 267.162 301.519 267.162H282.492C282.492 267.162 271.875 267.001 271.875 277.441V294.687C271.875 294.687 270.266 305.127 291.118 305.127H291.231L291.239 305.122ZM301.735 299.083C301.06 299.1 300.395 298.917 299.824 298.556C299.254 298.195 298.803 297.673 298.529 297.056C298.255 296.439 298.17 295.754 298.285 295.088C298.4 294.423 298.71 293.807 299.175 293.317C299.64 292.828 300.24 292.487 300.899 292.339C301.558 292.191 302.246 292.241 302.876 292.484C303.507 292.727 304.051 293.151 304.44 293.703C304.829 294.255 305.046 294.91 305.063 295.585V295.669C305.063 296.575 304.703 297.443 304.062 298.083C303.422 298.724 302.554 299.083 301.648 299.083H301.735Z" fill="url(#paint1_linear_0_1)"/>
<g clip-path="url(#clip0_0_1)">
<path d="M246 85H336V175H246V85Z" fill="#F7DF1E"/>
<path d="M269.664 160.21L276.551 156.042C277.88 158.398 279.089 160.392 281.988 160.392C284.768 160.392 286.52 159.305 286.52 155.076V126.319H294.978V155.195C294.978 163.955 289.843 167.943 282.351 167.943C275.585 167.943 271.658 164.439 269.664 160.21M299.571 159.304L306.458 155.317C308.271 158.278 310.627 160.452 314.795 160.452C318.3 160.452 320.534 158.7 320.534 156.284C320.534 153.384 318.239 152.357 314.372 150.666L312.258 149.759C306.156 147.162 302.109 143.899 302.109 137.012C302.109 130.668 306.942 125.835 314.494 125.835C319.87 125.835 323.737 127.708 326.516 132.602L319.93 136.831C318.48 134.233 316.91 133.206 314.493 133.206C312.016 133.206 310.445 134.777 310.445 136.831C310.445 139.368 312.016 140.396 315.641 141.966L317.755 142.872C324.944 145.954 328.992 149.095 328.992 156.163C328.992 163.776 323.011 167.944 314.976 167.944C307.123 167.944 302.048 164.198 299.571 159.305" fill="black"/>
</g>
<path d="M449.685 90.625H378.315C376.277 90.625 374.625 92.2771 374.625 94.315V165.685C374.625 167.723 376.277 169.375 378.315 169.375H449.685C451.723 169.375 453.375 167.723 453.375 165.685V94.315C453.375 92.2771 451.723 90.625 449.685 90.625Z" fill="#3178C6"/>
<path fill-rule="evenodd" clip-rule="evenodd" d="M420.314 151.822V160.451C421.882 161.225 423.553 161.769 425.275 162.068C427.266 162.436 429.287 162.616 431.311 162.608C433.284 162.618 435.252 162.419 437.183 162.015C438.917 161.664 440.572 160.997 442.063 160.046C443.448 159.152 444.589 157.929 445.385 156.485C446.81 153.497 446.998 150.066 445.908 146.94C445.448 145.77 444.763 144.703 443.891 143.798C442.956 142.836 441.893 142.006 440.733 141.332C439.397 140.549 438.009 139.859 436.579 139.267C435.454 138.8 434.441 138.347 433.541 137.906C432.742 137.523 431.977 137.072 431.255 136.559C430.689 136.162 430.198 135.669 429.803 135.102C429.463 134.587 429.285 133.981 429.294 133.364C429.287 132.796 429.445 132.237 429.75 131.758C430.081 131.256 430.523 130.836 431.041 130.532C431.675 130.159 432.364 129.89 433.083 129.736C433.965 129.54 434.868 129.445 435.772 129.454C436.532 129.457 437.291 129.511 438.044 129.618C438.857 129.727 439.662 129.894 440.452 130.115C441.255 130.338 442.041 130.62 442.803 130.959C443.542 131.289 444.249 131.686 444.915 132.146V124.094C443.529 123.569 442.091 123.192 440.626 122.969C438.857 122.711 437.07 122.59 435.282 122.606C433.328 122.595 431.379 122.817 429.477 123.267C427.758 123.66 426.123 124.358 424.651 125.328C423.283 126.24 422.154 127.465 421.357 128.903C420.514 130.5 420.096 132.287 420.145 134.092C420.083 136.479 420.869 138.811 422.364 140.673C424.199 142.738 426.512 144.321 429.1 145.283C430.282 145.771 431.383 146.248 432.405 146.715C433.327 147.125 434.213 147.611 435.054 148.169C435.733 148.61 436.329 149.167 436.815 149.814C437.243 150.401 437.469 151.11 437.462 151.836C437.466 152.38 437.326 152.916 437.057 153.389C436.758 153.897 436.337 154.323 435.833 154.629C435.203 155.014 434.513 155.291 433.792 155.45C432.852 155.66 431.891 155.759 430.928 155.746C429.039 155.742 427.165 155.409 425.391 154.761C423.537 154.092 421.817 153.097 420.314 151.822ZM405.818 130.34H417.068V123.233H385.701V130.34H396.9V161.992H405.818V130.34Z" fill="white"/>
<path d="M16.5994 161.503L10.2797 90.625H79.7203L73.3922 161.492L44.9578 169.375L16.5994 161.503Z" fill="#E44F26"/>
<path d="M45 163.351L67.9781 156.98L73.3837 96.4216H45V163.351Z" fill="#F1662A"/>
<path d="M45 122.707H33.4969L32.7038 113.806H45V105.112H23.2031L23.4113 107.447L25.5459 131.401H45V122.707ZM45 145.283L44.9606 145.294L35.28 142.682L34.6613 135.749H25.9341L27.1519 149.395L44.9606 154.339L45 154.328V145.283Z" fill="#EBEBEB"/>
<path d="M44.9691 122.707V131.401H55.6734L54.6666 142.676L44.9691 145.292V154.337L62.7919 149.395L62.9212 147.927L64.9631 125.042L65.1769 122.707H44.9691ZM44.9691 105.112V113.806H65.9672L66.1416 111.854L66.5381 107.447L66.7462 105.112H44.9691Z" fill="white"/>
<path d="M402.755 232.25H413.906V283.35C409.146 284.327 404.301 284.831 399.442 284.855C385.823 284.841 378.736 278.757 378.736 267.074C378.736 255.824 386.254 248.512 397.906 248.512C399.54 248.48 401.171 248.669 402.755 249.074V232.25ZM402.755 257.962C401.542 257.562 400.271 257.372 398.994 257.399C393.369 257.399 390.098 260.839 390.098 266.866C390.098 272.736 393.212 275.976 398.924 275.976C400.206 275.976 401.486 275.882 402.755 275.695V257.976V257.962Z" fill="#44B78B"/>
<path d="M431.625 249.291V274.885C431.625 283.696 430.964 287.932 429.029 291.585C427.054 295.3 423.825 298.193 419.917 299.75L409.572 294.876C413.33 293.589 416.478 290.955 418.406 287.482C419.998 284.329 420.502 280.676 420.502 271.065V249.291H431.625ZM420.49 232.306H431.639V243.635H420.49V232.306Z" fill="#44B78B"/>
<path d="M537 136.958C540.883 136.958 544.031 133.81 544.031 129.927C544.031 126.044 540.883 122.896 537 122.896C533.117 122.896 529.969 126.044 529.969 129.927C529.969 133.81 533.117 136.958 537 136.958Z" fill="#007ACC"/>
<path d="M537 146.048C528.549 146.253 520.119 145.113 512.025 142.673C508.286 141.488 504.799 139.621 501.74 137.166C500.572 136.328 499.6 135.247 498.89 133.997C498.18 132.747 497.748 131.359 497.625 129.927C497.625 125.278 502.732 120.722 511.288 117.74C519.598 115.099 528.281 113.818 537 113.949C545.603 113.829 554.169 115.086 562.374 117.673C565.975 118.821 569.344 120.598 572.325 122.921C573.472 123.72 574.43 124.762 575.13 125.973C575.83 127.184 576.255 128.534 576.375 129.927C576.375 134.759 570.666 139.655 561.469 142.698C553.532 145.059 545.28 146.189 537 146.048ZM537 117.313C528.658 117.201 520.352 118.418 512.393 120.918C504.518 123.666 500.989 127.424 500.989 129.918C500.989 132.528 504.783 136.632 513.113 139.481C520.856 141.804 528.919 142.885 537 142.684C544.921 142.826 552.817 141.754 560.414 139.506C569.063 136.64 573 132.531 573 129.927C572.858 129.033 572.532 128.179 572.043 127.417C571.555 126.656 570.913 126.004 570.159 125.503C567.492 123.442 564.483 121.867 561.269 120.851C553.419 118.386 545.226 117.192 537 117.313Z" fill="#007ACC"/>
<path d="M521.025 164.996C519.713 165.026 518.416 164.708 517.268 164.073C513.24 161.75 511.845 155.051 513.535 146.149C515.399 137.631 518.628 129.469 523.098 121.982C527.29 114.47 532.658 107.677 538.997 101.861C541.79 99.3148 545.012 97.2837 548.514 95.8619C549.781 95.2683 551.163 94.9606 552.562 94.9606C553.96 94.9606 555.342 95.2683 556.609 95.8619C560.797 98.275 562.183 105.666 560.228 115.153C558.307 123.209 555.162 130.924 550.902 138.027C546.857 145.45 541.659 152.184 535.501 157.976C532.606 160.622 529.247 162.709 525.593 164.133C524.129 164.676 522.585 164.967 521.025 164.996ZM526.012 123.652C521.748 130.822 518.653 138.625 516.843 146.768C515.288 154.967 516.781 159.897 518.952 161.151C521.202 162.453 526.664 161.219 533.296 155.425C539.174 149.876 544.136 143.43 547.997 136.328C552.078 129.537 555.095 122.162 556.943 114.458C558.783 105.528 557.194 100.061 554.938 98.7616C554.093 98.4377 553.189 98.2926 552.285 98.3357C551.381 98.3788 550.495 98.6091 549.684 99.0119C546.567 100.298 543.701 102.124 541.219 104.406C535.163 109.977 530.035 116.48 526.031 123.669L526.012 123.652Z" fill="#007ACC"/>
<path d="M552.967 165.033C549.156 165.033 544.315 162.726 539.275 158.392C532.825 152.523 527.367 145.65 523.112 138.038C518.698 130.654 515.495 122.61 513.623 114.213C512.811 110.519 512.66 106.71 513.178 102.963C513.298 101.574 513.721 100.227 514.418 99.0182C515.115 97.8097 516.068 96.7687 517.211 95.9688C521.393 93.5472 528.489 96.0363 535.732 102.466C541.752 108.153 546.865 114.73 550.891 121.968C555.302 129.18 558.539 137.047 560.482 145.275C561.328 149.104 561.459 153.058 560.867 156.935C560.726 158.365 560.278 159.748 559.552 160.988C558.827 162.228 557.842 163.297 556.665 164.121C555.535 164.748 554.258 165.062 552.967 165.033ZM526.023 136.345C530.105 143.619 535.319 150.198 541.469 155.833C547.794 161.275 552.812 162.445 554.969 161.177C557.219 159.869 558.878 154.531 557.168 145.893C555.295 138.038 552.19 130.528 547.969 123.644C544.126 116.717 539.246 110.419 533.498 104.969C526.681 98.9163 521.152 97.5634 518.899 98.8684C518.197 99.439 517.62 100.149 517.206 100.954C516.793 101.758 516.55 102.64 516.494 103.543C516.047 106.884 516.193 110.278 516.924 113.569C518.725 121.599 521.798 129.29 526.026 136.351L526.023 136.345Z" fill="#007ACC"/>
<path d="M6.99879 221C6.84626 221.002 6.69624 221.039 6.55987 221.107C6.42351 221.174 6.30433 221.272 6.21117 221.391C6.11802 221.511 6.0533 221.65 6.02183 221.798C5.99036 221.945 5.99294 222.098 6.02939 222.245L16.9881 266.18C16.9968 266.231 17.0095 266.281 17.026 266.33L27.9696 310.236C28.0124 310.407 28.1002 310.565 28.2241 310.692C28.3481 310.82 28.5038 310.912 28.6755 310.961C28.8473 311.01 29.0289 311.013 29.2022 310.97C29.3754 310.927 29.5341 310.839 29.6622 310.716L95.6911 247.813C95.8188 247.69 95.9119 247.537 95.9608 247.367C96.0098 247.198 96.0129 247.019 95.97 246.848C95.927 246.677 95.8394 246.52 95.7161 246.394C95.5927 246.267 95.4378 246.174 95.267 246.125L73.3646 239.874C73.2224 239.794 73.0626 239.749 72.8989 239.743L29.719 227.431C29.5553 227.331 29.3662 227.279 29.1738 227.281L7.28658 221.038C7.19296 221.011 7.09604 220.999 6.99879 221ZM8.41502 223.453L27.1819 228.8L13.0954 242.24L8.41502 223.453ZM30.59 229.775L49.0085 235.025L35.187 248.207L30.59 229.775ZM28.6133 230.225L33.2217 248.698L14.754 243.448L28.6133 230.225ZM52.3939 235.993L70.8654 241.258L56.9985 254.495L52.3939 235.993ZM50.4248 236.48L54.9991 254.855L36.6222 249.635L50.4248 236.48ZM74.281 242.233L93.0139 247.573L78.9462 260.975L74.281 242.233ZM72.2968 242.683L76.8976 261.155L58.4337 255.913L72.2968 242.683ZM13.8603 245.293L32.6575 250.633L18.5483 264.08L13.8603 245.293ZM36.0315 251.563L54.4993 256.813L40.6399 270.039L36.0315 251.563ZM34.07 252.077L38.7503 270.89L19.9569 265.52L34.07 252.077ZM57.8278 257.833L76.6288 263.177L62.5044 276.624L57.8278 257.833ZM55.8587 258.309L60.5353 277.104L41.7608 271.742L55.8587 258.309ZM19.3927 267.452L37.8453 272.724L24.0011 285.935L19.3927 267.452ZM41.5601 273.778L59.9748 279.039L46.1609 292.202L41.5601 273.778ZM39.5153 273.928L44.1123 292.404L25.6521 287.154L39.5153 273.928ZM24.7622 289.003L43.8359 294.411L29.5146 308.053L24.7622 289.003Z" fill="#555555"/>
<path d="M139.599 161.503L133.283 90.625H202.718L196.392 161.492L167.958 169.375L139.599 161.503Z" fill="#1572B6"/>
<path d="M168 163.351L190.978 156.98L196.384 96.4216H168V163.351Z" fill="#33A9DC"/>
<path d="M168 122.1H179.503L180.296 113.198H168V104.505H189.797L189.589 106.836L187.454 130.793H168V122.1Z" fill="white"/>
<path d="M168.053 144.676L168.014 144.687L158.333 142.071L157.715 135.138H148.988L150.205 148.787L168.011 153.732L168.053 153.721V144.676Z" fill="#EBEBEB"/>
<path d="M178.763 130.425L177.717 142.066L168.022 144.681V153.726L185.842 148.787L185.975 147.319L187.485 130.425H178.763Z" fill="white"/>
<path d="M168.031 104.505V113.198H147.033L146.858 111.243L146.462 106.836L146.254 104.505H168.031ZM168 122.1V130.793H158.44L158.266 128.838L157.872 124.431L157.664 122.1H168Z" fill="#EBEBEB"/>
<g clip-path="url(#clip1_0_1)">
<path d="M553.203 276.65C556.302 276.33 558.654 273.659 558.547 270.455C558.44 267.25 555.768 264.687 552.561 264.687H552.348C549.034 264.794 546.469 267.571 546.575 270.882C546.682 272.484 547.324 273.873 548.286 274.834C544.651 281.991 539.093 287.225 530.756 291.604C525.091 294.595 519.212 295.663 513.333 294.915C508.523 294.274 504.782 292.138 502.43 288.613C499.01 283.379 498.689 277.718 501.575 272.057C503.606 267.998 506.813 265.007 508.844 263.512C508.416 262.123 507.775 259.773 507.454 258.065C491.955 269.28 493.559 284.448 498.262 291.604C501.789 296.945 508.951 300.256 516.86 300.256C518.998 300.256 521.136 300.042 523.274 299.509C536.956 296.838 547.324 288.72 553.203 276.65ZM572.015 263.405C563.892 253.899 551.92 248.665 538.238 248.665H536.528C535.566 246.742 533.535 245.46 531.29 245.46H531.076C527.763 245.567 525.198 248.344 525.305 251.656C525.412 254.86 528.084 257.424 531.29 257.424H531.504C533.856 257.317 535.887 255.821 536.742 253.792H538.666C546.789 253.792 554.485 256.142 561.433 260.735C566.778 264.26 570.626 268.853 572.763 274.407C574.58 278.893 574.474 283.272 572.549 287.011C569.557 292.672 564.533 295.77 557.906 295.77C553.63 295.77 549.569 294.488 547.431 293.527C546.255 294.595 544.117 296.304 542.62 297.372C547.217 299.508 551.92 300.683 556.409 300.683C566.671 300.683 574.26 295.022 577.146 289.361C580.246 283.166 580.032 272.484 572.015 263.405ZM517.715 278.466C517.822 281.67 520.495 284.233 523.701 284.233H523.915C527.229 284.127 529.794 281.35 529.687 278.038C529.58 274.834 526.908 272.27 523.701 272.27H523.488C523.274 272.27 522.953 272.27 522.739 272.377C518.357 265.114 516.54 257.21 517.181 248.665C517.608 242.256 519.746 236.701 523.488 232.108C526.587 228.156 532.573 226.233 536.635 226.127C547.965 225.913 552.775 240.012 553.096 245.674C554.485 245.994 556.837 246.742 558.44 247.276C557.157 229.972 546.469 221 536.207 221C526.587 221 517.715 227.943 514.188 238.197C509.271 251.869 512.478 265.007 518.464 275.368C517.929 276.116 517.608 277.29 517.715 278.466Z" fill="#764ABC"/>
</g>
<g clip-path="url(#clip2_0_1)">
<path d="M207.161 290.361C202.19 290.237 198.337 290.735 195.106 292.101C194.174 292.474 192.683 292.474 192.559 293.655C193.056 294.152 193.118 294.96 193.553 295.643C194.299 296.886 195.603 298.564 196.784 299.434C198.089 300.428 199.394 301.422 200.76 302.292C203.184 303.783 205.918 304.653 208.279 306.144C209.647 307.014 211.013 308.133 212.38 309.065C213.064 309.561 213.498 310.37 214.369 310.68V310.494C213.933 309.934 213.809 309.127 213.374 308.505C212.754 307.884 212.131 307.325 211.51 306.703C209.708 304.28 207.471 302.167 205.048 300.428C203.06 299.061 198.71 297.197 197.903 294.897C197.903 294.897 197.84 294.836 197.778 294.774C199.145 294.649 200.76 294.152 202.066 293.779C204.178 293.22 206.104 293.344 208.279 292.785C209.273 292.536 210.268 292.226 211.261 291.915V291.356C210.144 290.237 209.336 288.746 208.155 287.69C204.986 284.955 201.506 282.284 197.903 280.047C195.976 278.804 193.49 277.996 191.44 276.94C190.695 276.567 189.452 276.381 189.017 275.76C187.898 274.393 187.277 272.591 186.469 270.975C184.668 267.557 182.928 263.767 181.374 260.164C180.256 257.74 179.572 255.317 178.205 253.08C171.805 242.517 164.846 236.117 154.159 229.841C151.86 228.536 149.126 227.977 146.205 227.294C144.652 227.231 143.099 227.107 141.545 227.045C140.551 226.61 139.557 225.43 138.687 224.87C135.146 222.633 126.011 217.787 123.401 224.187C121.724 228.226 125.887 232.202 127.316 234.253C128.373 235.682 129.739 237.297 130.485 238.913C130.92 239.969 131.044 241.088 131.479 242.206C132.474 244.94 133.405 247.985 134.71 250.533C135.394 251.837 136.139 253.204 137.009 254.385C137.506 255.068 138.376 255.379 138.563 256.497C137.693 257.74 137.631 259.605 137.133 261.158C134.896 268.179 135.767 276.878 138.935 282.035C139.929 283.588 142.291 287.007 145.46 285.701C148.256 284.583 147.635 281.041 148.442 277.935C148.629 277.188 148.505 276.692 148.877 276.195V276.319C149.747 278.059 150.617 279.737 151.425 281.476C153.351 284.521 156.706 287.69 159.502 289.803C160.994 290.921 162.174 292.847 164.039 293.531V293.344H163.914C163.541 292.785 162.982 292.536 162.485 292.101C161.367 290.983 160.124 289.616 159.254 288.373C156.645 284.893 154.345 281.041 152.295 277.064C151.301 275.139 150.43 273.026 149.623 271.1C149.25 270.353 149.25 269.235 148.629 268.863C147.696 270.23 146.33 271.41 145.646 273.088C144.466 275.76 144.341 279.053 143.906 282.47C143.658 282.533 143.782 282.47 143.657 282.595C141.67 282.097 140.986 280.047 140.24 278.307C138.376 273.896 138.065 266.812 139.681 261.717C140.116 260.412 141.98 256.311 141.235 255.069C140.862 253.888 139.619 253.204 138.935 252.272C138.128 251.092 137.257 249.601 136.699 248.296C135.207 244.816 134.461 240.964 132.846 237.484C132.1 235.868 130.796 234.191 129.739 232.7C128.559 231.022 127.254 229.841 126.322 227.853C126.011 227.17 125.576 226.051 126.073 225.305C126.197 224.808 126.446 224.622 126.943 224.498C127.751 223.814 130.05 224.684 130.857 225.057C133.157 225.988 135.083 226.859 137.009 228.164C137.879 228.785 138.811 229.966 139.929 230.276H141.234C143.223 230.711 145.459 230.401 147.324 230.96C150.617 232.016 153.599 233.569 156.271 235.247C164.411 240.404 171.121 247.736 175.658 256.497C176.404 257.926 176.714 259.232 177.398 260.722C178.703 263.767 180.318 266.874 181.623 269.857C182.928 272.777 184.17 275.76 186.034 278.183C186.966 279.487 190.694 280.171 192.372 280.855C193.615 281.414 195.541 281.911 196.66 282.595C198.772 283.899 200.885 285.391 202.873 286.82C203.868 287.565 206.974 289.119 207.161 290.361Z" fill="#00546B"/>
<path d="M143.781 236.365C142.725 236.365 141.98 236.49 141.234 236.676V236.8H141.359C141.856 237.795 142.725 238.478 143.346 239.348C143.844 240.342 144.279 241.336 144.776 242.331C144.838 242.268 144.9 242.206 144.9 242.206C145.77 241.585 146.205 240.591 146.205 239.099C145.832 238.665 145.77 238.23 145.459 237.795C145.087 237.173 144.279 236.862 143.781 236.365Z" fill="#00546B"/>
</g>
<defs>
<linearGradient id="paint0_linear_0_1" x1="259.408" y1="234.564" x2="296.776" y2="271.848" gradientUnits="userSpaceOnUse">
<stop stop-color="#387EB8"/>
<stop offset="1" stop-color="#366994"/>
</linearGradient>
<linearGradient id="paint1_linear_0_1" x1="281.515" y1="258.852" x2="324.209" y2="296.125" gradientUnits="userSpaceOnUse">
<stop stop-color="#FFE052"/>
<stop offset="1" stop-color="#FFC331"/>
</linearGradient>
<clipPath id="clip0_0_1">
<rect width="90" height="90" fill="white" transform="translate(246 85)"/>
</clipPath>
<clipPath id="clip1_0_1">
<rect width="84" height="80" fill="white" transform="translate(495 221)"/>
</clipPath>
<clipPath id="clip2_0_1">
<rect width="91.43" height="90" fill="white" transform="translate(123 221)"/>
</clipPath>
</defs>
</svg>
